<svg width="39" height="30" viewBox="0 0 39 30" fill="none" xmlns="http://www.w3.org/2000/svg">
<path d="M0 0H39V30H0V0Z" fill="#012169"/>
<path d="M4.57031 0L19.4391 11.3125L34.2469 0H39V3.875L24.375 15.0625L39 26.1875V30H34.125L19.5 18.8125L4.93594 30H0V26.25L14.5641 15.125L0 4V0H4.57031Z" fill="white"/>
<path d="M25.8375 17.5625L39 27.5V30L22.4859 17.5625H25.8375ZM14.625 18.8125L14.9906 21L3.29063 30H0L14.625 18.8125ZM39 0V0.1875L23.8266 11.9375L23.9484 9.1875L35.9531 0H39ZM0 0L14.5641 11H10.9078L0 2.625V0Z" fill="#C8102E"/>
<path d="M14.6859 0V30H24.4359V0H14.6859ZM0 10V20H39V10H0Z" fill="white"/>
<path d="M0 12.0625V18.0625H39V12.0625H0ZM16.6359 0V30H22.4859V0H16.6359Z" fill="#C8102E"/>
</svg>
