<svg width="37" height="28" viewBox="0 0 37 28" fill="none" xmlns="http://www.w3.org/2000/svg">
<g clip-path="url(#clip0_4_334)">
<path d="M0 0H37V9.33333H0V0Z" fill="#FF9933"/>
<path d="M0 9.33325H37V18.6666H0V9.33325Z" fill="white"/>
<path d="M0 18.6667H37V28.0001H0V18.6667Z" fill="#128807"/>
<path d="M18.5 17.7335C20.5434 17.7335 22.2 16.062 22.2 14.0002C22.2 11.9383 20.5434 10.2668 18.5 10.2668C16.4565 10.2668 14.8 11.9383 14.8 14.0002C14.8 16.062 16.4565 17.7335 18.5 17.7335Z" fill="#000088"/>
<path d="M18.5 17.2667C20.288 17.2667 21.7375 15.8042 21.7375 14.0001C21.7375 12.1959 20.288 10.7334 18.5 10.7334C16.712 10.7334 15.2625 12.1959 15.2625 14.0001C15.2625 15.8042 16.712 17.2667 18.5 17.2667Z" fill="white"/>
<path d="M18.4998 14.6538C18.8574 14.6538 19.1473 14.3613 19.1473 14.0005C19.1473 13.6397 18.8574 13.3472 18.4998 13.3472C18.1422 13.3472 17.8523 13.6397 17.8523 14.0005C17.8523 14.3613 18.1422 14.6538 18.4998 14.6538Z" fill="#000088"/>
<path d="M21.688 14.5943C21.7792 14.6064 21.8629 14.5417 21.8749 14.4497C21.8869 14.3577 21.8227 14.2733 21.7315 14.2612C21.6403 14.2491 21.5567 14.3138 21.5447 14.4058C21.5327 14.4978 21.5969 14.5822 21.688 14.5943Z" fill="#000088"/>
<path d="M18.5 17.2669L18.611 15.3069L18.5 14.3735L18.389 15.3069L18.5 17.2669Z" fill="#000088"/>
<path d="M21.4273 15.4062C21.5124 15.4418 21.6098 15.4014 21.6448 15.3158C21.6799 15.2302 21.6394 15.132 21.5543 15.0963C21.4692 15.0606 21.3718 15.1011 21.3367 15.1867C21.3017 15.2722 21.3422 15.3705 21.4273 15.4062Z" fill="#000088"/>
<path d="M17.6628 17.1553L18.2726 15.2916L18.4037 14.361L18.0569 15.2332L17.6628 17.1553Z" fill="#000088"/>
<path d="M20.967 16.1234C21.0401 16.1801 21.1446 16.1664 21.2005 16.093C21.2563 16.0195 21.2423 15.9141 21.1692 15.8574C21.0961 15.8008 20.9916 15.8144 20.9358 15.8879C20.8799 15.9614 20.8939 16.0668 20.967 16.1234Z" fill="#000088"/>
<path d="M16.882 16.8295L17.9492 15.1887L18.3149 14.3243L17.7561 15.0762L16.882 16.8295Z" fill="#000088"/>
<path d="M20.3387 16.6948C20.3948 16.7685 20.4993 16.7826 20.5722 16.7263C20.645 16.6699 20.6586 16.5645 20.6025 16.4907C20.5464 16.417 20.4418 16.4029 20.369 16.4592C20.2962 16.5156 20.2826 16.621 20.3387 16.6948Z" fill="#000088"/>
<path d="M16.2115 16.3101L17.6634 15.0041L18.2386 14.2648L17.5059 14.8451L16.2115 16.3101Z" fill="#000088"/>
<path d="M19.5835 17.0834C19.6186 17.169 19.716 17.2094 19.8011 17.1737C19.8862 17.1381 19.9268 17.0398 19.8917 16.9542C19.8567 16.8687 19.7593 16.8282 19.6742 16.8639C19.5891 16.8996 19.5485 16.9978 19.5835 17.0834Z" fill="#000088"/>
<path d="M15.696 15.6339L17.4338 14.7499L18.1798 14.1864L17.3234 14.5568L15.696 15.6339Z" fill="#000088"/>
<path d="M18.7557 17.2615C18.7675 17.3533 18.8512 17.4178 18.9425 17.4056C19.0338 17.3933 19.0983 17.3089 19.0864 17.2171C19.0746 17.1252 18.991 17.0607 18.8996 17.073C18.8083 17.0853 18.7439 17.1696 18.7557 17.2615Z" fill="#000088"/>
<path d="M15.3723 14.8464L17.2774 14.4459L18.1425 14.0963L17.2204 14.2307L15.3723 14.8464Z" fill="#000088"/>
<path d="M17.911 17.2172C17.8989 17.3094 17.9629 17.3938 18.0539 17.4057C18.145 17.4177 18.2286 17.3526 18.2407 17.2604C18.2529 17.1682 18.1889 17.0838 18.0979 17.0719C18.0068 17.06 17.9232 17.1251 17.911 17.2172Z" fill="#000088"/>
<path d="M15.2624 14.0029L17.2044 14.1085L18.1295 13.9975L17.2048 13.8899L15.2624 14.0029Z" fill="#000088"/>
<path d="M17.1056 16.9539C17.0704 17.0397 17.1106 17.138 17.1956 17.1734C17.2805 17.2088 17.3779 17.1679 17.4131 17.0821C17.4483 16.9963 17.4081 16.898 17.3232 16.8626C17.2383 16.8272 17.1409 16.8681 17.1056 16.9539Z" fill="#000088"/>
<path d="M15.3723 13.1553L17.2197 13.7706L18.142 13.9033L17.2773 13.5534L15.3723 13.1553Z" fill="#000088"/>
<path d="M16.3956 16.4885C16.3398 16.5619 16.3538 16.6674 16.4269 16.724C16.5 16.7806 16.6045 16.767 16.6603 16.6936C16.7162 16.6201 16.7022 16.5146 16.6291 16.458C16.556 16.4014 16.4515 16.415 16.3956 16.4885Z" fill="#000088"/>
<path d="M15.6958 12.3663L17.3232 13.4434L18.1797 13.8138L17.4337 13.2503L15.6958 12.3663Z" fill="#000088"/>
<path d="M15.8284 15.8539C15.7556 15.9102 15.742 16.0157 15.7982 16.0895C15.8543 16.1632 15.9588 16.1774 16.0316 16.121C16.1044 16.0647 16.118 15.9592 16.0618 15.8855C16.0057 15.8117 15.9012 15.7976 15.8284 15.8539Z" fill="#000088"/>
<path d="M16.2097 11.6895L17.5055 13.1547L18.238 13.7361L17.6619 12.997L16.2097 11.6895Z" fill="#000088"/>
<path d="M15.4445 15.0935C15.3597 15.1289 15.3195 15.2272 15.3548 15.313C15.3901 15.3989 15.4875 15.4398 15.5723 15.4044C15.6572 15.369 15.6974 15.2707 15.6621 15.1849C15.6268 15.0991 15.5294 15.0581 15.4445 15.0935Z" fill="#000088"/>
<path d="M16.881 11.1707L17.7568 12.9242L18.3153 13.6769L17.9485 12.8127L16.881 11.1707Z" fill="#000088"/>
<path d="M15.2681 14.2584C15.177 14.2704 15.113 14.3548 15.1251 14.4469C15.1372 14.539 15.2208 14.604 15.3119 14.592C15.4029 14.58 15.467 14.4956 15.4549 14.4035C15.4428 14.3114 15.3591 14.2464 15.2681 14.2584Z" fill="#000088"/>
<path d="M17.6618 10.8443L18.0582 12.7666L18.4047 13.6394L18.2719 12.7089L17.6618 10.8443Z" fill="#000088"/>
<path d="M15.3122 13.4058C15.2209 13.3935 15.1373 13.4579 15.1254 13.5498C15.1136 13.6416 15.178 13.726 15.2693 13.7383C15.3606 13.7505 15.4442 13.6861 15.4561 13.5943C15.468 13.5024 15.4036 13.4181 15.3122 13.4058Z" fill="#000088"/>
<path d="M18.4985 10.7332L18.3922 12.6925L18.5025 13.6259L18.6102 12.6931L18.4985 10.7332Z" fill="#000088"/>
<path d="M15.5733 12.5938C15.4882 12.5582 15.3908 12.5986 15.3557 12.6842C15.3207 12.7698 15.3612 12.868 15.4463 12.9037C15.5314 12.9394 15.6288 12.8989 15.6638 12.8133C15.6989 12.7277 15.6584 12.6295 15.5733 12.5938Z" fill="#000088"/>
<path d="M19.338 10.8447L18.7283 12.7084L18.5971 13.639L18.944 12.7668L19.338 10.8447Z" fill="#000088"/>
<path d="M16.0326 11.8771C15.9595 11.8204 15.855 11.834 15.7992 11.9075C15.7433 11.9809 15.7573 12.0864 15.8304 12.143C15.9035 12.1997 16.008 12.1861 16.0638 12.1126C16.1197 12.0392 16.1057 11.9337 16.0326 11.8771Z" fill="#000088"/>
<path d="M20.1177 11.171L19.0504 12.8117L18.6848 13.6761L19.2435 12.9243L20.1177 11.171Z" fill="#000088"/>
<path d="M16.6611 11.3058C16.605 11.232 16.5005 11.2179 16.4277 11.2742C16.3549 11.3305 16.3413 11.436 16.3974 11.5097C16.4535 11.5835 16.5581 11.5977 16.6309 11.5413C16.7037 11.485 16.7172 11.3795 16.6611 11.3058Z" fill="#000088"/>
<path d="M20.7882 11.6907L19.3363 12.9966L18.7612 13.7359L19.4938 13.1557L20.7882 11.6907Z" fill="#000088"/>
<path d="M17.4164 10.9168C17.3813 10.8313 17.2839 10.7908 17.1988 10.8265C17.1137 10.8622 17.0731 10.9604 17.1081 11.046C17.1432 11.1316 17.2406 11.172 17.3257 11.1363C17.4108 11.1007 17.4514 11.0024 17.4164 10.9168Z" fill="#000088"/>
<path d="M21.3043 12.3663L19.5665 13.2503L18.8205 13.8138L19.677 13.4434L21.3043 12.3663Z" fill="#000088"/>
<path d="M18.2442 10.7388C18.2323 10.6469 18.1487 10.5824 18.0573 10.5947C17.966 10.607 17.9016 10.6913 17.9134 10.7832C17.9252 10.875 18.0089 10.9395 18.1002 10.9273C18.1915 10.915 18.256 10.8306 18.2442 10.7388Z" fill="#000088"/>
<path d="M21.6275 13.1538L19.7224 13.5544L18.8572 13.9039L19.7793 13.7695L21.6275 13.1538Z" fill="#000088"/>
<path d="M19.0885 10.7831C19.1007 10.6909 19.0368 10.6065 18.9458 10.5946C18.8547 10.5827 18.7711 10.6478 18.7589 10.74C18.7468 10.8322 18.8107 10.9166 18.9017 10.9285C18.9928 10.9404 19.0764 10.8753 19.0885 10.7831Z" fill="#000088"/>
<path d="M21.7372 13.9972L19.7953 13.892L18.8702 14.003L19.7948 14.1102L21.7372 13.9972Z" fill="#000088"/>
<path d="M19.8938 11.0465C19.929 10.9606 19.8888 10.8623 19.8039 10.827C19.719 10.7916 19.6216 10.8325 19.5864 10.9183C19.5511 11.0041 19.5913 11.1024 19.6762 11.1378C19.7611 11.1732 19.8585 11.1323 19.8938 11.0465Z" fill="#000088"/>
<path d="M21.627 14.845L19.7797 14.2297L18.8575 14.0973L19.722 14.4472L21.627 14.845Z" fill="#000088"/>
<path d="M20.6042 11.5115C20.6602 11.4378 20.6466 11.3323 20.5737 11.2759C20.5008 11.2195 20.3963 11.2335 20.3402 11.3072C20.2842 11.3809 20.2979 11.4864 20.3707 11.5428C20.4436 11.5992 20.5482 11.5852 20.6042 11.5115Z" fill="#000088"/>
<path d="M21.304 15.6333L19.6775 14.5564L18.8209 14.1872L19.5663 14.7509L21.304 15.6333Z" fill="#000088"/>
<path d="M21.1707 12.1458C21.2437 12.0892 21.2575 11.9838 21.2016 11.9102C21.1457 11.8367 21.0412 11.8229 20.9682 11.8795C20.8952 11.9361 20.8813 12.0415 20.9372 12.1151C20.9931 12.1886 21.0976 12.2023 21.1707 12.1458Z" fill="#000088"/>
<path d="M20.7894 16.3099L19.4947 14.8448L18.7621 14.2644L19.3374 15.0036L20.7894 16.3099Z" fill="#000088"/>
<path d="M21.5553 12.9064C21.6404 12.8708 21.6808 12.7725 21.6457 12.6868C21.6106 12.6012 21.5132 12.5606 21.4281 12.5962C21.3431 12.6318 21.3027 12.7301 21.3378 12.8157C21.3729 12.9014 21.4703 12.9419 21.5553 12.9064Z" fill="#000088"/>
<path d="M20.1187 16.8292L19.244 15.0758L18.6853 14.3237L19.0514 15.1881L20.1187 16.8292Z" fill="#000088"/>
<path d="M21.7318 13.7414C21.823 13.7292 21.8873 13.6449 21.8754 13.5529C21.8634 13.461 21.7798 13.3964 21.6886 13.4086C21.5973 13.4208 21.5331 13.5052 21.545 13.5971C21.5569 13.689 21.6406 13.7536 21.7318 13.7414Z" fill="#000088"/>
<path d="M19.3378 17.1553L18.9429 15.2332L18.5962 14.3608L18.7279 15.2914L19.3378 17.1553Z" fill="#000088"/>
</g>
<defs>
<clipPath id="clip0_4_334">
<rect width="37" height="28" fill="white"/>
</clipPath>
</defs>
</svg>
