<svg width="39" height="29" viewBox="0 0 39 29" fill="none" xmlns="http://www.w3.org/2000/svg">
<mask id="mask0_4_292" style="mask-type:luminance" maskUnits="userSpaceOnUse" x="0" y="0" width="39" height="29">
<path d="M3.05176e-05 0H38.6521V28.9876H3.05176e-05V0Z" fill="white"/>
</mask>
<g mask="url(#mask0_4_292)">
<path fill-rule="evenodd" clip-rule="evenodd" d="M6.10352e-05 0H38.6578V28.9876H6.10352e-05V0Z" fill="white"/>
<path fill-rule="evenodd" clip-rule="evenodd" d="M4.23515 8.80469L8.25606 2.77559L9.26091 3.44574L5.24 9.47484L4.23515 8.80469ZM5.74243 9.80991L9.76334 3.78082L10.7682 4.45097L6.74728 10.4801L5.74243 9.80991ZM7.2497 10.8151L11.2706 4.78604L12.2755 5.4562L8.25455 11.4853L7.2497 10.8151Z" fill="#000001"/>
<path fill-rule="evenodd" clip-rule="evenodd" d="M26.3414 23.5483L30.3624 17.5192L31.3672 18.1894L27.3463 24.2185L26.3414 23.5483ZM27.8487 24.5536L31.8696 18.5245L32.8745 19.1946L28.8536 25.2237L27.8487 24.5536ZM29.356 25.5588L33.3769 19.5297L34.3818 20.1998L30.3608 26.2289L29.356 25.5588Z" fill="#000001"/>
<path fill-rule="evenodd" clip-rule="evenodd" d="M27.8497 20.1982L32.8739 23.549L27.8497 20.1982Z" fill="black"/>
<path d="M27.8497 20.1982L32.8739 23.549" stroke="white" stroke-width="1.25"/>
<path fill-rule="evenodd" clip-rule="evenodd" d="M13.2798 10.4812C14.3462 8.88219 16.0042 7.77229 17.8889 7.39568C19.7737 7.01907 21.7308 7.4066 23.3298 8.47301C24.9289 9.53942 26.0388 11.1974 26.4154 13.0821C26.792 14.9668 26.4044 16.924 25.338 18.523L13.2798 10.4812Z" fill="#CD2E3A"/>
<path fill-rule="evenodd" clip-rule="evenodd" d="M13.2794 10.4814C12.213 12.0804 11.8255 14.0376 12.2021 15.9223C12.5787 17.8071 13.6886 19.465 15.2876 20.5314C16.8866 21.5978 18.8438 21.9853 20.7285 21.6087C22.6133 21.2321 24.2712 20.1222 25.3376 18.5232C25.8708 17.7237 26.0646 16.7451 25.8763 15.8028C25.688 14.8604 25.133 14.0314 24.3335 13.4982C23.534 12.965 22.5554 12.7712 21.6131 12.9595C20.6707 13.1479 19.8417 13.7028 19.3085 14.5023L13.2794 10.4814Z" fill="#0047A0"/>
<path d="M19.3085 14.502C20.4188 12.8371 19.9693 10.5873 18.3044 9.47696C16.6395 8.36662 14.3897 8.81617 13.2794 10.4811C12.1691 12.1459 12.6186 14.3957 14.2835 15.5061C15.9484 16.6164 18.1982 16.1669 19.3085 14.502Z" fill="#CD2E3A"/>
<path fill-rule="evenodd" clip-rule="evenodd" d="M8.27349 26.2314L4.25258 20.2023L5.25743 19.5322L9.27834 25.5613L8.27349 26.2314ZM9.78077 25.2262L5.75986 19.1971L6.76471 18.527L10.7856 24.5561L9.78077 25.2262ZM11.288 24.221L7.26713 18.1919L8.27198 17.5217L12.2929 23.5508L11.288 24.221Z" fill="#000001"/>
<path fill-rule="evenodd" clip-rule="evenodd" d="M30.3802 11.4883L26.3593 5.45918L27.3642 4.78903L31.3851 10.8181L30.3802 11.4883ZM31.8875 10.4831L27.8666 4.45396L28.8715 3.78381L32.8924 9.8129L31.8875 10.4831ZM33.3948 9.47783L29.3739 3.44873L30.3787 2.77858L34.3996 8.80768L33.3948 9.47783Z" fill="#000001"/>
<path fill-rule="evenodd" clip-rule="evenodd" d="M7.51929 22.3794L9.02657 21.3742L7.51929 22.3794ZM27.8675 8.80883L29.626 7.63606L27.8675 8.80883ZM31.1333 6.63084L32.6405 5.62561L31.1333 6.63084Z" fill="black"/>
<path d="M7.51929 22.3794L9.02657 21.3742M27.8675 8.80883L29.626 7.63606M31.1333 6.63084L32.6405 5.62561" stroke="white" stroke-width="1.25"/>
</g>
</svg>
