<svg width="39" height="30" viewBox="0 0 39 30" fill="none" xmlns="http://www.w3.org/2000/svg">
<g clip-path="url(#clip0_518_1204)">
<path d="M15.6001 0H39.0001V30H15.6001V0Z" fill="#FF0000"/>
<path d="M0 0H15.6V30H0V0Z" fill="#006600"/>
<path fill-rule="evenodd" clip-rule="evenodd" d="M20.6881 19.1376C18.7199 19.0751 9.71938 13.3126 9.65845 12.3876L10.152 11.5438C11.0478 12.8751 20.2494 18.4813 21.1574 18.2813L20.6881 19.1376Z" fill="#FFFF00" stroke="black" stroke-width="0.075" stroke-linecap="round" stroke-linejoin="round"/>
<path fill-rule="evenodd" clip-rule="evenodd" d="M10.0486 11.425C9.87185 11.9125 12.4008 13.5125 15.4354 15.4125C18.4701 17.3125 21.0965 18.475 21.2854 18.3125L21.3768 18.1375C21.3403 18.2042 21.2529 18.2167 21.1148 18.175C20.2922 17.9313 18.1533 16.925 15.5025 15.275C12.8456 13.625 10.5422 12.1063 10.1826 11.4625C10.1538 11.4025 10.1412 11.3356 10.1461 11.2688H10.1339L10.0608 11.4063L10.0486 11.425ZM20.7309 19.1625C20.7025 19.2167 20.6314 19.2334 20.5176 19.2125C19.7864 19.1313 17.5561 18.0188 14.9175 16.4C11.8462 14.5125 9.31122 12.8 9.59153 12.35L9.66466 12.2125L9.67685 12.2188C9.4331 12.9813 14.6798 16.0563 14.9906 16.2563C18.0253 18.1813 20.5847 19.3125 20.8101 19.0188L20.7309 19.1625Z" fill="#FFFF00" stroke="black" stroke-width="0.075" stroke-linecap="round" stroke-linejoin="round"/>
<path fill-rule="evenodd" clip-rule="evenodd" d="M15.6121 12.95C17.5743 12.9312 19.9996 12.675 21.4012 12.1L21.0965 11.6C20.2738 12.0688 17.8363 12.3813 15.5938 12.425C12.9491 12.4 11.0784 12.1438 10.1399 11.5L9.85962 12.0375C11.5781 12.7875 13.3452 12.9437 15.6121 12.95Z" fill="#FFFF00" stroke="black" stroke-width="0.075" stroke-linecap="round" stroke-linejoin="round"/>
<path fill-rule="evenodd" clip-rule="evenodd" d="M21.4805 12.1126C21.4317 12.1938 20.5177 12.5126 19.1771 12.7501C17.9953 12.9338 16.8014 13.0237 15.6061 13.0188C14.4609 13.0233 13.3167 12.9481 12.1814 12.7938C10.7738 12.5688 10.0486 12.2563 9.77439 12.1438L9.84143 12.0063C10.6153 12.3188 11.3466 12.5063 12.1997 12.6438C13.3267 12.7998 14.4628 12.8771 15.6 12.8751C16.7891 12.8763 17.9766 12.7865 19.1527 12.6063C20.5238 12.3751 21.2733 12.0813 21.383 11.9501L21.4805 12.1126ZM21.2124 11.6063C21.0661 11.7313 20.3227 12.0001 19.0186 12.2126C17.8925 12.3797 16.7561 12.4633 15.6183 12.4626C14.2777 12.4626 13.1747 12.3626 12.3399 12.2376C11.0114 12.0626 10.3046 11.7376 10.0486 11.6501L10.1278 11.5126C10.3289 11.6188 11.0053 11.9001 12.3521 12.0938C13.4347 12.2426 14.5261 12.3136 15.6183 12.3063C16.748 12.3067 17.8763 12.2232 18.9942 12.0563C20.3044 11.8688 21.0113 11.5313 21.121 11.4438L21.2124 11.6063ZM9.15893 15.3751C10.3655 16.0438 13.0528 16.3751 15.5939 16.4001C17.9096 16.4063 20.9199 16.0376 22.0472 15.4251L22.0167 14.7563C21.6633 15.3188 18.4336 15.8626 15.5696 15.8438C12.7055 15.8251 10.0425 15.3688 9.15283 14.7813V15.3751" fill="#FFFF00"/>
<path d="M9.15893 15.3751C10.3655 16.0438 13.0528 16.3751 15.5939 16.4001C17.9096 16.4063 20.9199 16.0376 22.0472 15.4251L22.0167 14.7563C21.6633 15.3188 18.4336 15.8626 15.5696 15.8438C12.7055 15.8251 10.0425 15.3688 9.15283 14.7813V15.3751M21.4805 12.1126C21.4317 12.1938 20.5177 12.5126 19.1771 12.7501C17.9953 12.9338 16.8014 13.0237 15.6061 13.0188C14.4609 13.0233 13.3167 12.9481 12.1814 12.7938C10.7738 12.5688 10.0486 12.2563 9.77439 12.1438L9.84143 12.0063C10.6153 12.3188 11.3466 12.5063 12.1997 12.6438C13.3267 12.7998 14.4628 12.8771 15.6 12.8751C16.7891 12.8763 17.9766 12.7865 19.1527 12.6063C20.5238 12.3751 21.2733 12.0813 21.383 11.9501L21.4805 12.1126ZM21.2124 11.6063C21.0661 11.7313 20.3227 12.0001 19.0186 12.2126C17.8925 12.3797 16.7561 12.4633 15.6183 12.4626C14.2777 12.4626 13.1747 12.3626 12.3399 12.2376C11.0114 12.0626 10.3046 11.7376 10.0486 11.6501L10.1278 11.5126C10.3289 11.6188 11.0053 11.9001 12.3521 12.0938C13.4347 12.2426 14.5261 12.3136 15.6183 12.3063C16.748 12.3067 17.8763 12.2232 18.9942 12.0563C20.3044 11.8688 21.0113 11.5313 21.121 11.4438L21.2124 11.6063Z" stroke="black" stroke-width="0.075" stroke-linecap="round" stroke-linejoin="round"/>
<path fill-rule="evenodd" clip-rule="evenodd" d="M22.108 15.2813V15.4376C21.9374 15.6501 20.8771 15.9626 19.5487 16.1876C18.2289 16.3822 16.8966 16.4741 15.5633 16.4626C14.2991 16.4736 13.0359 16.3838 11.7852 16.1938C10.852 16.0832 9.94008 15.8305 9.07959 15.4438V15.2626C9.67068 15.6626 11.2672 15.9626 11.8035 16.0501C12.7663 16.2001 14.0033 16.3126 15.5633 16.3126C17.2026 16.3126 18.5127 16.1938 19.5243 16.0376C20.481 15.8938 21.8399 15.5251 22.108 15.2813ZM22.108 14.7188V14.8751C21.9374 15.0813 20.8771 15.3938 19.5487 15.6188C18.229 15.8155 16.8968 15.9095 15.5633 15.9001C14.2992 15.9077 13.0362 15.8179 11.7852 15.6313C10.852 15.5207 9.94008 15.268 9.07959 14.8813V14.6938C9.67068 15.1001 11.2733 15.3938 11.8035 15.4813C13.0483 15.6684 14.3052 15.7582 15.5633 15.7501C17.2026 15.7501 18.5188 15.6251 19.5243 15.4688C20.481 15.3313 21.8399 14.9626 22.108 14.7188ZM15.5877 19.0188C12.809 19.0063 10.4263 18.2438 9.92053 18.1188L10.2862 18.7063C11.9955 19.327 13.7991 19.6296 15.6121 19.6001C17.7266 19.5376 19.573 19.3688 20.871 18.7188L21.2488 18.1063C20.3652 18.5376 17.3488 19.0188 15.5816 19.0188" fill="#FFFF00"/>
<path d="M15.5877 19.0188C12.809 19.0063 10.4263 18.2438 9.92053 18.1188L10.2862 18.7063C11.9955 19.327 13.7991 19.6296 15.6121 19.6001C17.7266 19.5376 19.573 19.3688 20.871 18.7188L21.2488 18.1063C20.3652 18.5376 17.3488 19.0188 15.5816 19.0188M22.108 15.2813V15.4376C21.9374 15.6501 20.8771 15.9626 19.5487 16.1876C18.2289 16.3822 16.8966 16.4741 15.5633 16.4626C14.2991 16.4736 13.0359 16.3838 11.7852 16.1938C10.852 16.0832 9.94008 15.8305 9.07959 15.4438V15.2626C9.67068 15.6626 11.2672 15.9626 11.8035 16.0501C12.7663 16.2001 14.0033 16.3126 15.5633 16.3126C17.2026 16.3126 18.5127 16.1938 19.5243 16.0376C20.481 15.8938 21.8399 15.5251 22.108 15.2813ZM22.108 14.7188V14.8751C21.9374 15.0813 20.8771 15.3938 19.5487 15.6188C18.229 15.8155 16.8968 15.9095 15.5633 15.9001C14.2992 15.9077 13.0362 15.8179 11.7852 15.6313C10.852 15.5207 9.94008 15.268 9.07959 14.8813V14.6938C9.67068 15.1001 11.2733 15.3938 11.8035 15.4813C13.0483 15.6684 14.3052 15.7582 15.5633 15.7501C17.2026 15.7501 18.5188 15.6251 19.5243 15.4688C20.481 15.3313 21.8399 14.9626 22.108 14.7188Z" stroke="black" stroke-width="0.075" stroke-linecap="round" stroke-linejoin="round"/>
<path fill-rule="evenodd" clip-rule="evenodd" d="M21.0172 18.5813L20.8466 18.8313C20.2372 19.0563 19.2622 19.2938 18.86 19.3563C17.7808 19.5624 16.6854 19.667 15.5877 19.6688C13.1258 19.6313 11.1088 19.1375 10.1642 18.7125L10.085 18.5813L10.0972 18.5563L10.2252 18.6125C11.9596 19.2006 13.7731 19.5064 15.5999 19.5188C16.7455 19.5188 17.885 19.3875 18.8052 19.2188C20.2189 18.925 20.7917 18.7063 20.9684 18.6063L21.0111 18.5813H21.0172ZM21.3402 18.0313L21.2183 18.25C20.8892 18.375 19.9995 18.6375 18.7016 18.825C17.8484 18.9438 17.3183 19.0625 15.6181 19.0938C13.6746 19.0741 11.743 18.7796 9.87782 18.2188L9.81079 18.0625C11.7059 18.5997 13.6586 18.8936 15.6242 18.9375C17.1781 18.9063 17.8424 18.7875 18.6894 18.6688C20.2006 18.4313 20.9624 18.1688 21.1878 18.1V18.0875L21.3463 18.025L21.3402 18.0313Z" fill="#FFFF00" stroke="black" stroke-width="0.075" stroke-linecap="round" stroke-linejoin="round"/>
<path fill-rule="evenodd" clip-rule="evenodd" d="M21.3767 14.85C21.3828 16.725 20.4443 18.4125 19.6948 19.15C18.5888 20.259 17.1098 20.8899 15.5632 20.9125C13.7168 20.9438 11.9801 19.7125 11.5109 19.1688C10.4612 18.027 9.86376 16.5252 9.8351 14.9563C9.94478 12.9062 10.7309 11.4813 11.8643 10.5C12.9664 9.57224 14.3508 9.0702 15.7765 9.08125C16.6091 9.12188 17.4243 9.34084 18.1694 9.72405C18.9146 10.1073 19.5732 10.6462 20.1031 11.3062C20.8648 12.2562 21.1999 13.2875 21.3767 14.85ZM15.5754 8.4375C17.2801 8.43745 18.9158 9.12857 20.1257 10.3602C21.3357 11.5918 22.0219 13.2641 22.0348 15.0125C22.0348 15.88 21.8682 16.7391 21.5445 17.5406C21.2208 18.3421 20.7463 19.0704 20.1482 19.6838C19.5501 20.2973 18.8401 20.7839 18.0586 21.1159C17.2771 21.4479 16.4395 21.6187 15.5937 21.6187C14.7478 21.6187 13.9103 21.4479 13.1288 21.1159C12.3473 20.7839 11.6373 20.2973 11.0392 19.6838C10.441 19.0704 9.96659 18.3421 9.6429 17.5406C9.3192 16.7391 9.1526 15.88 9.1526 15.0125C9.1465 11.3875 12.0349 8.4375 15.5754 8.4375Z" fill="#FFFF00" stroke="black" stroke-width="0.075" stroke-linecap="round" stroke-linejoin="round"/>
<path fill-rule="evenodd" clip-rule="evenodd" d="M15.5937 8.40625C19.1403 8.40625 22.0287 11.3688 22.0287 15.0063C22.0287 18.6438 19.1403 21.6063 15.5998 21.6063C12.0593 21.6063 9.16479 18.6438 9.16479 15.0063C9.16479 11.3688 12.0532 8.40625 15.5998 8.40625H15.5937ZM9.29886 15C9.29886 18.55 12.1446 21.4562 15.5937 21.4562C19.0428 21.4562 21.8885 18.55 21.8885 15C21.8885 11.45 19.0428 8.54375 15.5937 8.54375C12.1446 8.54375 9.29886 11.45 9.29886 15Z" fill="#FFFF00" stroke="black" stroke-width="0.075" stroke-linecap="round" stroke-linejoin="round"/>
<path fill-rule="evenodd" clip-rule="evenodd" d="M15.5999 8.9563C17.1613 8.96124 18.6573 9.59958 19.7613 10.7319C20.8654 11.8643 21.4878 13.3987 21.4926 15C21.4894 16.6025 20.8677 18.1385 19.7635 19.2722C18.6593 20.4059 17.1623 21.0451 15.5999 21.05C12.3702 21.05 9.70728 18.325 9.70728 15C9.7121 13.3987 10.3345 11.8643 11.4385 10.7319C12.5426 9.59958 14.0386 8.96124 15.5999 8.9563ZM9.84743 15C9.84743 18.25 12.4434 20.9 15.5999 20.9C18.7565 20.9 21.3524 18.2438 21.3524 15C21.3524 11.7563 18.7565 9.10005 15.5999 9.10005C14.0772 9.10988 12.6196 9.73464 11.5429 10.839C10.4662 11.9433 9.85702 13.4383 9.84743 15Z" fill="#FFFF00" stroke="black" stroke-width="0.075" stroke-linecap="round" stroke-linejoin="round"/>
<path fill-rule="evenodd" clip-rule="evenodd" d="M15.8619 8.375H15.3074V21.6437H15.8558L15.8619 8.375Z" fill="#FFFF00" stroke="black" stroke-width="0.075" stroke-linecap="round" stroke-linejoin="round"/>
<path fill-rule="evenodd" clip-rule="evenodd" d="M15.8009 8.30005H15.941V21.7188H15.807V8.30005H15.8009ZM15.2524 8.30005H15.3987V21.7188H15.2585L15.2524 8.30005Z" fill="#FFFF00" stroke="black" stroke-width="0.075" stroke-linecap="round" stroke-linejoin="round"/>
<path fill-rule="evenodd" clip-rule="evenodd" d="M22.035 15.2625V14.775L21.645 14.4L19.433 13.8L16.252 13.4688L12.413 13.6687L9.68296 14.3313L9.13452 14.75V15.2437L10.53 14.6L13.845 14.0688H17.032L19.372 14.3313L20.993 14.7312L22.035 15.2625Z" fill="#FFFF00" stroke="black" stroke-width="0.075" stroke-linecap="round" stroke-linejoin="round"/>
<path fill-rule="evenodd" clip-rule="evenodd" d="M15.5999 13.9876C17.1172 13.9876 18.5858 14.1313 19.7619 14.3626C20.9685 14.6126 21.8155 14.9251 22.108 15.2688V15.4438C21.7546 15.0063 20.6151 14.6938 19.7315 14.5063C18.5737 14.2813 17.1112 14.1313 15.5938 14.1313C14.0033 14.1313 12.5165 14.2938 11.3708 14.5188C10.4568 14.7063 9.23193 15.0813 9.07959 15.4438V15.2626C9.15881 15.0126 10.0729 14.6376 11.3526 14.3688C12.5043 14.1376 13.9912 13.9876 15.5938 13.9876H15.5999ZM15.5999 13.4188C16.9954 13.416 18.3883 13.5415 19.7619 13.7938C20.9685 14.0438 21.8155 14.3563 22.108 14.7063V14.8751C21.7546 14.4438 20.6151 14.1251 19.7315 13.9438C18.5737 13.7126 17.1112 13.5688 15.5938 13.5688C14.1795 13.5642 12.7679 13.694 11.3769 13.9563C10.4933 14.1251 9.21975 14.5126 9.07959 14.8751V14.7001C9.1649 14.4501 10.0912 14.0563 11.3526 13.8063C12.5104 13.5751 13.9912 13.4188 15.5999 13.4188ZM15.5633 10.5313C17.9582 10.5188 20.0483 10.8751 21.0051 11.3751L21.3524 12.0001C20.5237 11.5376 18.269 11.0626 15.5694 11.1251C13.3696 11.1438 11.0174 11.3751 9.84131 12.0251L10.2557 11.3126C11.2246 10.7938 13.5037 10.5313 15.5633 10.5313Z" fill="#FFFF00" stroke="black" stroke-width="0.075" stroke-linecap="round" stroke-linejoin="round"/>
<path fill-rule="evenodd" clip-rule="evenodd" d="M15.5998 11.0438C16.8502 11.0222 18.1001 11.1121 19.3353 11.3126C20.3103 11.5001 21.2426 11.7751 21.3767 11.9251L21.4803 12.1126C21.1573 11.9001 20.3469 11.6563 19.3109 11.4563C18.275 11.2563 16.9526 11.1876 15.5937 11.1938C14.052 11.1876 12.8516 11.2688 11.8278 11.4563C11.1221 11.5579 10.4369 11.7752 9.79858 12.1001L9.90218 11.9063C10.2678 11.7188 10.8345 11.4876 11.7973 11.3063C12.8637 11.1063 14.0764 11.0501 15.5998 11.0438ZM15.5998 10.4813C16.9039 10.4688 18.1958 10.5438 19.2012 10.7313C19.8527 10.8305 20.4831 11.0418 21.0659 11.3563L21.2183 11.6063C20.9623 11.3126 19.9995 11.0313 19.1403 10.8813C18.1409 10.7001 16.9039 10.6313 15.5998 10.6188C14.3859 10.6077 13.1732 10.6997 11.9741 10.8938C11.347 10.9831 10.738 11.1751 10.1703 11.4626L10.3044 11.2563C10.6578 11.0688 11.2306 10.8938 11.9497 10.7501C13.1567 10.5534 14.3777 10.4614 15.5998 10.4751V10.4813ZM18.793 17.7501C17.7368 17.5624 16.6655 17.4787 15.5937 17.5001C11.6023 17.5501 10.3166 18.3438 10.1581 18.5813L9.85343 18.0813C10.8772 17.3313 13.0466 16.9063 15.6181 16.9438C16.9547 16.9647 18.1044 17.0688 19.0672 17.2563L18.793 17.7563" fill="#FFFF00"/>
<path d="M18.793 17.7501C17.7368 17.5624 16.6655 17.4787 15.5937 17.5001C11.6023 17.5501 10.3166 18.3438 10.1581 18.5813L9.85343 18.0813C10.8772 17.3313 13.0466 16.9063 15.6181 16.9438C16.9547 16.9647 18.1044 17.0688 19.0672 17.2563L18.793 17.7563M15.5998 11.0438C16.8502 11.0222 18.1001 11.1121 19.3353 11.3126C20.3103 11.5001 21.2426 11.7751 21.3767 11.9251L21.4803 12.1126C21.1573 11.9001 20.3469 11.6563 19.3109 11.4563C18.275 11.2563 16.9526 11.1876 15.5937 11.1938C14.052 11.1876 12.8516 11.2688 11.8278 11.4563C11.1221 11.5579 10.4369 11.7752 9.79858 12.1001L9.90218 11.9063C10.2678 11.7188 10.8345 11.4876 11.7973 11.3063C12.8637 11.1063 14.0764 11.0501 15.5998 11.0438ZM15.5998 10.4813C16.9039 10.4688 18.1958 10.5438 19.2012 10.7313C19.8527 10.8305 20.4831 11.0418 21.0659 11.3563L21.2183 11.6063C20.9623 11.3126 19.9995 11.0313 19.1403 10.8813C18.1409 10.7001 16.9039 10.6313 15.5998 10.6188C14.3859 10.6077 13.1732 10.6997 11.9741 10.8938C11.347 10.9831 10.738 11.1751 10.1703 11.4626L10.3044 11.2563C10.6578 11.0688 11.2306 10.8938 11.9497 10.7501C13.1567 10.5534 14.3777 10.4614 15.5998 10.4751V10.4813Z" stroke="black" stroke-width="0.075" stroke-linecap="round" stroke-linejoin="round"/>
<path fill-rule="evenodd" clip-rule="evenodd" d="M15.5755 17.4313C16.6845 17.4501 17.7692 17.4938 18.8234 17.6938L18.7503 17.8313C17.7753 17.6438 16.7272 17.5813 15.5816 17.5813C14.1008 17.5688 12.6139 17.7126 11.3159 18.0938C10.9077 18.2126 10.2313 18.4813 10.1581 18.7063L10.085 18.5813C10.1094 18.4438 10.5116 18.1688 11.2794 17.9563C12.7663 17.5188 14.1556 17.4376 15.5755 17.4313ZM15.6242 16.8563C16.7948 16.8551 17.9632 16.9597 19.1159 17.1688L19.0367 17.3126C17.9111 17.1008 16.7686 16.9983 15.6242 17.0063C14.1495 17.0063 12.5834 17.1188 11.1575 17.5438C10.7005 17.6813 9.90219 17.9813 9.87781 18.2126L9.80469 18.0751C9.81687 17.8626 10.5055 17.5813 11.127 17.4001C12.5591 16.9688 14.1312 16.8626 15.6242 16.8563Z" fill="#FFFF00" stroke="black" stroke-width="0.075" stroke-linecap="round" stroke-linejoin="round"/>
<path fill-rule="evenodd" clip-rule="evenodd" d="M21.2915 18.1563L20.8162 18.925L19.4329 17.6688L15.862 15.2L11.8279 12.9313L9.73779 12.2L10.1826 11.35L10.335 11.2688L11.6329 11.6L15.9229 13.8688L18.397 15.4688L20.475 17L21.322 18L21.2915 18.1563Z" fill="#FFFF00" stroke="black" stroke-width="0.075" stroke-linecap="round" stroke-linejoin="round"/>
<path fill-rule="evenodd" clip-rule="evenodd" d="M9.66467 12.2188C10.0303 11.9688 12.7237 13.1938 15.5512 14.9438C18.3604 16.6938 21.0539 18.6688 20.8101 19.0376L20.7309 19.1688L20.6944 19.2001C20.7004 19.1938 20.7431 19.1376 20.6944 19.0063C20.5725 18.6001 18.659 17.0376 15.4964 15.0751C12.4069 13.1938 9.83529 12.0563 9.58545 12.3813L9.66467 12.2188ZM21.389 18.1501C21.6206 17.6751 19.1222 15.7438 16.0204 13.8626C12.8517 12.0188 10.5604 10.9313 10.14 11.2563L10.0547 11.4376C10.0506 11.4376 10.0587 11.4272 10.079 11.4063C10.1522 11.3438 10.2801 11.3438 10.335 11.3438C11.054 11.3563 13.1076 12.3251 15.99 14.0188C17.2575 14.7688 21.3281 17.4563 21.3098 18.2063C21.3098 18.2688 21.3159 18.2813 21.2915 18.3188L21.3951 18.1563L21.389 18.1501Z" fill="#FFFF00" stroke="black" stroke-width="0.075" stroke-linecap="round" stroke-linejoin="round"/>
<path d="M11.739 15.7354C11.741 16.2528 11.8426 16.7646 12.0378 17.2416C12.2329 17.7187 12.518 18.1515 12.8765 18.5154C13.2315 18.8852 13.6544 19.1792 14.1207 19.3806C14.587 19.5819 15.0876 19.6867 15.5935 19.6888C16.1008 19.6902 16.6032 19.5884 17.0718 19.3893C17.5404 19.1902 17.9659 18.8977 18.3235 18.5288C18.6817 18.1635 18.9659 17.7293 19.16 17.2511C19.3541 16.7729 19.4542 16.2601 19.4545 15.7421V10.4621L11.739 10.4487V15.7354Z" fill="white" stroke="black" stroke-width="0.0933336"/>
<path d="M11.895 15.7421C11.895 16.2387 11.9915 16.7304 12.179 17.1883C12.3665 17.6462 12.6412 18.0611 12.987 18.4088C13.6791 19.1223 14.6188 19.5251 15.6 19.5288C16.5794 19.5286 17.5189 19.1307 18.213 18.4221C18.5577 18.0739 18.8312 17.6587 19.0176 17.2008C19.2039 16.743 19.2995 16.2516 19.2985 15.7554V10.6221H11.895V15.7421ZM17.81 12.1621V15.4221L17.8035 15.7621C17.8065 16.06 17.7504 16.3555 17.6386 16.6305C17.5269 16.9055 17.3619 17.1544 17.1535 17.3621C16.7402 17.7875 16.1791 18.0273 15.5935 18.0288C14.9825 18.0288 14.443 17.7621 14.04 17.3488C13.6252 16.9248 13.3915 16.3493 13.39 15.7488V12.1487L17.81 12.1621Z" fill="#FF0000" stroke="black" stroke-width="0.0666669"/>
<path d="M12.363 11.962C12.3695 11.5953 12.623 11.5087 12.623 11.5087C12.6295 11.5087 12.9025 11.602 12.9025 11.9687L12.363 11.962Z" fill="#FFFF00"/>
<path d="M12.1421 11.5153L12.0966 11.9353H12.3696C12.3696 11.5887 12.6296 11.5353 12.6296 11.5353C12.6361 11.5353 12.8896 11.6087 12.8961 11.9353H13.1691L13.1171 11.5087L12.1421 11.5153ZM12.0771 11.942H13.1821C13.2038 11.942 13.2168 11.9576 13.2211 11.9887C13.2211 12.0242 13.2081 12.042 13.1821 12.042H12.0771C12.0554 12.042 12.0424 12.0242 12.0381 11.9887C12.0381 11.9576 12.0533 11.942 12.0836 11.942H12.0771Z" fill="#FFFF00" stroke="black" stroke-width="0.0666669"/>
<path d="M12.48 11.9354C12.48 11.7154 12.6295 11.6554 12.6295 11.6554C12.6295 11.6554 12.779 11.722 12.779 11.9354H12.48ZM12.103 11.3354H13.1625C13.1841 11.3398 13.1971 11.3576 13.2015 11.3887C13.2015 11.4109 13.1885 11.4243 13.1625 11.4287H12.103C12.0813 11.4287 12.0683 11.4132 12.064 11.382C12.064 11.3598 12.077 11.3465 12.103 11.342V11.3354ZM12.129 11.4354H13.13C13.1516 11.4354 13.1646 11.4509 13.169 11.482C13.1733 11.5132 13.1603 11.5287 13.13 11.5287H12.1225C12.0965 11.5287 12.0835 11.5132 12.0835 11.482C12.0835 11.4509 12.0965 11.4354 12.1225 11.4354H12.129ZM12.454 10.7287H12.532V10.782H12.5905V10.7287H12.675V10.7887H12.7335V10.722H12.8115V10.8554C12.8115 10.882 12.8006 10.8954 12.779 10.8954H12.493C12.4713 10.8954 12.4583 10.8843 12.454 10.862V10.7287ZM12.753 10.9087L12.7725 11.3354H12.493L12.5125 10.902H12.753" fill="#FFFF00"/>
<path d="M12.753 10.9087L12.7725 11.3354H12.493L12.5125 10.902H12.753M12.48 11.9354C12.48 11.7154 12.6295 11.6554 12.6295 11.6554C12.6295 11.6554 12.779 11.722 12.779 11.9354H12.48ZM12.103 11.3354H13.1625C13.1841 11.3398 13.1971 11.3576 13.2015 11.3887C13.2015 11.4109 13.1885 11.4243 13.1625 11.4287H12.103C12.0813 11.4287 12.0683 11.4132 12.064 11.382C12.064 11.3598 12.077 11.3465 12.103 11.342V11.3354ZM12.129 11.4354H13.13C13.1516 11.4354 13.1646 11.4509 13.169 11.482C13.1733 11.5132 13.1603 11.5287 13.13 11.5287H12.1225C12.0965 11.5287 12.0835 11.5132 12.0835 11.482C12.0835 11.4509 12.0965 11.4354 12.1225 11.4354H12.129ZM12.454 10.7287H12.532V10.782H12.5905V10.7287H12.675V10.7887H12.7335V10.722H12.8115V10.8554C12.8115 10.882 12.8006 10.8954 12.779 10.8954H12.493C12.4713 10.8954 12.4583 10.8843 12.454 10.862V10.7287Z" stroke="black" stroke-width="0.0666669"/>
<path d="M12.415 11.1088V11.3354H12.155V11.1088H12.415Z" fill="#FFFF00" stroke="black" stroke-width="0.0666669"/>
<path d="M13.104 11.1088V11.3354H12.844V11.1088H13.104Z" fill="#FFFF00" stroke="black" stroke-width="0.0666669"/>
<path d="M12.1096 10.9354H12.1876V11.0021H12.2461V10.9354H12.3241V11.0021H12.3826V10.9354H12.4606V11.0688C12.4606 11.0954 12.4498 11.1088 12.4281 11.1088H12.1486C12.1397 11.1054 12.1315 11.1001 12.1248 11.0932C12.118 11.0863 12.1129 11.078 12.1096 11.0688V10.9354Z" fill="#FFFF00" stroke="black" stroke-width="0.0666669"/>
<path d="M12.7986 10.9354H12.8766V11.0021H12.9351V10.9354H13.0131V11.0021H13.0716V10.9354H13.1496V11.0688C13.1496 11.0954 13.1388 11.1088 13.1171 11.1088H12.8376C12.8286 11.1054 12.8205 11.1001 12.8137 11.0932C12.807 11.0863 12.8018 11.078 12.7986 11.0688V10.9354Z" fill="#FFFF00" stroke="black" stroke-width="0.0666669"/>
<path d="M12.6035 11.0421C12.6035 11.0021 12.662 11.0021 12.662 11.0421V11.1488H12.6035V11.0421Z" fill="#000001"/>
<path d="M12.259 11.1887C12.259 11.1487 12.311 11.1487 12.311 11.1887V11.2687H12.259V11.1887Z" fill="#000001"/>
<path d="M12.948 11.1887C12.948 11.1487 13 11.1487 13 11.1887V11.2687H12.948V11.1887Z" fill="#000001"/>
<path d="M12.363 15.0487C12.3695 14.682 12.623 14.5953 12.623 14.5953C12.6295 14.5953 12.9025 14.6887 12.9025 15.0553L12.363 15.0487Z" fill="#FFFF00"/>
<path d="M12.1421 14.602L12.0966 15.022H12.3696C12.3696 14.6753 12.6296 14.622 12.6296 14.622C12.6361 14.622 12.8896 14.6953 12.8961 15.022H13.1691L13.1171 14.5953L12.1421 14.602ZM12.0771 15.0287H13.1821C13.2038 15.0287 13.2168 15.0442 13.2211 15.0753C13.2211 15.1109 13.2081 15.1287 13.1821 15.1287H12.0771C12.0554 15.1287 12.0424 15.1109 12.0381 15.0753C12.0381 15.0442 12.0533 15.0287 12.0836 15.0287H12.0771Z" fill="#FFFF00" stroke="black" stroke-width="0.0666669"/>
<path d="M12.48 15.0221C12.48 14.8021 12.6295 14.7421 12.6295 14.7421C12.6295 14.7421 12.779 14.8087 12.779 15.0221H12.48ZM12.103 14.4221H13.1625C13.1841 14.4265 13.1971 14.4443 13.2015 14.4754C13.2015 14.4976 13.1885 14.5109 13.1625 14.5154H12.103C12.0813 14.5154 12.0683 14.4998 12.064 14.4687C12.064 14.4465 12.077 14.4332 12.103 14.4287V14.4221ZM12.129 14.5221H13.13C13.1516 14.5221 13.1646 14.5376 13.169 14.5687C13.1733 14.5998 13.1603 14.6154 13.13 14.6154H12.1225C12.0965 14.6154 12.0835 14.5998 12.0835 14.5687C12.0835 14.5376 12.0965 14.5221 12.1225 14.5221H12.129ZM12.454 13.8154H12.532V13.8687H12.5905V13.8154H12.675V13.8754H12.7335V13.8087H12.8115V13.942C12.8115 13.9687 12.8006 13.982 12.779 13.982H12.493C12.4713 13.982 12.4583 13.9709 12.454 13.9487V13.8154ZM12.753 13.9954L12.7725 14.4221H12.493L12.5125 13.9887H12.753" fill="#FFFF00"/>
<path d="M12.753 13.9954L12.7725 14.4221H12.493L12.5125 13.9887H12.753M12.48 15.0221C12.48 14.8021 12.6295 14.7421 12.6295 14.7421C12.6295 14.7421 12.779 14.8087 12.779 15.0221H12.48ZM12.103 14.4221H13.1625C13.1841 14.4265 13.1971 14.4443 13.2015 14.4754C13.2015 14.4976 13.1885 14.5109 13.1625 14.5154H12.103C12.0813 14.5154 12.0683 14.4998 12.064 14.4687C12.064 14.4465 12.077 14.4332 12.103 14.4287V14.4221ZM12.129 14.5221H13.13C13.1516 14.5221 13.1646 14.5376 13.169 14.5687C13.1733 14.5998 13.1603 14.6154 13.13 14.6154H12.1225C12.0965 14.6154 12.0835 14.5998 12.0835 14.5687C12.0835 14.5376 12.0965 14.5221 12.1225 14.5221H12.129ZM12.454 13.8154H12.532V13.8687H12.5905V13.8154H12.675V13.8754H12.7335V13.8087H12.8115V13.942C12.8115 13.9687 12.8006 13.982 12.779 13.982H12.493C12.4713 13.982 12.4583 13.9709 12.454 13.9487V13.8154Z" stroke="black" stroke-width="0.0666669"/>
<path d="M12.415 14.1954V14.4221H12.155V14.1954H12.415Z" fill="#FFFF00" stroke="black" stroke-width="0.0666669"/>
<path d="M13.104 14.1954V14.4221H12.844V14.1954H13.104Z" fill="#FFFF00" stroke="black" stroke-width="0.0666669"/>
<path d="M12.1096 14.0221H12.1876V14.0888H12.2461V14.0221H12.3241V14.0888H12.3826V14.0221H12.4606V14.1554C12.4606 14.1821 12.4498 14.1954 12.4281 14.1954H12.1486C12.1397 14.1921 12.1315 14.1868 12.1248 14.1799C12.118 14.173 12.1129 14.1646 12.1096 14.1554V14.0221Z" fill="#FFFF00" stroke="black" stroke-width="0.0666669"/>
<path d="M12.7986 14.0221H12.8766V14.0888H12.9351V14.0221H13.0131V14.0888H13.0716V14.0221H13.1496V14.1554C13.1496 14.1821 13.1388 14.1954 13.1171 14.1954H12.8376C12.8286 14.1921 12.8205 14.1868 12.8137 14.1799C12.807 14.173 12.8018 14.1646 12.7986 14.1554V14.0221Z" fill="#FFFF00" stroke="black" stroke-width="0.0666669"/>
<path d="M12.6035 14.1288C12.6035 14.0888 12.662 14.0888 12.662 14.1288V14.2354H12.6035V14.1288Z" fill="#000001"/>
<path d="M12.259 14.2754C12.259 14.2354 12.311 14.2354 12.311 14.2754V14.3554H12.259V14.2754Z" fill="#000001"/>
<path d="M12.948 14.2754C12.948 14.2354 13 14.2354 13 14.2754V14.3554H12.948V14.2754Z" fill="#000001"/>
<path d="M13.5361 18.2658C13.287 18.0026 13.4056 17.7571 13.4056 17.7571C13.4102 17.7524 13.6671 17.6195 13.9208 17.8779L13.5361 18.2658Z" fill="#FFFF00"/>
<path d="M13.0713 18.1119L13.3298 18.441L13.5222 18.2423C13.2823 17.998 13.4286 17.7712 13.4286 17.7712C13.4332 17.7665 13.6626 17.6337 13.8932 17.8592L14.0855 17.6605L13.7537 17.3976L13.0713 18.1119ZM13.3207 18.4599L14.0993 17.6557C14.1146 17.64 14.1345 17.6415 14.1591 17.6602C14.1837 17.6853 14.1868 17.7073 14.1685 17.7262L13.3899 18.5303C13.3746 18.5461 13.3532 18.543 13.3255 18.5211C13.304 18.4992 13.3039 18.4772 13.3253 18.4551L13.3207 18.4599Z" fill="#FFFF00" stroke="black" stroke-width="0.0666669"/>
<path d="M13.6001 18.1618C13.4479 18.0068 13.5117 17.8557 13.5117 17.8557C13.5117 17.8557 13.6632 17.7939 13.8108 17.9442L13.6001 18.1618ZM12.9194 18.0133L13.6659 17.2423C13.6842 17.2297 13.7057 17.2328 13.7302 17.2515C13.7456 17.2672 13.7457 17.2861 13.7304 17.3081L12.9839 18.0791C12.9687 18.0949 12.9488 18.0934 12.9242 18.0746C12.9088 18.0589 12.9087 18.0401 12.924 18.018L12.9194 18.0133ZM13.0069 18.0649L13.7122 17.3365C13.7274 17.3207 13.7473 17.3222 13.7719 17.341C13.7965 17.3597 13.7981 17.3801 13.7767 17.4022L13.0669 18.1354C13.0486 18.1543 13.0286 18.1528 13.0071 18.1309C12.9856 18.109 12.984 18.0885 13.0023 18.0696L13.0069 18.0649ZM12.7469 17.3304L12.8019 17.2736L12.8388 17.3112L12.88 17.2686L12.8431 17.2311L12.9026 17.1696L12.9441 17.2119L12.9854 17.1693L12.9392 17.1223L12.9942 17.0655L13.0864 17.1595C13.1049 17.1783 13.1065 17.1956 13.0912 17.2113L12.8897 17.4195C12.8745 17.4352 12.8576 17.4369 12.8392 17.4244L12.7469 17.3304ZM13.0821 17.2397L13.3911 17.5261L13.1942 17.7295L12.9081 17.41L13.0775 17.235" fill="#FFFF00"/>
<path d="M13.0821 17.2397L13.3911 17.5261L13.1942 17.7295L12.9081 17.41L13.0775 17.235M13.6001 18.1618C13.4479 18.0068 13.5117 17.8557 13.5117 17.8557C13.5117 17.8557 13.6632 17.7939 13.8108 17.9442L13.6001 18.1618ZM12.9194 18.0133L13.6659 17.2423C13.6842 17.2297 13.7057 17.2328 13.7302 17.2515C13.7456 17.2672 13.7457 17.2861 13.7304 17.3081L12.9839 18.0791C12.9687 18.0949 12.9488 18.0934 12.9242 18.0746C12.9088 18.0589 12.9087 18.0401 12.924 18.018L12.9194 18.0133ZM13.0069 18.0649L13.7122 17.3365C13.7274 17.3207 13.7473 17.3222 13.7719 17.341C13.7965 17.3597 13.7981 17.3801 13.7767 17.4022L13.0669 18.1354C13.0486 18.1543 13.0286 18.1528 13.0071 18.1309C12.9856 18.109 12.984 18.0885 13.0023 18.0696L13.0069 18.0649ZM12.7469 17.3304L12.8019 17.2736L12.8388 17.3112L12.88 17.2686L12.8431 17.2311L12.9026 17.1696L12.9441 17.2119L12.9854 17.1693L12.9392 17.1223L12.9942 17.0655L13.0864 17.1595C13.1049 17.1783 13.1065 17.1956 13.0912 17.2113L12.8897 17.4195C12.8745 17.4352 12.8576 17.4369 12.8392 17.4244L12.7469 17.3304Z" stroke="black" stroke-width="0.0666669"/>
<path d="M12.9823 17.6266L13.1391 17.7863L12.9559 17.9755L12.7991 17.8158L12.9823 17.6266Z" fill="#FFFF00" stroke="black" stroke-width="0.0666669"/>
<path d="M13.4679 17.1252L13.6247 17.285L13.4415 17.4742L13.2847 17.3145L13.4679 17.1252Z" fill="#FFFF00" stroke="black" stroke-width="0.0666669"/>
<path d="M12.6472 17.7268L12.7022 17.67L12.7483 17.717L12.7895 17.6745L12.7434 17.6275L12.7984 17.5707L12.8445 17.6177L12.8857 17.5751L12.8396 17.5281L12.8945 17.4714L12.9868 17.5653C13.0052 17.5841 13.0068 17.6014 12.9916 17.6172L12.7946 17.8206C12.786 17.8248 12.7766 17.8269 12.7671 17.827C12.7575 17.827 12.7481 17.8249 12.7395 17.8208L12.6472 17.7268Z" fill="#FFFF00" stroke="black" stroke-width="0.0666669"/>
<path d="M13.1326 17.2253L13.1875 17.1686L13.2337 17.2156L13.2749 17.173L13.2287 17.126L13.2837 17.0692L13.3298 17.1162L13.3711 17.0737L13.3249 17.0267L13.3799 16.9699L13.4721 17.0639C13.4906 17.0827 13.4922 17.0999 13.4769 17.1157L13.28 17.3191C13.2714 17.3233 13.262 17.3255 13.2524 17.3255C13.2429 17.3255 13.2335 17.3234 13.2248 17.3193L13.1326 17.2253Z" fill="#FFFF00" stroke="black" stroke-width="0.0666669"/>
<path d="M13.0691 17.4425C13.0414 17.4143 13.0826 17.3718 13.1103 17.4L13.1841 17.4751L13.1429 17.5177L13.0691 17.4425Z" fill="#000001"/>
<path d="M12.9277 17.7965C12.9001 17.7683 12.9367 17.7305 12.9644 17.7587L13.0197 17.8151L12.9831 17.8529L12.9277 17.7965Z" fill="#000001"/>
<path d="M13.4133 17.2951C13.3857 17.2669 13.4223 17.229 13.45 17.2572L13.5053 17.3136L13.4687 17.3514L13.4133 17.2951Z" fill="#000001"/>
<path d="M15.3335 11.962C15.34 11.5953 15.5935 11.5087 15.5935 11.5087C15.6 11.5087 15.873 11.602 15.873 11.9687L15.3335 11.962Z" fill="#FFFF00"/>
<path d="M15.1125 11.5153L15.067 11.9353H15.34C15.34 11.5887 15.6 11.5353 15.6 11.5353C15.6065 11.5353 15.86 11.6087 15.8665 11.9353H16.1395L16.0875 11.5087L15.1125 11.5153ZM15.0475 11.942H16.1525C16.1742 11.942 16.1872 11.9576 16.1915 11.9887C16.1915 12.0242 16.1785 12.042 16.1525 12.042H15.0475C15.0259 12.042 15.0129 12.0242 15.0085 11.9887C15.0085 11.9576 15.0237 11.942 15.054 11.942H15.0475Z" fill="#FFFF00" stroke="black" stroke-width="0.0666669"/>
<path d="M15.4504 11.9354C15.4504 11.7154 15.5999 11.6554 15.5999 11.6554C15.5999 11.6554 15.7494 11.722 15.7494 11.9354H15.4504ZM15.0734 11.3354H16.1329C16.1546 11.3398 16.1676 11.3576 16.1719 11.3887C16.1719 11.4109 16.1589 11.4243 16.1329 11.4287H15.0734C15.0518 11.4287 15.0388 11.4132 15.0344 11.382C15.0344 11.3598 15.0474 11.3465 15.0734 11.342V11.3354ZM15.0994 11.4354H16.1004C16.1221 11.4354 16.1351 11.4509 16.1394 11.482C16.1438 11.5132 16.1308 11.5287 16.1004 11.5287H15.0929C15.0669 11.5287 15.0539 11.5132 15.0539 11.482C15.0539 11.4509 15.0669 11.4354 15.0929 11.4354H15.0994ZM15.4244 10.7287H15.5024V10.782H15.5609V10.7287H15.6454V10.7887H15.7039V10.722H15.7819V10.8554C15.7819 10.882 15.7711 10.8954 15.7494 10.8954H15.4634C15.4418 10.8954 15.4288 10.8843 15.4244 10.862V10.7287ZM15.7234 10.9087L15.7429 11.3354H15.4634L15.4829 10.902H15.7234" fill="#FFFF00"/>
<path d="M15.7234 10.9087L15.7429 11.3354H15.4634L15.4829 10.902H15.7234M15.4504 11.9354C15.4504 11.7154 15.5999 11.6554 15.5999 11.6554C15.5999 11.6554 15.7494 11.722 15.7494 11.9354H15.4504ZM15.0734 11.3354H16.1329C16.1546 11.3398 16.1676 11.3576 16.1719 11.3887C16.1719 11.4109 16.1589 11.4243 16.1329 11.4287H15.0734C15.0518 11.4287 15.0388 11.4132 15.0344 11.382C15.0344 11.3598 15.0474 11.3465 15.0734 11.342V11.3354ZM15.0994 11.4354H16.1004C16.1221 11.4354 16.1351 11.4509 16.1394 11.482C16.1438 11.5132 16.1308 11.5287 16.1004 11.5287H15.0929C15.0669 11.5287 15.0539 11.5132 15.0539 11.482C15.0539 11.4509 15.0669 11.4354 15.0929 11.4354H15.0994ZM15.4244 10.7287H15.5024V10.782H15.5609V10.7287H15.6454V10.7887H15.7039V10.722H15.7819V10.8554C15.7819 10.882 15.7711 10.8954 15.7494 10.8954H15.4634C15.4418 10.8954 15.4288 10.8843 15.4244 10.862V10.7287Z" stroke="black" stroke-width="0.0666669"/>
<path d="M15.3855 11.1088V11.3354H15.1255V11.1088H15.3855Z" fill="#FFFF00" stroke="black" stroke-width="0.0666669"/>
<path d="M16.0745 11.1088V11.3354H15.8145V11.1088H16.0745Z" fill="#FFFF00" stroke="black" stroke-width="0.0666669"/>
<path d="M15.0801 10.9354H15.1581V11.0021H15.2166V10.9354H15.2946V11.0021H15.3531V10.9354H15.4311V11.0688C15.4311 11.0954 15.4202 11.1088 15.3986 11.1088H15.1191C15.1101 11.1054 15.102 11.1001 15.0952 11.0932C15.0885 11.0863 15.0833 11.078 15.0801 11.0688V10.9354Z" fill="#FFFF00" stroke="black" stroke-width="0.0666669"/>
<path d="M15.769 10.9354H15.847V11.0021H15.9055V10.9354H15.9835V11.0021H16.042V10.9354H16.12V11.0688C16.12 11.0954 16.1092 11.1088 16.0875 11.1088H15.808C15.7991 11.1054 15.7909 11.1001 15.7842 11.0932C15.7775 11.0863 15.7723 11.078 15.769 11.0688V10.9354Z" fill="#FFFF00" stroke="black" stroke-width="0.0666669"/>
<path d="M15.574 11.0421C15.574 11.0021 15.6325 11.0021 15.6325 11.0421V11.1488H15.574V11.0421Z" fill="#000001"/>
<path d="M15.2295 11.1887C15.2295 11.1487 15.2815 11.1487 15.2815 11.1887V11.2687H15.2295V11.1887Z" fill="#000001"/>
<path d="M15.9185 11.1887C15.9185 11.1487 15.9705 11.1487 15.9705 11.1887V11.2687H15.9185V11.1887Z" fill="#000001"/>
<path d="M18.824 11.962C18.8175 11.5953 18.564 11.5087 18.564 11.5087C18.5575 11.5087 18.2845 11.602 18.2845 11.9687L18.824 11.962Z" fill="#FFFF00"/>
<path d="M19.0449 11.5153L19.0904 11.9353H18.8174C18.8174 11.5887 18.5574 11.5353 18.5574 11.5353C18.5509 11.5353 18.2974 11.6087 18.2909 11.9353H18.0179L18.0699 11.5087L19.0449 11.5153ZM19.1099 11.942H18.0049C17.9833 11.942 17.9703 11.9576 17.9659 11.9887C17.9659 12.0242 17.9789 12.042 18.0049 12.042H19.1099C19.1316 12.042 19.1446 12.0242 19.1489 11.9887C19.1489 11.9576 19.1338 11.942 19.1034 11.942H19.1099Z" fill="#FFFF00" stroke="black" stroke-width="0.0666669"/>
<path d="M18.707 11.9354C18.707 11.7154 18.5575 11.6554 18.5575 11.6554C18.5575 11.6554 18.408 11.722 18.408 11.9354H18.707ZM19.084 11.3354H18.0245C18.0029 11.3398 17.9899 11.3576 17.9855 11.3887C17.9855 11.4109 17.9985 11.4243 18.0245 11.4287H19.084C19.1057 11.4287 19.1187 11.4132 19.123 11.382C19.123 11.3598 19.11 11.3465 19.084 11.342V11.3354ZM19.058 11.4354H18.057C18.0354 11.4354 18.0224 11.4509 18.018 11.482C18.0137 11.5132 18.0267 11.5287 18.057 11.5287H19.0645C19.0905 11.5287 19.1035 11.5132 19.1035 11.482C19.1035 11.4509 19.0905 11.4354 19.0645 11.4354H19.058ZM18.733 10.7287H18.655V10.782H18.5965V10.7287H18.512V10.7887H18.4535V10.722H18.3755V10.8554C18.3755 10.882 18.3864 10.8954 18.408 10.8954H18.694C18.7157 10.8954 18.7287 10.8843 18.733 10.862V10.7287ZM18.434 10.9087L18.4145 11.3354H18.694L18.6745 10.902H18.434" fill="#FFFF00"/>
<path d="M18.434 10.9087L18.4145 11.3354H18.694L18.6745 10.902H18.434M18.707 11.9354C18.707 11.7154 18.5575 11.6554 18.5575 11.6554C18.5575 11.6554 18.408 11.722 18.408 11.9354H18.707ZM19.084 11.3354H18.0245C18.0029 11.3398 17.9899 11.3576 17.9855 11.3887C17.9855 11.4109 17.9985 11.4243 18.0245 11.4287H19.084C19.1057 11.4287 19.1187 11.4132 19.123 11.382C19.123 11.3598 19.11 11.3465 19.084 11.342V11.3354ZM19.058 11.4354H18.057C18.0354 11.4354 18.0224 11.4509 18.018 11.482C18.0137 11.5132 18.0267 11.5287 18.057 11.5287H19.0645C19.0905 11.5287 19.1035 11.5132 19.1035 11.482C19.1035 11.4509 19.0905 11.4354 19.0645 11.4354H19.058ZM18.733 10.7287H18.655V10.782H18.5965V10.7287H18.512V10.7887H18.4535V10.722H18.3755V10.8554C18.3755 10.882 18.3864 10.8954 18.408 10.8954H18.694C18.7157 10.8954 18.7287 10.8843 18.733 10.862V10.7287Z" stroke="black" stroke-width="0.0666669"/>
<path d="M18.772 11.1088V11.3354H19.032V11.1088H18.772Z" fill="#FFFF00" stroke="black" stroke-width="0.0666669"/>
<path d="M18.083 11.1088V11.3354H18.343V11.1088H18.083Z" fill="#FFFF00" stroke="black" stroke-width="0.0666669"/>
<path d="M19.0774 10.9354H18.9994V11.0021H18.9409V10.9354H18.8629V11.0021H18.8044V10.9354H18.7264V11.0688C18.7264 11.0954 18.7372 11.1088 18.7589 11.1088H19.0384C19.0474 11.1054 19.0555 11.1001 19.0622 11.0932C19.069 11.0863 19.0741 11.078 19.0774 11.0688V10.9354Z" fill="#FFFF00" stroke="black" stroke-width="0.0666669"/>
<path d="M18.3884 10.9354H18.3104V11.0021H18.2519V10.9354H18.1739V11.0021H18.1154V10.9354H18.0374V11.0688C18.0374 11.0954 18.0483 11.1088 18.0699 11.1088H18.3494C18.3584 11.1054 18.3665 11.1001 18.3733 11.0932C18.38 11.0863 18.3852 11.078 18.3884 11.0688V10.9354Z" fill="#FFFF00" stroke="black" stroke-width="0.0666669"/>
<path d="M18.5835 11.0421C18.5835 11.0021 18.525 11.0021 18.525 11.0421V11.1488H18.5835V11.0421Z" fill="#000001"/>
<path d="M18.928 11.1887C18.928 11.1487 18.876 11.1487 18.876 11.1887V11.2687H18.928V11.1887Z" fill="#000001"/>
<path d="M18.239 11.1887C18.239 11.1487 18.187 11.1487 18.187 11.1887V11.2687H18.239V11.1887Z" fill="#000001"/>
<path d="M18.824 15.0487C18.8175 14.682 18.564 14.5953 18.564 14.5953C18.5575 14.5953 18.2845 14.6887 18.2845 15.0553L18.824 15.0487Z" fill="#FFFF00"/>
<path d="M19.0449 14.602L19.0904 15.022H18.8174C18.8174 14.6753 18.5574 14.622 18.5574 14.622C18.5509 14.622 18.2974 14.6953 18.2909 15.022H18.0179L18.0699 14.5953L19.0449 14.602ZM19.1099 15.0287H18.0049C17.9833 15.0287 17.9703 15.0442 17.9659 15.0753C17.9659 15.1109 17.9789 15.1287 18.0049 15.1287H19.1099C19.1316 15.1287 19.1446 15.1109 19.1489 15.0753C19.1489 15.0442 19.1338 15.0287 19.1034 15.0287H19.1099Z" fill="#FFFF00" stroke="black" stroke-width="0.0666669"/>
<path d="M18.707 15.0221C18.707 14.8021 18.5575 14.7421 18.5575 14.7421C18.5575 14.7421 18.408 14.8087 18.408 15.0221H18.707ZM19.084 14.4221H18.0245C18.0029 14.4265 17.9899 14.4443 17.9855 14.4754C17.9855 14.4976 17.9985 14.5109 18.0245 14.5154H19.084C19.1057 14.5154 19.1187 14.4998 19.123 14.4687C19.123 14.4465 19.11 14.4332 19.084 14.4287V14.4221ZM19.058 14.5221H18.057C18.0354 14.5221 18.0224 14.5376 18.018 14.5687C18.0137 14.5998 18.0267 14.6154 18.057 14.6154H19.0645C19.0905 14.6154 19.1035 14.5998 19.1035 14.5687C19.1035 14.5376 19.0905 14.5221 19.0645 14.5221H19.058ZM18.733 13.8154H18.655V13.8687H18.5965V13.8154H18.512V13.8754H18.4535V13.8087H18.3755V13.942C18.3755 13.9687 18.3864 13.982 18.408 13.982H18.694C18.7157 13.982 18.7287 13.9709 18.733 13.9487V13.8154ZM18.434 13.9954L18.4145 14.4221H18.694L18.6745 13.9887H18.434" fill="#FFFF00"/>
<path d="M18.434 13.9954L18.4145 14.4221H18.694L18.6745 13.9887H18.434M18.707 15.0221C18.707 14.8021 18.5575 14.7421 18.5575 14.7421C18.5575 14.7421 18.408 14.8087 18.408 15.0221H18.707ZM19.084 14.4221H18.0245C18.0029 14.4265 17.9899 14.4443 17.9855 14.4754C17.9855 14.4976 17.9985 14.5109 18.0245 14.5154H19.084C19.1057 14.5154 19.1187 14.4998 19.123 14.4687C19.123 14.4465 19.11 14.4332 19.084 14.4287V14.4221ZM19.058 14.5221H18.057C18.0354 14.5221 18.0224 14.5376 18.018 14.5687C18.0137 14.5998 18.0267 14.6154 18.057 14.6154H19.0645C19.0905 14.6154 19.1035 14.5998 19.1035 14.5687C19.1035 14.5376 19.0905 14.5221 19.0645 14.5221H19.058ZM18.733 13.8154H18.655V13.8687H18.5965V13.8154H18.512V13.8754H18.4535V13.8087H18.3755V13.942C18.3755 13.9687 18.3864 13.982 18.408 13.982H18.694C18.7157 13.982 18.7287 13.9709 18.733 13.9487V13.8154Z" stroke="black" stroke-width="0.0666669"/>
<path d="M18.772 14.1954V14.4221H19.032V14.1954H18.772Z" fill="#FFFF00" stroke="black" stroke-width="0.0666669"/>
<path d="M18.083 14.1954V14.4221H18.343V14.1954H18.083Z" fill="#FFFF00" stroke="black" stroke-width="0.0666669"/>
<path d="M19.0774 14.0221H18.9994V14.0888H18.9409V14.0221H18.8629V14.0888H18.8044V14.0221H18.7264V14.1554C18.7264 14.1821 18.7372 14.1954 18.7589 14.1954H19.0384C19.0474 14.1921 19.0555 14.1868 19.0622 14.1799C19.069 14.173 19.0741 14.1646 19.0774 14.1554V14.0221Z" fill="#FFFF00" stroke="black" stroke-width="0.0666669"/>
<path d="M18.3884 14.0221H18.3104V14.0888H18.2519V14.0221H18.1739V14.0888H18.1154V14.0221H18.0374V14.1554C18.0374 14.1821 18.0483 14.1954 18.0699 14.1954H18.3494C18.3584 14.1921 18.3665 14.1868 18.3733 14.1799C18.38 14.173 18.3852 14.1646 18.3884 14.1554V14.0221Z" fill="#FFFF00" stroke="black" stroke-width="0.0666669"/>
<path d="M18.5835 14.1288C18.5835 14.0888 18.525 14.0888 18.525 14.1288V14.2354H18.5835V14.1288Z" fill="#000001"/>
<path d="M18.928 14.2754C18.928 14.2354 18.876 14.2354 18.876 14.2754V14.3554H18.928V14.2754Z" fill="#000001"/>
<path d="M18.239 14.2754C18.239 14.2354 18.187 14.2354 18.187 14.2754V14.3554H18.239V14.2754Z" fill="#000001"/>
<path d="M17.6509 18.2658C17.9001 18.0026 17.7814 17.7571 17.7814 17.7571C17.7768 17.7524 17.5199 17.6195 17.2662 17.8779L17.6509 18.2658Z" fill="#FFFF00"/>
<path d="M18.1157 18.1119L17.8572 18.441L17.6648 18.2423C17.9047 17.998 17.7584 17.7712 17.7584 17.7712C17.7538 17.7665 17.5244 17.6337 17.2938 17.8592L17.1015 17.6605L17.4333 17.3976L18.1157 18.1119ZM17.8663 18.4599L17.0877 17.6557C17.0724 17.64 17.0525 17.6415 17.0279 17.6602C17.0033 17.6853 17.0002 17.7073 17.0185 17.7262L17.7971 18.5303C17.8124 18.5461 17.8338 18.543 17.8615 18.5211C17.883 18.4992 17.8831 18.4772 17.8617 18.4551L17.8663 18.4599Z" fill="#FFFF00" stroke="black" stroke-width="0.0666669"/>
<path d="M17.5869 18.1618C17.7391 18.0068 17.6753 17.8557 17.6753 17.8557C17.6753 17.8557 17.5238 17.7939 17.3762 17.9442L17.5869 18.1618ZM18.2676 18.0133L17.5211 17.2423C17.5028 17.2297 17.4813 17.2328 17.4568 17.2515C17.4414 17.2672 17.4413 17.2861 17.4566 17.3081L18.2031 18.0791C18.2183 18.0949 18.2383 18.0934 18.2628 18.0746C18.2782 18.0589 18.2783 18.0401 18.263 18.018L18.2676 18.0133ZM18.1801 18.0649L17.4749 17.3365C17.4596 17.3207 17.4397 17.3222 17.4151 17.341C17.3905 17.3597 17.3889 17.3801 17.4103 17.4022L18.1201 18.1354C18.1385 18.1543 18.1584 18.1528 18.1799 18.1309C18.2014 18.109 18.203 18.0885 18.1847 18.0696L18.1801 18.0649ZM18.4401 17.3304L18.3851 17.2736L18.3482 17.3112L18.307 17.2686L18.3439 17.2311L18.2844 17.1696L18.2429 17.2119L18.2016 17.1693L18.2478 17.1223L18.1928 17.0655L18.1006 17.1595C18.0821 17.1783 18.0805 17.1956 18.0958 17.2113L18.2973 17.4195C18.3126 17.4352 18.3294 17.4369 18.3478 17.4244L18.4401 17.3304ZM18.1049 17.2397L17.7959 17.5261L17.9929 17.7295L18.2789 17.41L18.1095 17.235" fill="#FFFF00"/>
<path d="M18.1049 17.2397L17.7959 17.5261L17.9929 17.7295L18.2789 17.41L18.1095 17.235M17.5869 18.1618C17.7391 18.0068 17.6753 17.8557 17.6753 17.8557C17.6753 17.8557 17.5238 17.7939 17.3762 17.9442L17.5869 18.1618ZM18.2676 18.0133L17.5211 17.2423C17.5028 17.2297 17.4813 17.2328 17.4568 17.2515C17.4414 17.2672 17.4413 17.2861 17.4566 17.3081L18.2031 18.0791C18.2183 18.0949 18.2383 18.0934 18.2628 18.0746C18.2782 18.0589 18.2783 18.0401 18.263 18.018L18.2676 18.0133ZM18.1801 18.0649L17.4749 17.3365C17.4596 17.3207 17.4397 17.3222 17.4151 17.341C17.3905 17.3597 17.3889 17.3801 17.4103 17.4022L18.1201 18.1354C18.1385 18.1543 18.1584 18.1528 18.1799 18.1309C18.2014 18.109 18.203 18.0885 18.1847 18.0696L18.1801 18.0649ZM18.4401 17.3304L18.3851 17.2736L18.3482 17.3112L18.307 17.2686L18.3439 17.2311L18.2844 17.1696L18.2429 17.2119L18.2016 17.1693L18.2478 17.1223L18.1928 17.0655L18.1006 17.1595C18.0821 17.1783 18.0805 17.1956 18.0958 17.2113L18.2973 17.4195C18.3126 17.4352 18.3294 17.4369 18.3478 17.4244L18.4401 17.3304Z" stroke="black" stroke-width="0.0666669"/>
<path d="M18.2047 17.6266L18.0479 17.7863L18.2311 17.9755L18.3879 17.8158L18.2047 17.6266Z" fill="#FFFF00" stroke="black" stroke-width="0.0666669"/>
<path d="M17.7192 17.1252L17.5623 17.285L17.7455 17.4742L17.9023 17.3145L17.7192 17.1252Z" fill="#FFFF00" stroke="black" stroke-width="0.0666669"/>
<path d="M18.5398 17.7268L18.4848 17.67L18.4387 17.717L18.3975 17.6745L18.4436 17.6275L18.3887 17.5707L18.3425 17.6177L18.3013 17.5751L18.3474 17.5281L18.2925 17.4714L18.2002 17.5653C18.1818 17.5841 18.1802 17.6014 18.1954 17.6172L18.3924 17.8206C18.401 17.8248 18.4104 17.8269 18.4199 17.827C18.4295 17.827 18.4389 17.8249 18.4475 17.8208L18.5398 17.7268Z" fill="#FFFF00" stroke="black" stroke-width="0.0666669"/>
<path d="M18.0544 17.2253L17.9995 17.1686L17.9534 17.2156L17.9121 17.173L17.9583 17.126L17.9033 17.0692L17.8572 17.1162L17.816 17.0737L17.8621 17.0267L17.8071 16.9699L17.7149 17.0639C17.6964 17.0827 17.6948 17.0999 17.7101 17.1157L17.907 17.3191C17.9156 17.3233 17.9251 17.3255 17.9346 17.3255C17.9441 17.3255 17.9535 17.3234 17.9622 17.3193L18.0544 17.2253Z" fill="#FFFF00" stroke="black" stroke-width="0.0666669"/>
<path d="M18.1179 17.4425C18.1456 17.4143 18.1044 17.3718 18.0767 17.4L18.0029 17.4751L18.0441 17.5177L18.1179 17.4425Z" fill="#000001"/>
<path d="M18.2593 17.7965C18.2869 17.7683 18.2503 17.7305 18.2226 17.7587L18.1673 17.8151L18.2039 17.8529L18.2593 17.7965Z" fill="#000001"/>
<path d="M17.7737 17.2951C17.8014 17.2669 17.7647 17.229 17.737 17.2572L17.6817 17.3136L17.7183 17.3514L17.7737 17.2951Z" fill="#000001"/>
<path d="M15.119 15.162C15.1158 15.3031 15.1672 15.4397 15.262 15.542C15.3049 15.5925 15.3579 15.6329 15.4173 15.6605C15.4768 15.6881 15.5413 15.7022 15.6065 15.702C15.7452 15.6931 15.86 15.6398 15.951 15.542C16.0458 15.4397 16.0973 15.3031 16.094 15.162V14.442H15.119V15.162Z" fill="#003399"/>
<path d="M15.3465 14.8154C15.4004 14.8154 15.444 14.7706 15.444 14.7154C15.444 14.6601 15.4004 14.6154 15.3465 14.6154C15.2927 14.6154 15.249 14.6601 15.249 14.7154C15.249 14.7706 15.2927 14.8154 15.3465 14.8154Z" fill="white"/>
<path d="M15.8861 14.8154C15.9399 14.8154 15.9836 14.7706 15.9836 14.7154C15.9836 14.6601 15.9399 14.6154 15.8861 14.6154C15.8322 14.6154 15.7886 14.6601 15.7886 14.7154C15.7886 14.7706 15.8322 14.8154 15.8861 14.8154Z" fill="white"/>
<path d="M15.6131 15.082C15.667 15.082 15.7106 15.0372 15.7106 14.982C15.7106 14.9267 15.667 14.882 15.6131 14.882C15.5593 14.882 15.5156 14.9267 15.5156 14.982C15.5156 15.0372 15.5593 15.082 15.6131 15.082Z" fill="white"/>
<path d="M15.3465 15.362C15.4004 15.362 15.444 15.3172 15.444 15.262C15.444 15.2068 15.4004 15.162 15.3465 15.162C15.2927 15.162 15.249 15.2068 15.249 15.262C15.249 15.3172 15.2927 15.362 15.3465 15.362Z" fill="white"/>
<path d="M15.8861 15.362C15.9399 15.362 15.9836 15.3172 15.9836 15.262C15.9836 15.2068 15.9399 15.162 15.8861 15.162C15.8322 15.162 15.7886 15.2068 15.7886 15.262C15.7886 15.3172 15.8322 15.362 15.8861 15.362Z" fill="white"/>
<path d="M15.119 13.4287C15.1158 13.5698 15.1672 13.7065 15.262 13.8087C15.3049 13.8592 15.3579 13.8996 15.4173 13.9272C15.4768 13.9548 15.5413 13.969 15.6065 13.9687C15.7452 13.9599 15.86 13.9065 15.951 13.8087C16.0458 13.7065 16.0973 13.5698 16.094 13.4287V12.7087H15.119V13.4287Z" fill="#003399"/>
<path d="M15.3465 13.0821C15.4004 13.0821 15.444 13.0373 15.444 12.9821C15.444 12.9269 15.4004 12.8821 15.3465 12.8821C15.2927 12.8821 15.249 12.9269 15.249 12.9821C15.249 13.0373 15.2927 13.0821 15.3465 13.0821Z" fill="white"/>
<path d="M15.8861 13.0821C15.9399 13.0821 15.9836 13.0373 15.9836 12.9821C15.9836 12.9269 15.9399 12.8821 15.8861 12.8821C15.8322 12.8821 15.7886 12.9269 15.7886 12.9821C15.7886 13.0373 15.8322 13.0821 15.8861 13.0821Z" fill="white"/>
<path d="M15.6131 13.3487C15.667 13.3487 15.7106 13.3039 15.7106 13.2487C15.7106 13.1935 15.667 13.1487 15.6131 13.1487C15.5593 13.1487 15.5156 13.1935 15.5156 13.2487C15.5156 13.3039 15.5593 13.3487 15.6131 13.3487Z" fill="white"/>
<path d="M15.3465 13.6287C15.4004 13.6287 15.444 13.5839 15.444 13.5287C15.444 13.4735 15.4004 13.4287 15.3465 13.4287C15.2927 13.4287 15.249 13.4735 15.249 13.5287C15.249 13.5839 15.2927 13.6287 15.3465 13.6287Z" fill="white"/>
<path d="M15.8861 13.6287C15.9399 13.6287 15.9836 13.5839 15.9836 13.5287C15.9836 13.4735 15.9399 13.4287 15.8861 13.4287C15.8322 13.4287 15.7886 13.4735 15.7886 13.5287C15.7886 13.5839 15.8322 13.6287 15.8861 13.6287Z" fill="white"/>
<path d="M13.767 15.162C13.7638 15.3031 13.8152 15.4397 13.91 15.542C13.9529 15.5925 14.0058 15.6329 14.0653 15.6605C14.1247 15.6881 14.1892 15.7022 14.2545 15.702C14.3932 15.6931 14.508 15.6398 14.599 15.542C14.6938 15.4397 14.7452 15.3031 14.742 15.162V14.442H13.767V15.162Z" fill="#003399"/>
<path d="M13.9945 14.8154C14.0483 14.8154 14.092 14.7706 14.092 14.7154C14.092 14.6601 14.0483 14.6154 13.9945 14.6154C13.9406 14.6154 13.897 14.6601 13.897 14.7154C13.897 14.7706 13.9406 14.8154 13.9945 14.8154Z" fill="white"/>
<path d="M14.534 14.8154C14.5879 14.8154 14.6315 14.7706 14.6315 14.7154C14.6315 14.6601 14.5879 14.6154 14.534 14.6154C14.4802 14.6154 14.4365 14.6601 14.4365 14.7154C14.4365 14.7706 14.4802 14.8154 14.534 14.8154Z" fill="white"/>
<path d="M14.2611 15.082C14.3149 15.082 14.3586 15.0372 14.3586 14.982C14.3586 14.9267 14.3149 14.882 14.2611 14.882C14.2072 14.882 14.1636 14.9267 14.1636 14.982C14.1636 15.0372 14.2072 15.082 14.2611 15.082Z" fill="white"/>
<path d="M13.9945 15.362C14.0483 15.362 14.092 15.3172 14.092 15.262C14.092 15.2068 14.0483 15.162 13.9945 15.162C13.9406 15.162 13.897 15.2068 13.897 15.262C13.897 15.3172 13.9406 15.362 13.9945 15.362Z" fill="white"/>
<path d="M14.534 15.362C14.5879 15.362 14.6315 15.3172 14.6315 15.262C14.6315 15.2068 14.5879 15.162 14.534 15.162C14.4802 15.162 14.4365 15.2068 14.4365 15.262C14.4365 15.3172 14.4802 15.362 14.534 15.362Z" fill="white"/>
<path d="M16.4711 15.162C16.4679 15.3031 16.5193 15.4397 16.6141 15.542C16.657 15.5925 16.7099 15.6329 16.7694 15.6605C16.8288 15.6881 16.8933 15.7022 16.9586 15.702C17.0973 15.6931 17.2121 15.6398 17.3031 15.542C17.3979 15.4397 17.4493 15.3031 17.4461 15.162V14.442H16.4711V15.162Z" fill="#003399"/>
<path d="M16.6986 14.8154C16.7524 14.8154 16.7961 14.7706 16.7961 14.7154C16.7961 14.6601 16.7524 14.6154 16.6986 14.6154C16.6447 14.6154 16.6011 14.6601 16.6011 14.7154C16.6011 14.7706 16.6447 14.8154 16.6986 14.8154Z" fill="white"/>
<path d="M17.2381 14.8154C17.292 14.8154 17.3356 14.7706 17.3356 14.7154C17.3356 14.6601 17.292 14.6154 17.2381 14.6154C17.1843 14.6154 17.1406 14.6601 17.1406 14.7154C17.1406 14.7706 17.1843 14.8154 17.2381 14.8154Z" fill="white"/>
<path d="M16.9652 15.082C17.019 15.082 17.0627 15.0372 17.0627 14.982C17.0627 14.9267 17.019 14.882 16.9652 14.882C16.9113 14.882 16.8677 14.9267 16.8677 14.982C16.8677 15.0372 16.9113 15.082 16.9652 15.082Z" fill="white"/>
<path d="M16.6986 15.362C16.7524 15.362 16.7961 15.3172 16.7961 15.262C16.7961 15.2068 16.7524 15.162 16.6986 15.162C16.6447 15.162 16.6011 15.2068 16.6011 15.262C16.6011 15.3172 16.6447 15.362 16.6986 15.362Z" fill="white"/>
<path d="M17.2381 15.362C17.292 15.362 17.3356 15.3172 17.3356 15.262C17.3356 15.2068 17.292 15.162 17.2381 15.162C17.1843 15.162 17.1406 15.2068 17.1406 15.262C17.1406 15.3172 17.1843 15.362 17.2381 15.362Z" fill="white"/>
<path d="M15.119 16.8821C15.1158 17.0232 15.1672 17.1598 15.262 17.2621C15.3049 17.3126 15.3579 17.353 15.4173 17.3806C15.4768 17.4082 15.5413 17.4223 15.6065 17.4221C15.7452 17.4132 15.86 17.3599 15.951 17.2621C16.0458 17.1598 16.0973 17.0232 16.094 16.8821V16.1621H15.119V16.8821Z" fill="#003399"/>
<path d="M15.3465 16.5354C15.4004 16.5354 15.444 16.4907 15.444 16.4354C15.444 16.3802 15.4004 16.3354 15.3465 16.3354C15.2927 16.3354 15.249 16.3802 15.249 16.4354C15.249 16.4907 15.2927 16.5354 15.3465 16.5354Z" fill="white"/>
<path d="M15.8861 16.5354C15.9399 16.5354 15.9836 16.4907 15.9836 16.4354C15.9836 16.3802 15.9399 16.3354 15.8861 16.3354C15.8322 16.3354 15.7886 16.3802 15.7886 16.4354C15.7886 16.4907 15.8322 16.5354 15.8861 16.5354Z" fill="white"/>
<path d="M15.6131 16.8021C15.667 16.8021 15.7106 16.7573 15.7106 16.7021C15.7106 16.6468 15.667 16.6021 15.6131 16.6021C15.5593 16.6021 15.5156 16.6468 15.5156 16.7021C15.5156 16.7573 15.5593 16.8021 15.6131 16.8021Z" fill="white"/>
<path d="M15.3465 17.0821C15.4004 17.0821 15.444 17.0373 15.444 16.9821C15.444 16.9269 15.4004 16.8821 15.3465 16.8821C15.2927 16.8821 15.249 16.9269 15.249 16.9821C15.249 17.0373 15.2927 17.0821 15.3465 17.0821Z" fill="white"/>
<path d="M15.8861 17.0821C15.9399 17.0821 15.9836 17.0373 15.9836 16.9821C15.9836 16.9269 15.9399 16.8821 15.8861 16.8821C15.8322 16.8821 15.7886 16.9269 15.7886 16.9821C15.7886 17.0373 15.8322 17.0821 15.8861 17.0821Z" fill="white"/>
</g>
<defs>
<clipPath id="clip0_518_1204">
<rect width="39" height="30" fill="white"/>
</clipPath>
</defs>
</svg>
