<svg width="144" height="119" viewBox="0 0 144 119" fill="none" xmlns="http://www.w3.org/2000/svg">
<g clip-path="url(#clip0_70_5393)">
<path d="M31.6121 80.0402L19.0187 98.9316C9.47651 100.769 1.89692 100.789 -4.11672 99.7947C-22.2642 96.7822 -26.0514 84.437 -26.0514 84.437C-22.4923 81.9801 -19.9607 81.8933 -19.9607 81.8933C-26.5025 77.3795 -29.8391 64.9148 -29.8391 64.9148L-21.0655 67.5207C-25.7523 61.0218 -26.4088 46.7638 -26.4088 46.7638C-19.7186 48.8876 -16.5968 53.1231 -16.248 53.617C-23.0911 40.9057 -21.2337 24.8136 -21.2337 24.8136C-15.5431 26.4131 -11.8417 33.7174 -11.6239 34.1621C-15.1489 22.855 -11.708 5.87209 -11.708 5.87209C-1.24744 13.4357 1.28466 35.9367 1.28466 35.9367C2.909 49.0943 6.85983 58.3824 11.3933 64.92C20.3608 77.8617 31.5993 80.046 31.5993 80.046L31.6121 80.0402Z" fill="#8B5E3C"/>
<path d="M31.6123 80.0403L19.0189 98.9316C9.47666 100.769 1.89708 100.789 -4.11657 99.7948C-1.23506 83.4779 6.06743 71.6913 11.4063 64.9142C20.3738 77.856 31.6123 80.0403 31.6123 80.0403Z" fill="#6E4A2F"/>
<path d="M51.7346 87.5844L48.8044 110.099C54.787 117.756 60.4849 122.755 65.6701 125.959C81.325 135.619 92.2948 128.807 92.2948 128.807C91.2282 124.616 89.3777 122.886 89.3777 122.886C97.2745 123.785 107.983 116.587 107.983 116.587L99.659 112.782C107.463 110.966 117.331 100.654 117.331 100.654C110.894 97.8562 105.757 98.9954 105.169 99.1382C118.683 94.0588 127.866 80.7026 127.866 80.7026C122.526 78.1667 114.935 81.2372 114.479 81.4292C124.565 75.2358 133.141 60.1673 133.141 60.1673C120.286 58.9896 103.585 74.28 103.585 74.28C93.7111 83.1267 84.6279 87.5281 76.9138 89.4739C61.6484 93.3304 51.744 87.5879 51.744 87.5879L51.7346 87.5844Z" fill="#8B5E3C"/>
<path d="M51.7346 87.5844L48.8044 110.099C54.7869 117.756 60.4849 122.755 65.67 125.959C74.2259 111.769 76.472 98.087 76.9044 89.4704C61.639 93.3269 51.7346 87.5844 51.7346 87.5844Z" fill="#6E4A2F"/>
<path d="M97.1175 42.507C93.6067 48.1112 87.6329 48.8619 84.3441 48.8036C83.1772 48.7826 82.0326 50.2972 82.0643 51.8363L82.1947 57.8124C82.2053 58.4679 82.4382 59.0144 82.8385 59.314C83.6204 59.9062 84.7101 60.5604 86.0058 61.1209C89.7899 62.7639 95.2792 63.6471 99.6644 60.0688C104.373 56.2272 101.444 46.863 99.6163 42.2798C99.1703 41.1621 97.884 41.2886 97.1175 42.507Z" fill="#8B5E3C"/>
<path d="M86.0057 61.1208C89.7898 62.7638 95.2791 63.647 99.6644 60.0687C104.327 56.2634 101.509 47.0583 99.6829 42.4435C99.5846 42.193 99.2557 42.4435 99.3119 42.7209C100.373 48.0954 100.613 58.9615 86.0057 61.1208Z" fill="#6E4A2F"/>
<path d="M27.0686 16.2449C26.0298 22.7759 30.0376 27.2688 32.5542 29.387C33.4472 30.1384 33.314 32.0321 32.2782 33.171L28.2512 37.5884C27.8123 38.0754 27.2774 38.3341 26.7788 38.2967C25.8004 38.2288 24.5492 38.0054 23.2044 37.5759C19.2729 36.3262 14.5559 33.383 13.6039 27.8037C12.5817 21.8136 20.9451 16.6831 25.3351 14.4309C26.406 13.8819 27.2921 14.8228 27.0686 16.2449Z" fill="#8B5E3C"/>
<path d="M23.2138 37.5792C19.2823 36.3295 14.5653 33.3863 13.6134 27.807C12.6017 21.8743 20.7767 16.7906 25.1866 14.5138C25.4253 14.3897 25.5085 14.7947 25.2838 14.9667C20.9512 18.3191 13.6261 26.3487 23.2138 37.5792Z" fill="#6E4A2F"/>
<path d="M39.5153 132.568C39.4558 135.205 39.1252 143.806 43.5835 145.873C44.0037 146.062 44.5455 145.614 44.7082 144.981C45.3459 142.368 46.833 136.55 46.7688 138.972C46.7501 139.648 47.977 143.013 50.2688 144.363C50.7334 144.634 51.3865 144.088 51.4777 143.332C51.7339 141.282 52.0812 137.706 51.5322 136.721C51.5322 136.721 53.932 141.913 58.2192 142.528C58.6254 142.584 59.0701 142.195 59.2175 141.631C59.5837 140.198 60.0201 137.382 58.6622 134.823C58.6622 134.823 60.816 138.279 64.2652 138.109C64.6772 138.092 65.0868 137.627 65.1769 137.073C65.5536 134.758 65.6632 128.541 58.1568 121.7C57.973 121.535 57.7237 121.516 57.478 121.659C55.1513 122.966 43.0802 129.782 40.1426 131.436C39.7903 131.635 39.5293 132.103 39.5247 132.571L39.5153 132.568Z" fill="#8B5E3C"/>
<path d="M62.8207 86.6996L42.8823 80.6021L23.8496 72.0888L8.03717 85.8645C-0.500434 93.3113 -4.17213 107.463 0.0829956 116.652C3.30566 123.638 9.79261 130.747 22.321 135.444C34.8495 140.142 44.8728 138.987 51.9477 135.669C60.9677 131.436 67.1781 118.461 65.6757 107.485L62.8207 86.6996Z" fill="#CAA77C"/>
<path d="M51.3365 85.5978L33.218 78.8049C33.218 78.8049 18.2058 87.5408 23.1595 94.4389C23.1595 94.4389 18.7347 101.484 24.6803 101.577C24.6803 101.577 21.2668 109.001 28.0365 109.403C28.0365 109.403 26.8957 113.557 30.0699 114.747L30.0769 114.729L30.0793 114.751C33.2535 115.941 35.1247 112.061 35.1247 112.061C40.4902 116.208 42.7988 108.37 42.7988 108.37C47.3403 112.209 48.6377 103.991 48.6377 103.991C56.9147 102.053 51.3365 85.5978 51.3365 85.5978Z" fill="#DBC19E"/>
<path opacity="0.29" d="M20.4719 75.0303L63.4225 91.1331C63.4225 91.1331 38.2091 100.359 20.4719 75.0303Z" fill="#8B5E3C"/>
<path d="M40.3231 87.4283C63.0925 95.9649 86.5426 89.5708 92.7003 73.1466C98.8579 56.7224 85.3915 36.4877 62.622 27.951C39.8526 19.4144 16.4025 25.8086 10.2448 42.2328C4.08713 58.657 17.5536 78.8917 40.3231 87.4283Z" fill="#8B5E3C"/>
<path d="M23.6293 69.2295C35.0114 73.4968 47.4731 68.3286 51.4632 57.686C55.4532 47.0434 49.4608 34.9564 38.0787 30.6891C26.6965 26.4218 14.2349 31.59 10.2448 42.2326C6.25471 52.8752 12.2471 64.9621 23.6293 69.2295Z" fill="#DBC19E"/>
<path d="M64.8571 84.6865C76.2392 88.9538 88.7008 83.7856 92.6909 73.143C96.681 62.5004 90.6886 50.4135 79.3064 46.1461C67.9243 41.8788 55.4627 47.047 51.4726 57.6896C47.4825 68.3323 53.4749 80.4192 64.8571 84.6865Z" fill="#DBC19E"/>
<path d="M36.0347 55.9386C40.6476 57.668 45.6963 55.5779 47.3113 51.2702C48.9263 46.9624 46.4961 42.0683 41.8833 40.3389C37.2705 38.6095 32.2218 40.6996 30.6067 45.0074C28.9917 49.3151 31.4219 54.2092 36.0347 55.9386Z" fill="#FFF4C7"/>
<path d="M64.2469 66.5157C68.8597 68.2452 73.9084 66.155 75.5235 61.8473C77.1385 57.5396 74.7083 52.6455 70.0955 50.9161C65.4826 49.1866 60.4339 51.2768 58.8189 55.5845C57.2039 59.8922 59.6341 64.7863 64.2469 66.5157Z" fill="#FFF4C7"/>
<path d="M69.401 59.3489C68.0107 61.9461 66.0352 63.4269 65.0099 62.658C63.9752 61.8856 64.2687 59.1655 65.6684 56.5718C67.0586 53.9745 69.0342 52.4938 70.0595 53.2627C71.0942 54.0351 70.8006 56.7552 69.401 59.3489Z" fill="#533723"/>
<path d="M36.8813 47.1571C36.2214 50.0282 36.7365 52.4427 38.0146 52.5374C39.3021 52.6356 40.8691 50.393 41.5196 47.5184C42.1795 44.6474 41.6644 42.2329 40.3863 42.1381C39.0988 42.0399 37.5318 44.2826 36.8813 47.1571Z" fill="#533723"/>
<path d="M55.7871 64.3265L48.0077 70.0071C47.1522 70.6368 46.244 70.2963 46.0133 69.2593L43.886 59.8646C43.7092 59.0828 43.8976 58.3524 44.3236 57.7859C44.9497 56.942 46.0732 56.5089 47.1781 56.9231L55.2495 59.9492C56.3544 60.3634 56.9069 61.425 56.8368 62.4666C56.7853 63.1736 56.4436 63.8571 55.7964 64.33L55.7871 64.3265Z" fill="#E3A524"/>
<path d="M56.8182 62.4594L48.8235 68.3156C47.8252 69.0413 46.7578 68.6411 46.492 67.4414L44.3143 57.7822C44.9404 56.9383 46.064 56.5052 47.1689 56.9194L55.2403 59.9455C56.3452 60.3597 56.8977 61.4212 56.8275 62.4629L56.8182 62.4594Z" fill="#F9BF12"/>
<path d="M49.0545 61.1187C49.0745 62.2903 48.7375 63.3601 48.2951 63.5146C47.8527 63.6692 47.4874 62.8487 47.464 61.6865C47.444 60.5149 47.781 59.4452 48.2234 59.2906C48.6658 59.1361 49.031 59.9565 49.0545 61.1187Z" fill="#FECD5B"/>
<path d="M26.3789 90.5518C26.3789 90.5518 26.6189 90.9087 26.9653 91.3804C27.3282 91.8368 27.8327 92.3997 28.4483 92.6092C28.7468 92.7531 29.0851 92.7625 29.4104 92.7777C29.579 92.7554 29.7405 92.7519 29.8962 92.7355C30.0495 92.6969 30.2086 92.6711 30.3456 92.6477C30.6382 92.6079 30.8699 92.5025 31.0513 92.4744C31.2269 92.4334 31.3416 92.4123 31.3416 92.4123C31.3416 92.4123 31.269 92.4919 31.1438 92.6265C31.0034 92.7448 30.8278 92.9566 30.5469 93.1076C30.4077 93.1942 30.2555 93.2867 30.0881 93.3628C29.9056 93.4225 29.7101 93.4881 29.5088 93.5408C29.2958 93.5677 29.0699 93.6005 28.8393 93.5888C28.6099 93.5455 28.3665 93.5397 28.1394 93.4332C27.9147 93.3489 27.7075 93.2179 27.5226 93.0844C27.3377 92.951 27.189 92.7778 27.0497 92.6081C26.7805 92.2722 26.626 91.9153 26.5265 91.611C26.3309 90.993 26.3883 90.5553 26.3883 90.5553L26.3789 90.5518Z" fill="#F3E7B2"/>
<path d="M32.1843 92.7285C32.1843 92.7285 32.4243 93.0855 32.7708 93.5571C33.1336 94.0136 33.6381 94.5765 34.2538 94.7859C34.5522 94.9299 34.8905 94.9392 35.2159 94.9544C35.3844 94.9322 35.5459 94.9286 35.7016 94.9122C35.8549 94.8736 36.0141 94.8479 36.151 94.8244C36.4436 94.7846 36.6753 94.6793 36.8568 94.6512C37.0323 94.6102 37.147 94.5891 37.147 94.5891C37.147 94.5891 37.0745 94.6687 36.9492 94.8033C36.8088 94.9215 36.6332 95.1334 36.3524 95.2844C36.2131 95.371 36.0609 95.4635 35.8936 95.5396C35.711 95.5993 35.5155 95.6648 35.3142 95.7175C35.1012 95.7445 34.8753 95.7772 34.6448 95.7656C34.4154 95.7223 34.1719 95.7164 33.9448 95.6099C33.7201 95.5257 33.5129 95.3946 33.328 95.2612C33.1431 95.1278 32.9944 94.9546 32.8551 94.7849C32.5859 94.449 32.4314 94.092 32.3319 93.7877C32.1364 93.1698 32.1937 92.732 32.1937 92.732L32.1843 92.7285Z" fill="#F3E7B2"/>
<path d="M37.9897 94.9048C37.9897 94.9048 38.2297 95.2618 38.5762 95.7334C38.939 96.1898 39.4435 96.7528 40.0592 96.9622C40.3577 97.1062 40.6959 97.1155 41.0213 97.1307C41.1898 97.1084 41.3513 97.1049 41.507 97.0885C41.6603 97.0499 41.8195 97.0241 41.9564 97.0007C42.249 96.9609 42.4808 96.8555 42.6622 96.8274C42.8377 96.7865 42.9524 96.7654 42.9524 96.7654C42.9524 96.7654 42.8799 96.845 42.7546 96.9796C42.6142 97.0978 42.4387 97.3097 42.1578 97.4607C42.0185 97.5473 41.8664 97.6398 41.699 97.7158C41.5164 97.7755 41.321 97.8411 41.1197 97.8938C40.9066 97.9207 40.6808 97.9535 40.4502 97.9418C40.2208 97.8985 39.9773 97.8927 39.7503 97.7862C39.5255 97.702 39.3184 97.5709 39.1334 97.4375C38.9485 97.3041 38.7998 97.1309 38.6605 96.9612C38.3913 96.6253 38.2368 96.2683 38.1373 95.964C37.9418 95.346 37.9991 94.9083 37.9991 94.9083L37.9897 94.9048Z" fill="#F3E7B2"/>
<path d="M43.8044 97.085C43.8044 97.085 44.0444 97.4419 44.3909 97.9136C44.7537 98.37 45.2582 98.9329 45.8739 99.1424C46.1724 99.2863 46.5106 99.2957 46.836 99.3109C47.0045 99.2886 47.166 99.2851 47.3217 99.2687C47.475 99.2301 47.6342 99.2043 47.7711 99.1809C48.0637 99.1411 48.2955 99.0357 48.4769 99.0076C48.6524 98.9666 48.7671 98.9455 48.7671 98.9455C48.7671 98.9455 48.6946 99.0251 48.5693 99.1598C48.4289 99.278 48.2534 99.4898 47.9725 99.6408C47.8332 99.7275 47.6811 99.8199 47.5137 99.896C47.3311 99.9557 47.1357 100.021 46.9343 100.074C46.7213 100.101 46.4954 100.134 46.2649 100.122C46.0355 100.079 45.792 100.073 45.565 99.9664C45.3402 99.8821 45.1331 99.7511 44.9481 99.6176C44.7632 99.4842 44.6145 99.311 44.4752 99.1413C44.206 98.8054 44.0515 98.4485 43.952 98.1442C43.7565 97.5262 43.8138 97.0885 43.8138 97.0885L43.8044 97.085Z" fill="#F3E7B2"/>
<path d="M24.1182 96.582C24.1182 96.582 24.3581 96.939 24.7046 97.4106C25.0675 97.8671 25.5719 98.43 26.1876 98.6395C26.4861 98.7834 26.8243 98.7927 27.1497 98.8079C27.3182 98.7857 27.4797 98.7822 27.6354 98.7658C27.7887 98.7271 27.9479 98.7014 28.0848 98.6779C28.3774 98.6381 28.6092 98.5328 28.7906 98.5047C28.9661 98.4637 29.0808 98.4426 29.0808 98.4426C29.0808 98.4426 29.0083 98.5222 28.8831 98.6568C28.7426 98.775 28.5671 98.9869 28.2862 99.1379C28.1469 99.2245 27.9948 99.317 27.8274 99.3931C27.6448 99.4528 27.4494 99.5183 27.2481 99.571C27.035 99.598 26.8092 99.6308 26.5786 99.6191C26.3492 99.5758 26.1057 99.5699 25.8787 99.4635C25.6539 99.3792 25.4468 99.2481 25.2618 99.1147C25.0769 98.9813 24.9283 98.8081 24.789 98.6384C24.5197 98.3025 24.3652 97.9455 24.2657 97.6412C24.0702 97.0233 24.1275 96.5855 24.1275 96.5855L24.1182 96.582Z" fill="#F3E7B2"/>
<path d="M29.9235 98.7584C29.9235 98.7584 30.1634 99.1153 30.5099 99.587C30.8728 100.043 31.3773 100.606 31.9929 100.816C32.2914 100.96 32.6296 100.969 32.955 100.984C33.1236 100.962 33.2851 100.959 33.4407 100.942C33.5941 100.903 33.7532 100.878 33.8902 100.854C34.1828 100.814 34.4145 100.709 34.5959 100.681C34.7715 100.64 34.8862 100.619 34.8862 100.619C34.8862 100.619 34.8136 100.699 34.6884 100.833C34.548 100.951 34.3724 101.163 34.0915 101.314C33.9522 101.401 33.8001 101.493 33.6327 101.569C33.4502 101.629 33.2547 101.695 33.0534 101.747C32.8404 101.774 32.6145 101.807 32.3839 101.795C32.1545 101.752 31.9111 101.746 31.6875 101.63C31.4628 101.546 31.2556 101.415 31.0707 101.282C30.8857 101.148 30.7371 100.975 30.5978 100.805C30.3286 100.47 30.1741 100.113 30.0746 99.8082C29.879 99.1903 29.9364 98.7525 29.9364 98.7525L29.9235 98.7584Z" fill="#F3E7B2"/>
<path d="M35.729 100.935C35.729 100.935 35.969 101.292 36.3154 101.764C36.6783 102.22 37.1828 102.783 37.7984 102.992C38.0969 103.136 38.4352 103.146 38.7605 103.161C38.9291 103.139 39.0906 103.135 39.2463 103.119C39.3996 103.08 39.5588 103.054 39.6957 103.031C39.9883 102.991 40.22 102.886 40.4014 102.858C40.577 102.817 40.6917 102.796 40.6917 102.796C40.6917 102.796 40.6191 102.875 40.4939 103.01C40.3535 103.128 40.1779 103.34 39.897 103.491C39.7578 103.578 39.6056 103.67 39.4382 103.746C39.2557 103.806 39.0602 103.871 38.8589 103.924C38.6459 103.951 38.42 103.984 38.1894 103.972C37.96 103.929 37.7166 103.923 37.4895 103.816C37.2648 103.732 37.0576 103.601 36.8727 103.468C36.6877 103.334 36.5391 103.161 36.3998 102.991C36.1306 102.656 35.9761 102.299 35.8766 101.994C35.6811 101.376 35.7384 100.939 35.7384 100.939L35.729 100.935Z" fill="#F3E7B2"/>
<path d="M30.7024 105.512C30.7024 105.512 30.9424 105.869 31.2888 106.34C31.6517 106.797 32.1562 107.36 32.7718 107.569C33.0703 107.713 33.4086 107.722 33.7339 107.738C33.9025 107.715 34.064 107.712 34.2196 107.695C34.373 107.657 34.5321 107.631 34.6691 107.608C34.9617 107.568 35.1934 107.462 35.3748 107.434C35.5504 107.393 35.6651 107.372 35.6651 107.372C35.6651 107.372 35.5925 107.452 35.4673 107.587C35.3269 107.705 35.1513 107.917 34.8704 108.068C34.7311 108.154 34.579 108.247 34.4116 108.323C34.2291 108.382 34.0336 108.448 33.8323 108.501C33.6193 108.528 33.3934 108.56 33.1628 108.549C32.9334 108.505 32.69 108.5 32.4629 108.393C32.2382 108.309 32.031 108.178 31.8461 108.044C31.6611 107.911 31.5125 107.738 31.3732 107.568C31.104 107.232 30.9495 106.875 30.8499 106.571C30.6544 105.953 30.7118 105.515 30.7118 105.515L30.7024 105.512Z" fill="#F3E7B2"/>
<path d="M41.5437 103.115C41.5437 103.115 41.7837 103.472 42.1301 103.944C42.493 104.4 42.9975 104.963 43.6131 105.173C43.9116 105.317 44.2499 105.326 44.5752 105.341C44.7438 105.319 44.9053 105.315 45.061 105.299C45.2143 105.26 45.3734 105.235 45.5104 105.211C45.803 105.171 46.0347 105.066 46.2161 105.038C46.3917 104.997 46.5064 104.976 46.5064 104.976C46.5064 104.976 46.4338 105.055 46.3086 105.19C46.1682 105.308 45.9926 105.52 45.7117 105.671C45.5725 105.758 45.4203 105.85 45.2529 105.926C45.0704 105.986 44.8749 106.052 44.6736 106.104C44.4606 106.131 44.2347 106.164 44.0041 106.152C43.7747 106.109 43.5313 106.103 43.3042 105.997C43.0795 105.912 42.8723 105.781 42.6874 105.648C42.5025 105.515 42.3538 105.341 42.2145 105.172C41.9453 104.836 41.7908 104.479 41.6913 104.174C41.4957 103.556 41.5531 103.119 41.5531 103.119L41.5437 103.115Z" fill="#F3E7B2"/>
<path opacity="0.25" d="M56.2674 132.75C54.9098 133.95 53.4434 134.927 51.9008 135.652C44.8353 138.973 35.1116 140.24 22.2742 135.427C9.43676 130.614 3.2588 123.62 0.045505 116.638C-0.739967 114.944 -1.25626 113.074 -1.50687 111.122C-0.820917 112.34 16.1206 141.557 56.2768 132.754L56.2674 132.75Z" fill="#8B5E3C"/>
<path d="M76.5348 47.5848C76.5348 47.5848 76.5336 46.762 76.2678 45.5624C76.125 44.9748 75.9447 44.2878 75.6274 43.6242C75.4975 43.2872 75.2845 42.9723 75.11 42.6399C74.8771 42.3497 74.7062 42.008 74.437 41.7575L74.0718 41.3643C73.9337 41.2484 73.7921 41.1419 73.6598 41.0389C73.4058 40.8049 73.098 40.6574 72.8159 40.4983C72.5537 40.3145 72.2236 40.2549 71.965 40.1472C71.7004 40.0267 71.4102 40.0033 71.1527 39.9495C70.8882 39.9144 70.6857 39.8278 70.4539 39.8477C70.2327 39.8395 70.0431 39.8325 69.8945 39.8302C69.5913 39.8126 69.4111 39.8091 69.4111 39.8091L69.2344 39.7963C68.2266 39.7495 67.4389 38.8882 67.4856 37.8805C67.5324 36.8727 68.3937 36.085 69.4015 36.1317C69.5279 36.1364 69.6695 36.1574 69.7854 36.1902C69.7854 36.1902 70.0265 36.2592 70.4467 36.3634C70.6597 36.4219 70.9102 36.4944 71.2016 36.5717C71.4872 36.636 71.8102 36.7998 72.159 36.952C72.5043 37.1135 72.8788 37.2539 73.2429 37.5078C73.6069 37.7618 74.0142 37.9572 74.3525 38.3083C74.7048 38.622 75.0758 38.9426 75.3743 39.3429C75.5253 39.5383 75.6892 39.7279 75.8273 39.9292L76.1995 40.56C76.4629 40.9685 76.5975 41.4355 76.7907 41.8603C76.9136 42.3016 77.0717 42.7346 77.1384 43.1548C77.3257 43.994 77.3504 44.7828 77.3668 45.4511C77.3622 46.7737 77.1622 47.6492 77.1622 47.6492C77.1177 47.8247 76.9492 47.9324 76.783 47.8915C76.6355 47.8575 76.5453 47.7276 76.5348 47.5848Z" fill="#533723"/>
<path d="M38.7471 33.2361C38.7471 33.2361 39.1684 32.4542 40.0379 31.4453C40.4897 30.9525 41.0268 30.3743 41.7197 29.8651C42.0497 29.583 42.45 29.3699 42.8327 29.1183C43.2575 28.9251 43.6566 28.6582 44.133 28.5271L44.8282 28.2965C45.0646 28.2356 45.3127 28.2005 45.555 28.1525C46.0372 28.0342 46.5241 28.0459 47.0051 28.0447C47.4873 28.0119 47.9262 28.123 48.3675 28.171C48.8123 28.2096 49.1868 28.35 49.5496 28.4647C49.8996 28.5852 50.2636 28.6683 50.5211 28.8075C50.7915 28.9409 51.0279 29.051 51.2269 29.1469C51.6155 29.3353 51.839 29.4512 51.839 29.4512C52.7496 29.8994 53.1172 30.9984 52.6819 31.9031C52.2337 32.8137 51.1347 33.1813 50.23 32.746C50.1117 32.691 50.0006 32.6173 49.9116 32.5412L49.7641 32.4218C49.7641 32.4218 49.6225 32.3153 49.386 32.1199C49.2631 32.0204 49.1157 31.901 48.953 31.7653C48.7879 31.6073 48.5726 31.5266 48.3595 31.3826C48.1395 31.2574 47.896 31.0807 47.6175 30.9976C47.3424 30.9052 47.0545 30.7331 46.7455 30.7027C46.4377 30.6407 46.0994 30.5459 45.7541 30.5553C45.5833 30.5553 45.4007 30.5296 45.2298 30.5296L44.6961 30.5858C44.3286 30.5976 43.9751 30.7427 43.6088 30.8083C43.2589 30.9441 42.9007 31.0448 42.5718 31.2098C41.8965 31.5013 41.309 31.9005 40.8151 32.2493C39.8262 32.9785 39.2843 33.5977 39.2843 33.5977C39.172 33.7265 38.9754 33.7382 38.8466 33.6258C38.7331 33.5299 38.7073 33.3707 38.7787 33.2373L38.7471 33.2361Z" fill="#533723"/>
<path d="M124.875 94.9172C124.875 94.9172 124.892 95.3291 124.85 96.0396C124.798 96.7465 124.735 97.7695 124.538 98.9773C124.342 100.185 124.072 101.59 123.656 103.068C123.455 103.804 123.202 104.564 122.937 105.329C122.634 106.081 122.364 106.856 122.02 107.602C121.667 108.346 121.342 109.099 120.92 109.796C120.537 110.506 120.128 111.197 119.69 111.823C119.476 112.138 119.262 112.453 119.051 112.758C118.831 113.06 118.59 113.333 118.371 113.603C117.921 114.15 117.522 114.673 117.063 115.099C116.632 115.536 116.229 115.929 115.874 116.277C115.48 116.588 115.144 116.857 114.866 117.084C114.3 117.513 113.98 117.767 113.98 117.767C113.98 117.767 114.26 117.476 114.754 116.957C114.997 116.706 115.303 116.404 115.648 116.053C115.954 115.666 116.305 115.242 116.701 114.782C117.113 114.338 117.469 113.788 117.869 113.233C118.288 112.686 118.663 112.057 119.05 111.423C119.466 110.799 119.811 110.106 120.188 109.414C120.583 108.729 120.892 107.991 121.229 107.263C121.585 106.542 121.847 105.786 122.152 105.057C122.411 104.31 122.704 103.587 122.92 102.867C123.381 101.438 123.792 100.086 124.063 98.906C124.344 97.7297 124.577 96.7383 124.688 96.0431C124.812 95.342 124.887 94.9429 124.887 94.9429L124.875 94.9172Z" fill="#5F462B"/>
<path d="M114.484 121.523C114.484 121.523 115.126 121.005 116.048 120.198C116.51 119.794 117.04 119.32 117.587 118.799C118.135 118.278 118.719 117.717 119.269 117.133C119.838 116.556 120.363 115.952 120.866 115.382C121.12 115.104 121.336 114.811 121.564 114.544C121.792 114.277 121.995 114.022 122.181 113.782C122.562 113.306 122.875 112.9 123.091 112.607C123.314 112.327 123.45 112.164 123.45 112.164C123.45 112.164 123.376 112.361 123.249 112.698C123.123 113.035 122.912 113.512 122.611 114.061C122.464 114.337 122.307 114.641 122.104 114.928C121.906 115.228 121.72 115.553 121.478 115.857C121.235 116.162 121.02 116.508 120.737 116.808C120.463 117.111 120.201 117.44 119.908 117.736C118.753 118.937 117.427 119.967 116.356 120.601C115.291 121.249 114.497 121.517 114.497 121.517L114.484 121.523Z" fill="#5F462B"/>
</g>
<defs>
<clipPath id="clip0_70_5393">
<rect width="166.14" height="154.02" fill="white" transform="translate(-11.9307) rotate(20.5518)"/>
</clipPath>
</defs>
</svg>
