<svg width="31" height="31" viewBox="0 0 31 31" fill="none" xmlns="http://www.w3.org/2000/svg">
<g clip-path="url(#clip0_25_641)">
<mask id="mask0_25_641" style="mask-type:luminance" maskUnits="userSpaceOnUse" x="0" y="0" width="31" height="31">
<path d="M31 0H0V31H31V0Z" fill="white"/>
</mask>
<g mask="url(#mask0_25_641)">
<path opacity="0.4" d="M26.4792 9.04183V19.3752H8.20208C6.17417 19.3752 4.52083 21.0285 4.52083 23.0564V9.04183C4.52083 3.87516 5.8125 2.5835 10.9792 2.5835H20.0208C25.1875 2.5835 26.4792 3.87516 26.4792 9.04183Z" fill="white"/>
<path d="M26.4792 19.375V23.8958C26.4792 26.3888 24.4513 28.4167 21.9583 28.4167H9.04167C6.54875 28.4167 4.52083 26.3888 4.52083 23.8958V23.0563C4.52083 21.0283 6.17417 19.375 8.20208 19.375H26.4792Z" fill="white"/>
<path d="M20.6667 10.0107H10.3333C9.80375 10.0107 9.36458 9.57158 9.36458 9.04199C9.36458 8.51241 9.80375 8.07324 10.3333 8.07324H20.6667C21.1962 8.07324 21.6354 8.51241 21.6354 9.04199C21.6354 9.57158 21.1962 10.0107 20.6667 10.0107Z" fill="white"/>
<path d="M16.7917 14.5312H10.3333C9.80375 14.5312 9.36458 14.0921 9.36458 13.5625C9.36458 13.0329 9.80375 12.5938 10.3333 12.5938H16.7917C17.3212 12.5938 17.7604 13.0329 17.7604 13.5625C17.7604 14.0921 17.3212 14.5312 16.7917 14.5312Z" fill="white"/>
</g>
</g>
<defs>
<clipPath id="clip0_25_641">
<rect width="31" height="31" fill="white"/>
</clipPath>
</defs>
</svg>
