<svg width="47" height="47" viewBox="0 0 47 47" fill="none" xmlns="http://www.w3.org/2000/svg">
<mask id="mask0_69_2785" style="mask-type:alpha" maskUnits="userSpaceOnUse" x="0" y="0" width="47" height="47">
<circle cx="23.4839" cy="23.4839" r="23.4839" fill="#D9D9D9"/>
</mask>
<g mask="url(#mask0_69_2785)">
<path d="M38.5313 3.74658H7.66967C4.25686 3.74658 1.49023 6.51321 1.49023 9.92602V40.7877C1.49023 44.2005 4.25686 46.9671 7.66967 46.9671H38.5313C41.9442 46.9671 44.7108 44.2005 44.7108 40.7877V9.92602C44.7108 6.51321 41.9442 3.74658 38.5313 3.74658Z" fill="#9E460B"/>
<path d="M6.21363 21.8122C12.2808 21.8122 17.1993 16.8937 17.1993 10.8265C17.1993 4.75927 12.2808 -0.15918 6.21363 -0.15918C0.146416 -0.15918 -4.77203 4.75927 -4.77203 10.8265C-4.77203 16.8937 0.146416 21.8122 6.21363 21.8122Z" fill="#9E460B"/>
<path d="M13.6953 10.8263C13.6953 14.9578 10.3451 18.308 6.21367 18.308C2.08221 18.308 -1.26794 14.9578 -1.26794 10.8263C-1.26794 6.69488 2.08221 3.34473 6.21367 3.34473C10.3451 3.34473 13.6953 6.69488 13.6953 10.8263Z" fill="#F58133"/>
<g opacity="0.3" style="mix-blend-mode:multiply">
<path d="M5.68093 5.02572C9.8124 5.02572 13.1625 8.37588 13.1625 12.5073C13.1625 12.9809 13.1152 13.4425 13.0323 13.9042C13.4585 12.969 13.6953 11.9273 13.6953 10.8263C13.6953 6.69488 10.3451 3.34473 6.21364 3.34473C2.5557 3.34473 -0.486666 5.97276 -1.13776 9.4413C0.0342059 6.83694 2.6504 5.02572 5.68093 5.02572Z" fill="#F58133"/>
</g>
<path d="M39.9993 21.8122C46.0666 21.8122 50.985 16.8937 50.985 10.8265C50.985 4.75927 46.0666 -0.15918 39.9993 -0.15918C33.9321 -0.15918 29.0137 4.75927 29.0137 10.8265C29.0137 16.8937 33.9321 21.8122 39.9993 21.8122Z" fill="#9E460B"/>
<path d="M47.4928 10.8263C47.4928 14.9578 44.1426 18.308 40.0112 18.308C35.8797 18.308 32.5295 14.9578 32.5295 10.8263C32.5295 6.69488 35.8797 3.34473 40.0112 3.34473C44.1426 3.34473 47.4928 6.69488 47.4928 10.8263Z" fill="#F58133"/>
<g opacity="0.3" style="mix-blend-mode:multiply">
<path d="M39.4665 5.02572C43.598 5.02572 46.9481 8.37588 46.9481 12.5073C46.9481 12.9809 46.9008 13.4425 46.8179 13.9042C47.2441 12.969 47.4808 11.9273 47.4808 10.8263C47.4808 6.69488 44.1307 3.34473 39.9992 3.34473C36.3413 3.34473 33.2989 5.97276 32.6478 9.4413C33.8198 6.83694 36.4241 5.02572 39.4665 5.02572Z" fill="#F58133"/>
</g>
<path d="M23.1064 45.0618C29.9778 45.0618 35.5482 39.8572 35.5482 33.4369C35.5482 27.0167 29.9778 21.812 23.1064 21.812C16.235 21.812 10.6647 27.0167 10.6647 33.4369C10.6647 39.8572 16.235 45.0618 23.1064 45.0618Z" fill="#F58133"/>
<g opacity="0.3" style="mix-blend-mode:multiply">
<path d="M24.5743 42.2681C17.6964 42.2681 12.1326 37.0594 12.1326 30.6432C12.1326 29.3528 12.3693 28.1098 12.7837 26.9497C11.446 28.7964 10.6765 31.0338 10.6765 33.4251C10.6765 39.8413 16.2522 45.05 23.1183 45.05C28.6111 45.05 33.2634 41.7235 34.9089 37.1186C32.6715 40.2201 28.8834 42.2681 24.5743 42.2681Z" fill="#F58133"/>
</g>
<path d="M23.5563 34.7387V31.1518L23.4853 31.0926V30.3823L23.0946 30.7375L22.704 30.3823V31.0926L22.6329 31.1518V34.7387C22.6329 38.0652 18.0753 35.8041 18.0753 35.8041C18.0753 35.8041 19.6734 37.2602 20.9046 37.4378C21.7333 37.5562 22.5974 37.3431 23.0828 36.692C23.5682 37.3431 24.4323 37.5562 25.261 37.4378C26.504 37.2602 28.0903 35.8041 28.0903 35.8041C28.0903 35.8041 23.5326 38.0652 23.5326 34.7387H23.5563Z" fill="#47260F"/>
<g opacity="0.3" style="mix-blend-mode:multiply">
<path d="M28.3625 29.6251C28.3625 31.8862 25.8646 33.7092 22.7868 33.7092C19.7089 33.7092 17.2111 31.8743 17.2111 29.6251C17.2111 27.3759 19.7089 25.541 22.7868 25.541C25.8646 25.541 28.3625 27.3759 28.3625 29.6251Z" fill="#F58133"/>
</g>
<path d="M28.6822 29.045C28.6822 31.3061 26.1843 33.1292 23.1065 33.1292C20.0286 33.1292 17.5308 31.2943 17.5308 29.045C17.5308 26.7958 20.0286 24.9609 23.1065 24.9609C26.1843 24.9609 28.6822 26.7958 28.6822 29.045Z" fill="#47260F"/>
<path d="M11.8722 24.7125C11.8722 25.9555 11.0909 26.9499 10.132 26.9499C9.17315 26.9499 8.39185 25.9436 8.39185 24.7125C8.39185 23.4813 9.17315 22.4751 10.132 22.4751C11.0909 22.4751 11.8722 23.4813 11.8722 24.7125Z" fill="#47260F"/>
<path opacity="0.8" d="M11.5407 23.659C11.6117 23.9431 11.517 24.2154 11.3276 24.2627C11.1382 24.3101 10.9251 24.1207 10.8423 23.8366C10.7594 23.5525 10.8659 23.2802 11.0554 23.2328C11.2448 23.1855 11.4578 23.3749 11.5407 23.659Z" fill="#FFF8F2"/>
<path d="M37.5606 24.7125C37.5606 25.9555 36.7793 26.9499 35.8204 26.9499C34.8615 26.9499 34.0802 25.9436 34.0802 24.7125C34.0802 23.4813 34.8615 22.4751 35.8204 22.4751C36.7793 22.4751 37.5606 23.4813 37.5606 24.7125Z" fill="#47260F"/>
<path opacity="0.8" d="M37.2173 23.659C37.2883 23.9431 37.1936 24.2154 37.0042 24.2627C36.8148 24.3101 36.6017 24.1207 36.5188 23.8366C36.4478 23.5525 36.5425 23.2802 36.7319 23.2328C36.9213 23.1855 37.1344 23.3749 37.2173 23.659Z" fill="#FFF8F2"/>
<path opacity="0.3" d="M44.0834 27.5534C44.0834 29.7552 43.6572 31.5428 43.1245 31.5428C42.5918 31.5428 42.1656 29.7552 42.1656 27.5534C42.1656 25.3515 42.5918 23.564 43.1245 23.564C43.6572 23.564 44.0834 25.3515 44.0834 27.5534Z" fill="#FF7112"/>
<path opacity="0.4" d="M43.1127 35.7333C43.4395 35.7333 43.7046 34.9542 43.7046 33.9931C43.7046 33.032 43.4395 32.2529 43.1127 32.2529C42.7858 32.2529 42.5208 33.032 42.5208 33.9931C42.5208 34.9542 42.7858 35.7333 43.1127 35.7333Z" fill="#FF7112"/>
<path opacity="0.4" d="M28.9899 5.2973C28.9899 6.01942 26.7644 6.59948 24.018 6.59948C21.2716 6.59948 19.046 6.01942 19.046 5.2973C19.046 4.57518 21.2716 3.99512 24.018 3.99512C26.7644 3.99512 28.9899 4.57518 28.9899 5.2973Z" fill="#FF7112"/>
<path opacity="0.3" d="M30.9432 5.17966C30.9432 5.52296 30.6591 5.80707 30.3158 5.80707C29.9725 5.80707 29.6884 5.52296 29.6884 5.17966C29.6884 4.83636 29.9725 4.55225 30.3158 4.55225C30.6591 4.55225 30.9432 4.83636 30.9432 5.17966Z" fill="#FF7112"/>
</g>
</svg>
