<svg width="78" height="78" viewBox="0 0 78 78" fill="none" xmlns="http://www.w3.org/2000/svg">
<circle cx="39" cy="39" r="38.5" fill="white" stroke="#6ED0CF"/>
<mask id="mask0_69_2588" style="mask-type:alpha" maskUnits="userSpaceOnUse" x="0" y="0" width="78" height="78">
<circle cx="39" cy="39" r="38" fill="white" stroke="#6ED0CF" stroke-width="2"/>
</mask>
<g mask="url(#mask0_69_2588)">
<path d="M39.2545 43.1809C46.3323 43.1809 52.07 37.4432 52.07 30.3653C52.07 23.2875 46.3323 17.5498 39.2545 17.5498C32.1767 17.5498 26.439 23.2875 26.439 30.3653C26.439 37.4432 32.1767 43.1809 39.2545 43.1809Z" fill="#6ED0CF"/>
<path d="M39.2543 49.5889C26.4132 49.5889 15.9557 58.2009 15.9557 68.8122C15.9557 69.5298 16.5196 70.0937 17.2372 70.0937L39.2543 83.9347L61.2714 70.0937C61.9891 70.0937 62.5529 69.5298 62.5529 68.8122C62.5529 58.2009 52.0955 49.5889 39.2543 49.5889Z" fill="#6ED0CF"/>
</g>
</svg>
