<svg width="26" height="26" viewBox="0 0 26 26" fill="none" xmlns="http://www.w3.org/2000/svg">
<g clip-path="url(#clip0_33_861)">
<mask id="mask0_33_861" style="mask-type:luminance" maskUnits="userSpaceOnUse" x="0" y="0" width="26" height="26">
<path d="M26 0H0V26H26V0Z" fill="white"/>
</mask>
<g mask="url(#mask0_33_861)">
<path d="M16.1743 2.70841V9.10008C16.1743 9.57675 15.611 9.81508 15.2643 9.50092L13.3685 7.75675C13.1626 7.56175 12.8376 7.56175 12.6318 7.75675L10.7359 9.49008C10.3893 9.81508 9.82593 9.56591 9.82593 9.10008V2.70841C9.82593 2.40508 10.0643 2.16675 10.3676 2.16675H15.6326C15.936 2.16675 16.1743 2.40508 16.1743 2.70841Z" fill="#10B981"/>
<path d="M18.395 2.2326C18.0808 2.18927 17.7992 2.4601 17.7992 2.77427V9.29594C17.7992 10.1193 17.3117 10.8668 16.5533 11.2026C15.795 11.5276 14.9175 11.3868 14.3108 10.8234L13.3683 9.95677C13.1625 9.76177 12.8483 9.76177 12.6317 9.95677L11.6892 10.8234C11.2992 11.1918 10.79 11.376 10.2808 11.376C9.99917 11.376 9.7175 11.3218 9.44667 11.2026C8.68833 10.8668 8.20083 10.1193 8.20083 9.29594V2.77427C8.20083 2.4601 7.91917 2.18927 7.605 2.2326C4.57167 2.61177 3.25 4.65927 3.25 7.58427V18.4176C3.25 21.6676 4.875 23.8343 8.66667 23.8343H17.3333C21.125 23.8343 22.75 21.6676 22.75 18.4176V7.58427C22.75 4.65927 21.4283 2.61177 18.395 2.2326ZM18.9583 20.3135H9.75C9.30583 20.3135 8.9375 19.9451 8.9375 19.501C8.9375 19.0568 9.30583 18.6885 9.75 18.6885H18.9583C19.4025 18.6885 19.7708 19.0568 19.7708 19.501C19.7708 19.9451 19.4025 20.3135 18.9583 20.3135ZM18.9583 15.9801H14.3542C13.91 15.9801 13.5417 15.6118 13.5417 15.1676C13.5417 14.7235 13.91 14.3551 14.3542 14.3551H18.9583C19.4025 14.3551 19.7708 14.7235 19.7708 15.1676C19.7708 15.6118 19.4025 15.9801 18.9583 15.9801Z" fill="#10B981"/>
</g>
</g>
<defs>
<clipPath id="clip0_33_861">
<rect width="26" height="26" fill="white"/>
</clipPath>
</defs>
</svg>
