<svg width="56" height="56" viewBox="0 0 56 56" fill="none" xmlns="http://www.w3.org/2000/svg">
<mask id="mask0_69_3055" style="mask-type:alpha" maskUnits="userSpaceOnUse" x="4" y="4" width="48" height="48">
<circle cx="28" cy="28" r="23.4839" fill="#D9D9D9"/>
</mask>
<g mask="url(#mask0_69_3055)">
<path d="M43.0475 8.2627H12.1858C8.77298 8.2627 6.00635 11.0293 6.00635 14.4421V45.3038C6.00635 48.7166 8.77298 51.4832 12.1858 51.4832H43.0475C46.4603 51.4832 49.2269 48.7166 49.2269 45.3038V14.4421C49.2269 11.0293 46.4603 8.2627 43.0475 8.2627Z" fill="#9E460B"/>
<path d="M10.7297 26.3283C16.797 26.3283 21.7154 21.4098 21.7154 15.3426C21.7154 9.27538 16.797 4.35693 10.7297 4.35693C4.66253 4.35693 -0.25592 9.27538 -0.25592 15.3426C-0.25592 21.4098 4.66253 26.3283 10.7297 26.3283Z" fill="#9E460B"/>
<path d="M18.2114 15.3425C18.2114 19.4739 14.8612 22.8241 10.7298 22.8241C6.59832 22.8241 3.24817 19.4739 3.24817 15.3425C3.24817 11.211 6.59832 7.86084 10.7298 7.86084C14.8612 7.86084 18.2114 11.211 18.2114 15.3425Z" fill="#F58133"/>
<g opacity="0.3" style="mix-blend-mode:multiply">
<path d="M10.197 9.54184C14.3285 9.54184 17.6787 12.892 17.6787 17.0235C17.6787 17.497 17.6313 17.9587 17.5484 18.4203C17.9746 17.4851 18.2114 16.4434 18.2114 15.3425C18.2114 11.211 14.8612 7.86084 10.7298 7.86084C7.07181 7.86084 4.02945 10.4889 3.37836 13.9574C4.55032 11.353 7.16652 9.54184 10.197 9.54184Z" fill="#F58133"/>
</g>
<path d="M44.5154 26.3283C50.5827 26.3283 55.5011 21.4098 55.5011 15.3426C55.5011 9.27538 50.5827 4.35693 44.5154 4.35693C38.4482 4.35693 33.5298 9.27538 33.5298 15.3426C33.5298 21.4098 38.4482 26.3283 44.5154 26.3283Z" fill="#9E460B"/>
<path d="M52.0089 15.3425C52.0089 19.4739 48.6587 22.8241 44.5273 22.8241C40.3958 22.8241 37.0457 19.4739 37.0457 15.3425C37.0457 11.211 40.3958 7.86084 44.5273 7.86084C48.6587 7.86084 52.0089 11.211 52.0089 15.3425Z" fill="#F58133"/>
<g opacity="0.3" style="mix-blend-mode:multiply">
<path d="M43.9826 9.54184C48.1141 9.54184 51.4642 12.892 51.4642 17.0235C51.4642 17.497 51.4169 17.9587 51.334 18.4203C51.7602 17.4851 51.997 16.4434 51.997 15.3425C51.997 11.211 48.6468 7.86084 44.5153 7.86084C40.8574 7.86084 37.815 10.4889 37.1639 13.9574C38.3359 11.353 40.9403 9.54184 43.9826 9.54184Z" fill="#F58133"/>
</g>
<path d="M27.6225 49.578C34.4939 49.578 40.0643 44.3733 40.0643 37.953C40.0643 31.5328 34.4939 26.3281 27.6225 26.3281C20.7511 26.3281 15.1808 31.5328 15.1808 37.953C15.1808 44.3733 20.7511 49.578 27.6225 49.578Z" fill="#F58133"/>
<g opacity="0.3" style="mix-blend-mode:multiply">
<path d="M29.0904 46.7842C22.2126 46.7842 16.6487 41.5755 16.6487 35.1593C16.6487 33.8689 16.8855 32.6259 17.2998 31.4658C15.9621 33.3125 15.1926 35.5499 15.1926 37.9412C15.1926 44.3574 20.7683 49.5661 27.6344 49.5661C33.1272 49.5661 37.7795 46.2396 39.425 41.6347C37.1876 44.7362 33.3995 46.7842 29.0904 46.7842Z" fill="#F58133"/>
</g>
<path d="M28.0724 39.2548V35.6679L28.0014 35.6087V34.8984L27.6107 35.2536L27.2201 34.8984V35.6087L27.1491 35.6679V39.2548C27.1491 42.5813 22.5914 40.3202 22.5914 40.3202C22.5914 40.3202 24.1896 41.7763 25.4207 41.9539C26.2494 42.0723 27.1135 41.8592 27.5989 41.2081C28.0843 41.8592 28.9484 42.0723 29.7771 41.9539C31.0201 41.7763 32.6064 40.3202 32.6064 40.3202C32.6064 40.3202 28.0488 42.5813 28.0488 39.2548H28.0724Z" fill="#47260F"/>
<g opacity="0.3" style="mix-blend-mode:multiply">
<path d="M32.8786 34.1412C32.8786 36.4023 30.3808 38.2254 27.3029 38.2254C24.225 38.2254 21.7272 36.3905 21.7272 34.1412C21.7272 31.892 24.225 30.0571 27.3029 30.0571C30.3808 30.0571 32.8786 31.892 32.8786 34.1412Z" fill="#F58133"/>
</g>
<path d="M33.1983 33.5612C33.1983 35.8222 30.7005 37.6453 27.6226 37.6453C24.5447 37.6453 22.0469 35.8104 22.0469 33.5612C22.0469 31.3119 24.5447 29.4771 27.6226 29.4771C30.7005 29.4771 33.1983 31.3119 33.1983 33.5612Z" fill="#47260F"/>
<path d="M16.3883 29.2286C16.3883 30.4716 15.607 31.466 14.6481 31.466C13.6893 31.466 12.908 30.4597 12.908 29.2286C12.908 27.9974 13.6893 26.9912 14.6481 26.9912C15.607 26.9912 16.3883 27.9974 16.3883 29.2286Z" fill="#47260F"/>
<path opacity="0.8" d="M16.0568 28.1751C16.1278 28.4592 16.0331 28.7315 15.8437 28.7789C15.6543 28.8262 15.4412 28.6368 15.3584 28.3527C15.2755 28.0686 15.3821 27.7963 15.5715 27.749C15.7609 27.7016 15.974 27.891 16.0568 28.1751Z" fill="#FFF8F2"/>
<path d="M42.0767 29.2286C42.0767 30.4716 41.2954 31.466 40.3365 31.466C39.3776 31.466 38.5963 30.4597 38.5963 29.2286C38.5963 27.9974 39.3776 26.9912 40.3365 26.9912C41.2954 26.9912 42.0767 27.9974 42.0767 29.2286Z" fill="#47260F"/>
<path opacity="0.8" d="M41.7334 28.1751C41.8044 28.4592 41.7097 28.7315 41.5203 28.7789C41.3309 28.8262 41.1178 28.6368 41.0349 28.3527C40.9639 28.0686 41.0586 27.7963 41.248 27.749C41.4374 27.7016 41.6505 27.891 41.7334 28.1751Z" fill="#FFF8F2"/>
<path opacity="0.3" d="M48.5995 32.0695C48.5995 34.2714 48.1733 36.0589 47.6406 36.0589C47.1079 36.0589 46.6818 34.2714 46.6818 32.0695C46.6818 29.8676 47.1079 28.0801 47.6406 28.0801C48.1733 28.0801 48.5995 29.8676 48.5995 32.0695Z" fill="#FF7112"/>
<path opacity="0.4" d="M47.6288 40.2494C47.9557 40.2494 48.2207 39.4703 48.2207 38.5092C48.2207 37.5482 47.9557 36.769 47.6288 36.769C47.3019 36.769 47.0369 37.5482 47.0369 38.5092C47.0369 39.4703 47.3019 40.2494 47.6288 40.2494Z" fill="#FF7112"/>
<path opacity="0.4" d="M33.5061 9.81341C33.5061 10.5355 31.2805 11.1156 28.5341 11.1156C25.7877 11.1156 23.5621 10.5355 23.5621 9.81341C23.5621 9.09129 25.7877 8.51123 28.5341 8.51123C31.2805 8.51123 33.5061 9.09129 33.5061 9.81341Z" fill="#FF7112"/>
<path opacity="0.3" d="M35.4593 9.69577C35.4593 10.0391 35.1752 10.3232 34.8319 10.3232C34.4886 10.3232 34.2045 10.0391 34.2045 9.69577C34.2045 9.35247 34.4886 9.06836 34.8319 9.06836C35.1752 9.06836 35.4593 9.35247 35.4593 9.69577Z" fill="#FF7112"/>
</g>
<circle cx="28" cy="28" r="27" stroke="#6ED0CF" stroke-width="2"/>
</svg>
