<svg width="52" height="52" viewBox="0 0 52 52" fill="none" xmlns="http://www.w3.org/2000/svg">
<mask id="mask0_69_3114" style="mask-type:alpha" maskUnits="userSpaceOnUse" x="2" y="2" width="48" height="48">
<circle cx="26" cy="26" r="23.4839" fill="#D9D9D9"/>
</mask>
<g mask="url(#mask0_69_3114)">
<path d="M42.322 6.74707H8.97069C5.28256 6.74707 2.29279 9.73689 2.29279 13.425V46.7764C2.29279 50.4645 5.28256 53.4543 8.97069 53.4543H42.322C46.0102 53.4543 49 50.4645 49 46.7764V13.425C49 9.73689 46.0102 6.74707 42.322 6.74707Z" fill="#80B7FF"/>
<path d="M17.2094 -11.3421C16.4419 -26.0413 2.28003 -21.5126 2.28003 -13.8624V21.2416L17.2862 14.6404C17.2862 14.6404 17.9642 3.36981 17.1967 -11.3293L17.2094 -11.3421Z" fill="#80B7FF"/>
<path d="M7.44841 -16.8811C5.2736 -15.2308 4.83862 -12.0965 4.83862 -5.80236V8.70489C4.83862 11.2507 13.96 11.8904 13.96 8.23155V-9.14133C13.96 -15.9216 10.9153 -19.5037 7.44841 -16.8683V-16.8811Z" fill="#FF8080"/>
<g opacity="0.6" style="mix-blend-mode:multiply">
<path d="M7.44837 -16.8815C6.43772 -16.1139 5.79804 -15.0137 5.41425 -13.4402C5.65731 -13.7344 5.92598 -14.0031 6.23302 -14.2333C9.71271 -16.8687 12.7446 -13.2739 12.7446 -6.50637V10.0734C13.4738 9.65119 13.96 9.04992 13.96 8.21837V-9.15452C13.96 -15.9348 10.9153 -19.5168 7.44837 -16.8815Z" fill="#FF8080"/>
</g>
<path d="M34.0705 -11.3421C34.8381 -26.0413 48.9999 -21.5126 48.9999 -13.8624V21.2416L33.9938 14.6404C33.9938 14.6404 33.3157 3.36981 34.0833 -11.3293L34.0705 -11.3421Z" fill="#80B7FF"/>
<path d="M43.8445 -16.8811C46.0193 -15.2308 46.4542 -12.0965 46.4542 -5.80236V8.70489C46.4542 11.2507 37.3328 11.8904 37.3328 8.23155V-9.14133C37.3328 -15.9216 40.3776 -19.5037 43.8445 -16.8683V-16.8811Z" fill="#FF8080"/>
<g opacity="0.4" style="mix-blend-mode:multiply">
<path d="M43.8444 -16.8817C41.6312 -18.5576 39.5972 -17.7005 38.4074 -15.1291C39.3669 -15.5001 40.4543 -15.321 41.6057 -14.4638C43.7805 -12.8135 44.2154 -9.67925 44.2154 -3.38509V10.4697C45.4947 10.1243 46.4542 9.51024 46.4542 8.6787V-5.82856C46.4542 -12.1227 46.0192 -15.257 43.8444 -16.9073V-16.8817Z" fill="#FF8080"/>
</g>
<path d="M30.2967 34.6997C30.2967 36.4524 28.5056 39.0621 26.3053 39.0621C24.1049 39.0621 22.3138 36.4524 22.3138 34.6997C22.3138 32.9471 24.1049 32.7168 26.3053 32.7168C28.5056 32.7168 30.2967 32.9471 30.2967 34.6997Z" fill="#26374D"/>
<g style="mix-blend-mode:multiply" opacity="0.3">
<path d="M24.6678 42.7719C24.6678 43.2196 24.4886 44.3454 24.5654 44.5117C24.6421 44.6908 26.2541 45.4456 26.2541 45.1386V40.7378L24.6678 42.7719Z" fill="#26374D"/>
<path d="M27.9299 42.7719C27.9299 43.2196 28.1091 44.3454 28.0323 44.5117C27.9556 44.6908 26.3436 45.4456 26.3436 45.1386V40.7378L27.9299 42.7719Z" fill="#26374D"/>
</g>
<path d="M24.6678 42.1322C24.6678 42.58 24.4886 43.7058 24.5654 43.8721C24.6421 44.0512 26.2541 44.806 26.2541 44.4989V40.0981L24.6678 42.1322Z" fill="#F2F6FC"/>
<path d="M27.9299 42.1322C27.9299 42.58 28.1091 43.7058 28.0323 43.8721C27.9556 44.0512 26.3436 44.806 26.3436 44.4989V40.0981L27.9299 42.1322Z" fill="#F2F6FC"/>
<path d="M30.8596 42.8873C28.301 42.8873 26.5995 40.6869 26.5995 38.4993C26.5995 38.3842 26.5995 38.2563 26.6251 38.1411H25.9982C25.9982 38.2563 26.0238 38.3842 26.0238 38.4993C26.0238 40.6741 24.2328 42.9129 21.687 42.9129C20.4332 42.9129 18.8085 42.1453 18.1689 41.3138C18.9493 42.6315 20.3821 43.5142 22.0452 43.5142C24.0537 43.5142 25.7296 42.2093 26.3308 40.4183C26.9193 42.2093 28.608 43.5142 30.6165 43.5142C32.2668 43.5142 33.6996 42.6315 34.4928 41.3138C33.6612 42.0174 32.1516 42.8873 30.8979 42.8873H30.8596Z" fill="#26374D"/>
<path opacity="0.5" d="M29.3244 33.9448C29.286 34.2518 28.544 34.4181 27.6613 34.3286C26.7786 34.239 26.0878 33.9064 26.1134 33.5994C26.1517 33.2923 26.8937 33.126 27.7764 33.2156C28.6591 33.3051 29.35 33.6377 29.3244 33.9448Z" fill="#7DB4FC"/>
<path opacity="0.4" d="M29.9385 34.3283C29.9385 34.4435 29.8361 34.5458 29.721 34.5458C29.6059 34.5458 29.5035 34.4435 29.5035 34.3283C29.5035 34.2132 29.6059 34.1108 29.721 34.1108C29.8361 34.1108 29.9385 34.2132 29.9385 34.3283Z" fill="#7DB4FC"/>
<path d="M16.864 28.8406C16.864 30.3886 15.9813 31.6295 14.9067 31.6295C13.8321 31.6295 12.9493 30.3758 12.9493 28.8406C12.9493 27.3055 13.8321 26.0518 14.9067 26.0518C15.9813 26.0518 16.864 27.3055 16.864 28.8406Z" fill="#26374D"/>
<path d="M16.3523 27.4459C16.5058 27.9065 16.4802 28.3286 16.2883 28.3926C16.0964 28.4566 15.8022 28.1495 15.6359 27.689C15.4824 27.2284 15.508 26.8063 15.6999 26.7423C15.8918 26.6783 16.186 26.9854 16.3523 27.4459Z" fill="#E6F1FF"/>
<path d="M39.7378 28.8406C39.7378 30.3886 38.8551 31.6295 37.7805 31.6295C36.7059 31.6295 35.8232 30.3758 35.8232 28.8406C35.8232 27.3055 36.7059 26.0518 37.7805 26.0518C38.8551 26.0518 39.7378 27.3055 39.7378 28.8406Z" fill="#26374D"/>
<path d="M39.2389 27.4459C39.3924 27.9065 39.3669 28.3286 39.175 28.3926C38.9831 28.4566 38.6888 28.1495 38.5225 27.689C38.369 27.2284 38.3946 26.8063 38.5865 26.7423C38.7912 26.6783 39.0726 26.9854 39.2389 27.4459Z" fill="#E6F1FF"/>
<path opacity="0.4" d="M48.322 23.0453C48.322 26.5378 47.7463 29.3651 47.0427 29.3651C46.3391 29.3651 45.7634 26.5378 45.7634 23.0453C45.7634 19.5528 46.3391 16.7256 47.0427 16.7256C47.7463 16.7256 48.322 19.5528 48.322 23.0453Z" fill="#9EC8FF"/>
<path opacity="0.4" d="M47.0555 34.7766C47.6419 34.7766 48.1173 33.8544 48.1173 32.7169C48.1173 31.5794 47.6419 30.6572 47.0555 30.6572C46.4691 30.6572 45.9937 31.5794 45.9937 32.7169C45.9937 33.8544 46.4691 34.7766 47.0555 34.7766Z" fill="#9EC8FF"/>
<path opacity="0.4" d="M33.0343 8.01397C33.0343 8.5001 31.2177 8.88389 28.9789 8.88389C26.7401 8.88389 24.9235 8.48731 24.9235 8.01397C24.9235 7.54063 26.7401 7.14404 28.9789 7.14404C31.2177 7.14404 33.0343 7.54063 33.0343 8.01397Z" fill="#FCFEFF"/>
<path opacity="0.4" d="M35.465 8.07773C35.465 8.39756 34.9661 8.66621 34.352 8.66621C33.738 8.66621 33.239 8.41035 33.239 8.07773C33.239 7.74512 33.738 7.48926 34.352 7.48926C34.9661 7.48926 35.465 7.74512 35.465 8.07773Z" fill="#9EC8FF"/>
</g>
<circle cx="26" cy="26" r="25.5" stroke="black" stroke-opacity="0.5"/>
</svg>
