<svg width="47" height="47" viewBox="0 0 47 47" fill="none" xmlns="http://www.w3.org/2000/svg">
<mask id="mask0_69_2787" style="mask-type:alpha" maskUnits="userSpaceOnUse" x="0" y="0" width="47" height="47">
<circle cx="23.4839" cy="23.4839" r="23.4839" fill="#D9D9D9"/>
</mask>
<g mask="url(#mask0_69_2787)">
<path d="M9.63703 12.2688C2.55828 10.4017 1.47013 4.06748 -3.60412 3.44895C-8.67837 2.81896 -9.65198 2.33789 -9.65198 2.33789C-9.65198 2.33789 -10.5798 10.7224 -6.55933 15.8196C-2.52742 20.9053 0.885956 16.3465 6.93382 19.0955C12.9817 21.8445 9.63703 12.2802 9.63703 12.2802V12.2688Z" fill="#593535"/>
<path d="M37.2304 12.2688C44.3092 10.4017 45.3973 4.06748 50.4716 3.44895C55.5458 2.81896 56.5194 2.33789 56.5194 2.33789C56.5194 2.33789 57.4472 10.7224 53.4268 15.8196C49.3949 20.9053 45.9815 16.3465 39.9336 19.0955C33.8858 21.8445 37.2304 12.2802 37.2304 12.2802V12.2688Z" fill="#593535"/>
<path d="M44.3894 11.6505V41.5118C44.3894 44.8107 41.7091 47.491 38.4102 47.491H8.5489C7.00257 47.491 5.6166 46.9183 4.56281 45.9561C3.3372 44.8679 2.56976 43.2758 2.56976 41.5118V11.6505C2.56976 8.35169 5.23861 5.67139 8.5489 5.67139H38.4102C39.6015 5.67139 40.7011 6.01501 41.6289 6.61064C42.8201 7.37807 43.725 8.54641 44.1374 9.93238C44.3092 10.4707 44.4008 11.0549 44.4008 11.6505H44.3894Z" fill="#FFE7D7"/>
<path d="M44.1374 9.93238C41.5601 14.5026 32.7174 15.4534 28.9719 13.3801C24.1267 10.6884 21.561 12.6012 17.9872 12.773C15.3757 12.899 12.913 9.95529 15.3413 5.67139H38.4102C41.1134 5.67139 43.4043 7.46971 44.1259 9.93238H44.1374Z" fill="#593535"/>
<path d="M44.3894 17.1486V41.5118C44.3894 44.8107 41.7091 47.491 38.4103 47.491H25.1233C25.1004 42.2449 30.2892 37.6403 35.7414 35.1089C42.866 31.8101 38.2728 30.1492 35.0427 23.4713C32.5228 18.2482 34.9625 16.7133 44.4009 17.1486H44.3894Z" fill="#593535"/>
<g opacity="0.3" style="mix-blend-mode:multiply">
<path d="M36.0506 33.9861C34.7563 30.3208 30.4265 26.6554 22.8782 30.3895C15.3298 26.6669 10.9886 30.3208 9.69428 33.9861C8.29686 37.9493 10.0379 47.5022 14.8602 47.5022H30.8962C35.707 47.5022 37.448 37.9493 36.062 33.9861H36.0506Z" fill="#FF9696"/>
</g>
<path d="M36.6577 32.9324C35.3634 29.2671 31.0337 25.6017 23.4853 29.3358C15.9369 25.6132 11.5957 29.2671 10.3014 32.9324C8.90397 36.8956 10.645 46.4485 15.4673 46.4485H31.5033C36.3141 46.4485 38.0551 36.8956 36.6692 32.9324H36.6577Z" fill="#FF9696"/>
<g opacity="0.3" style="mix-blend-mode:multiply">
<path d="M32.3051 44.0089H16.2691C11.9279 44.0089 10.0952 36.2314 10.7939 31.8101C10.5992 32.1766 10.4274 32.5546 10.2899 32.9326C8.8925 36.8958 10.6336 46.4486 15.4558 46.4486H31.4918C34.1377 46.4486 35.8444 43.5622 36.6233 40.3091C35.6841 42.4396 34.2523 44.0089 32.3051 44.0089Z" fill="#FF9696"/>
</g>
<path opacity="0.3" d="M17.1396 36.9417C18.1834 36.9417 19.0296 35.8032 19.0296 34.3988C19.0296 32.9944 18.1834 31.856 17.1396 31.856C16.0958 31.856 15.2496 32.9944 15.2496 34.3988C15.2496 35.8032 16.0958 36.9417 17.1396 36.9417Z" fill="#FFE7D7"/>
<path d="M17.3573 36.6887C18.4011 36.6887 19.2473 35.5503 19.2473 34.1459C19.2473 32.7415 18.4011 31.603 17.3573 31.603C16.3135 31.603 15.4673 32.7415 15.4673 34.1459C15.4673 35.5503 16.3135 36.6887 17.3573 36.6887Z" fill="#593535"/>
<path opacity="0.3" d="M29.6019 36.9417C30.6457 36.9417 31.4918 35.8032 31.4918 34.3988C31.4918 32.9944 30.6457 31.856 29.6019 31.856C28.5581 31.856 27.7119 32.9944 27.7119 34.3988C27.7119 35.8032 28.5581 36.9417 29.6019 36.9417Z" fill="#FFE7D7"/>
<path d="M29.8195 36.6887C30.8633 36.6887 31.7095 35.5503 31.7095 34.1459C31.7095 32.7415 30.8633 31.603 29.8195 31.603C28.7757 31.603 27.9296 32.7415 27.9296 34.1459C27.9296 35.5503 28.7757 36.6887 29.8195 36.6887Z" fill="#593535"/>
<g opacity="0.3" style="mix-blend-mode:multiply">
<path d="M3.18829 9.02749C4.50554 10.1729 5.90296 10.8487 6.86512 10.906C13.2681 11.5818 14.4479 6.393 14.4479 6.393C14.4479 6.393 13.7491 6.12956 12.7068 5.67139H8.56035C6.20076 5.67139 4.16191 7.0459 3.19975 9.02749H3.18829Z" fill="#E08151"/>
</g>
<path d="M8.13655 10.1728C5.90296 10.0239 1.26397 6.61049 0.840164 1.39879C0.393447 -4.20235 3.53192 -6.51611 3.53192 -6.51611C3.53192 -6.51611 3.14247 -2.59875 6.84221 0.700089C9.99214 3.51784 15.7193 5.65979 15.7193 5.65979C15.7193 5.65979 14.5395 10.8371 8.13655 10.1728Z" fill="#E08151"/>
<g opacity="0.3" style="mix-blend-mode:multiply">
<path d="M41.6288 6.61064C39.6931 9.16494 36.8409 10.5509 35.2832 10.4936C29.9913 10.4936 28.6282 6.93136 28.3075 5.67139H38.4102C39.6014 5.67139 40.701 6.01501 41.6288 6.61064Z" fill="#593535"/>
</g>
<path d="M37.597 10.1728C39.8305 10.0239 44.4695 6.61049 44.8933 1.39879C45.3401 -4.20235 42.2016 -6.51611 42.2016 -6.51611C42.2016 -6.51611 42.591 -2.59875 38.8913 0.700089C35.7414 3.51784 30.0142 5.65979 30.0142 5.65979C30.0142 5.65979 31.194 10.8371 37.597 10.1728Z" fill="#E08151"/>
<path d="M15.6505 24.2956C15.6505 25.3036 15.032 26.1283 14.2646 26.1283C13.4971 26.1283 12.8786 25.315 12.8786 24.2956C12.8786 23.2761 13.4971 22.4629 14.2646 22.4629C15.032 22.4629 15.6505 23.2761 15.6505 24.2956Z" fill="#593535"/>
<path d="M15.1237 23.3907C15.2382 23.6541 15.2382 23.8946 15.1237 23.9519C15.0091 23.9977 14.8259 23.8374 14.7113 23.5739C14.5968 23.3105 14.5968 23.0699 14.7113 23.0127C14.8259 22.9668 15.0091 23.1272 15.1237 23.3907Z" fill="#FFE7D7"/>
<path d="M34.0805 24.2956C34.0805 25.3036 33.4619 26.1283 32.6945 26.1283C31.9271 26.1283 31.3085 25.315 31.3085 24.2956C31.3085 23.2761 31.9271 22.4629 32.6945 22.4629C33.4619 22.4629 34.0805 23.2761 34.0805 24.2956Z" fill="#593535"/>
<path d="M33.565 23.3905C33.6795 23.6539 33.6795 23.8945 33.565 23.9517C33.4504 24.009 33.2672 23.8372 33.1526 23.5737C33.0381 23.3103 33.0381 23.0698 33.1526 23.0125C33.2672 22.9552 33.4504 23.127 33.565 23.3905Z" fill="#FFE7D7"/>
<path d="M8.09073 36.9415C8.46872 38.4305 8.11363 42.9664 4.56281 45.956C3.3372 44.8678 2.56976 43.2757 2.56976 41.5117V16.3925C6.56731 14.1932 8.98416 15.4532 9.17888 19.2331C9.51106 25.6017 8.81235 25.8766 6.78494 28.8204C4.75753 31.7641 7.44929 34.433 8.09073 36.9415Z" fill="#593535"/>
<path opacity="0.8" d="M3.06233 -3.35466C3.49759 5.08715 11.9967 4.90388 11.9967 4.90388C11.9967 4.90388 8.86965 3.04829 6.37262 0.986517C3.87558 -1.07525 2.91342 -6.24114 3.06233 -3.36611V-3.35466Z" fill="#FFA05C"/>
<path opacity="0.8" d="M43.1638 -2.83998C43.6105 2.89861 41.3082 6.70144 41.3082 6.70144C41.3082 6.70144 44.481 4.44494 44.5383 0.859753C44.5955 -2.73689 42.9576 -5.4172 43.1638 -2.82853V-2.83998Z" fill="#FFA05C"/>
<path opacity="0.5" d="M27.8493 6.52993C27.8493 6.8621 26.8299 7.137 25.5699 7.137C24.31 7.137 23.2905 6.8621 23.2905 6.52993C23.2905 6.19775 24.31 5.92285 25.5699 5.92285C26.8299 5.92285 27.8493 6.19775 27.8493 6.52993Z" fill="#FFE7D7"/>
<path opacity="0.4" d="M22.042 6.98833C22.5797 6.98833 23.0156 6.80884 23.0156 6.58743C23.0156 6.36602 22.5797 6.18652 22.042 6.18652C21.5043 6.18652 21.0684 6.36602 21.0684 6.58743C21.0684 6.80884 21.5043 6.98833 22.042 6.98833Z" fill="#FFE7D7"/>
</g>
</svg>
