<svg width="52" height="52" viewBox="0 0 52 52" fill="none" xmlns="http://www.w3.org/2000/svg">
<mask id="mask0_69_3058" style="mask-type:alpha" maskUnits="userSpaceOnUse" x="2" y="2" width="48" height="48">
<circle cx="26" cy="25.7419" r="23.7419" fill="#D9D9D9"/>
</mask>
<g mask="url(#mask0_69_3058)">
<path d="M20.0675 18.5384C21.1404 13.8198 18.185 9.12486 13.4664 8.05196C8.74783 6.97906 4.05291 9.93446 2.98001 14.653C1.90711 19.3716 4.86252 24.0665 9.58109 25.1394C14.2997 26.2123 18.9946 23.2569 20.0675 18.5384Z" fill="#292624"/>
<path d="M44.7536 22.7873C48.1753 19.3656 48.1753 13.818 44.7536 10.3963C41.3319 6.97456 35.7842 6.97456 32.3625 10.3963C28.9408 13.818 28.9408 19.3656 32.3625 22.7873C35.7842 26.209 41.3319 26.209 44.7536 22.7873Z" fill="#292624"/>
<path d="M37.3739 13.5151H12.707C9.97923 13.5151 7.76794 15.9107 7.76794 18.8658V45.5882C7.76794 48.5433 9.97923 50.9389 12.707 50.9389H37.3739C40.1016 50.9389 42.3129 48.5433 42.3129 45.5882V18.8658C42.3129 15.9107 40.1016 13.5151 37.3739 13.5151Z" fill="#FFF0E3"/>
<path d="M20.9204 24.1512C14.2125 24.0217 10.4562 27.8058 9.72523 31.6454C8.99431 35.4851 11.7884 40.1297 18.6721 36.5491C25.5557 32.9685 25.9351 24.253 20.9204 24.1512Z" fill="#403B38"/>
<path d="M29.3677 24.1512C36.0755 24.0217 39.8319 27.8058 40.5628 31.6454C41.2937 35.4851 38.4996 40.1297 31.6159 36.5491C24.7323 32.9685 24.353 24.253 29.3677 24.1512Z" fill="#403B38"/>
<g opacity="0.2" style="mix-blend-mode:multiply">
<path d="M28.3498 38.7512C28.3498 39.991 26.9527 40.9995 25.2226 40.9995C23.4924 40.9995 22.0953 39.991 22.0953 38.7512C22.0953 37.5114 23.4924 36.5029 25.2226 36.5029C26.9527 36.5029 28.3498 37.5114 28.3498 38.7512Z" fill="#292624"/>
</g>
<path d="M28.3498 38.3718C28.3498 39.6116 26.9527 40.6201 25.2226 40.6201C23.4924 40.6201 22.0953 39.6116 22.0953 38.3718C22.0953 37.132 23.4924 36.1235 25.2226 36.1235C26.9527 36.1235 28.3498 37.132 28.3498 38.3718Z" fill="#292624"/>
<path d="M25.3798 41.1752V38.2607H25.056V41.1752C25.056 43.2754 22.6227 41.9801 22.6227 41.9801C22.6227 41.9801 23.7514 42.7943 24.4916 42.674C24.8895 42.6185 25.1023 42.415 25.2225 42.1467C25.3428 42.4242 25.5556 42.6278 25.9535 42.674C26.6936 42.7943 27.8224 41.9801 27.8224 41.9801C27.8224 41.9801 25.3891 43.2662 25.3891 41.1752H25.3798Z" fill="#292624"/>
<path d="M17.3304 32.2466C17.9027 32.2466 18.3667 31.4886 18.3667 30.5535C18.3667 29.6184 17.9027 28.8604 17.3304 28.8604C16.7581 28.8604 16.2942 29.6184 16.2942 30.5535C16.2942 31.4886 16.7581 32.2466 17.3304 32.2466Z" fill="#292624"/>
<path d="M18.0245 29.5917C18.0892 29.749 18.0707 29.897 17.9875 29.9248C17.9042 29.9525 17.7932 29.86 17.7284 29.7027C17.6636 29.5454 17.6821 29.3974 17.7654 29.3696C17.8487 29.3419 17.9597 29.4344 18.0245 29.5917Z" fill="#FFECE0"/>
<path d="M33.1055 32.2466C33.6778 32.2466 34.1417 31.4886 34.1417 30.5535C34.1417 29.6184 33.6778 28.8604 33.1055 28.8604C32.5332 28.8604 32.0692 29.6184 32.0692 30.5535C32.0692 31.4886 32.5332 32.2466 33.1055 32.2466Z" fill="#292624"/>
<path d="M33.7994 29.5917C33.8641 29.749 33.8457 29.897 33.7624 29.9248C33.6791 29.9525 33.5681 29.86 33.5033 29.7027C33.4385 29.5454 33.457 29.3974 33.5403 29.3696C33.6236 29.3419 33.7346 29.4344 33.7994 29.5917Z" fill="#FFECE0"/>
<path d="M37.0005 15.4447C37.0005 15.9628 35.1408 16.3792 32.8556 16.3792C30.5703 16.3792 28.7106 15.9628 28.7106 15.4447C28.7106 14.9266 30.5703 14.5103 32.8556 14.5103C35.1408 14.5103 37.0005 14.9266 37.0005 15.4447Z" fill="#FFF8F2"/>
<path d="M40.1833 15.8701C40.1833 16.268 39.5727 16.5918 38.814 16.5918C38.0554 16.5918 37.4447 16.268 37.4447 15.8701C37.4447 15.4723 38.0554 15.1484 38.814 15.1484C39.5727 15.1484 40.1833 15.4723 40.1833 15.8701Z" fill="#FFF8F2"/>
</g>
<circle cx="26" cy="26" r="25.5" stroke="black" stroke-opacity="0.5"/>
</svg>
