<svg width="47" height="47" viewBox="0 0 47 47" fill="none" xmlns="http://www.w3.org/2000/svg">
<mask id="mask0_69_2877" style="mask-type:alpha" maskUnits="userSpaceOnUse" x="0" y="0" width="47" height="47">
<circle cx="23.4839" cy="23.4839" r="23.4839" fill="#D9D9D9"/>
</mask>
<g mask="url(#mask0_69_2877)">
<path d="M44.5187 9.67129V40.5365C44.5187 40.6787 44.5187 40.8326 44.495 40.9629C44.2819 44.1845 41.6051 46.7309 38.3244 46.7309H7.45913C4.17837 46.7309 1.51349 44.1845 1.3003 40.9629C1.27661 40.8208 1.27661 40.6668 1.27661 40.5365V9.67129C1.27661 6.2484 4.03624 3.48877 7.45913 3.48877H38.3244C41.7473 3.48877 44.5187 6.2484 44.5187 9.67129Z" fill="#FF6600"/>
<path d="M44.5068 41.3304C44.2936 44.5519 41.6169 47.0983 38.3361 47.0983H7.45907C4.1783 47.0983 1.51342 44.5519 1.30023 41.3304C2.22406 41.0461 3.24263 40.6908 4.30859 40.2999C14.0087 36.6757 16.3775 31.8434 18.8529 29.1667C19.907 28.006 20.9967 27.2598 22.6903 27.165C22.714 27.165 22.7377 27.165 22.7496 27.165C22.8088 27.165 22.8443 27.165 22.8917 27.165C22.9391 27.165 22.9746 27.165 23.0338 27.165C23.0575 27.165 23.0812 27.165 23.093 27.165C24.8341 27.2598 25.9356 28.0533 27.0252 29.2496C29.4651 31.95 31.8812 36.7112 41.4866 40.2881C42.5526 40.6908 43.5711 41.0461 44.495 41.3185L44.5068 41.3304Z" fill="#FFECD4"/>
<path d="M23.3181 33.158V29.1903L23.2471 29.1311V28.5981L22.8918 28.8705L22.5364 28.5981V29.1311L22.4654 29.1903V33.158C22.4654 37.0429 17.8463 33.6673 17.8463 33.6673C17.8463 33.6673 19.8005 35.7637 21.4586 35.5387C22.2167 35.4321 22.643 35.136 22.8918 34.7333C23.1405 35.136 23.5669 35.4321 24.3249 35.5387C25.983 35.7637 27.9373 33.6673 27.9373 33.6673C27.9373 33.6673 23.3181 37.0429 23.3181 33.158Z" fill="#B04600"/>
<path d="M22.9391 31.9147C25.1958 31.9147 27.0253 30.5466 27.0253 28.859C27.0253 27.1713 25.1958 25.8032 22.9391 25.8032C20.6824 25.8032 18.853 27.1713 18.853 28.859C18.853 30.5466 20.6824 31.9147 22.9391 31.9147Z" fill="#291000"/>
<path d="M1.41872 22.3921C-3.14119 12.5853 -0.76056 -4.19751 -0.582901 -4.49361C-0.405242 -4.78971 11.8887 -2.21958 13.3337 6.54492C14.7787 15.2976 3.66906 27.2244 1.41872 22.4039V22.3921Z" fill="#FF6600"/>
<path d="M1.86874 15.4394C-1.11593 9.00816 0.435626 -2.00668 0.554065 -2.19618C0.672504 -2.39753 8.73821 -0.703845 9.68572 5.04045C10.6332 10.7847 3.33738 18.6017 1.86874 15.4394Z" fill="#FFECD4"/>
<path d="M44.649 22.3921C49.2089 12.5853 46.8283 -4.19751 46.6506 -4.49361C46.4729 -4.78971 34.179 -2.21958 32.734 6.54492C31.289 15.2976 42.3986 27.2244 44.649 22.4039V22.3921Z" fill="#FF6600"/>
<path d="M44.199 15.4394C47.1836 9.00816 45.6321 -2.00668 45.5136 -2.19618C45.3952 -2.39753 37.3295 -0.703845 36.3938 5.04045C35.4463 10.7847 42.7422 18.6017 44.2108 15.4394H44.199Z" fill="#FFECD4"/>
<path d="M14.7431 23.0196C14.7431 24.1684 14.0917 25.1041 13.2982 25.1041C12.5046 25.1041 11.8532 24.1684 11.8532 23.0196C11.8532 21.8707 12.5046 20.9351 13.2982 20.9351C14.0917 20.9351 14.7431 21.8707 14.7431 23.0196Z" fill="#291000"/>
<path d="M14.2812 22.3438C14.2931 22.628 14.1983 22.8649 14.0799 22.8649C13.9614 22.8649 13.843 22.6399 13.8311 22.3556C13.8193 22.0713 13.914 21.8345 14.0325 21.8345C14.1509 21.8345 14.2694 22.0595 14.2812 22.3438Z" fill="#FFDFB5"/>
<path d="M34.025 23.0196C34.025 24.1684 33.3736 25.1041 32.58 25.1041C31.7865 25.1041 31.1351 24.1684 31.1351 23.0196C31.1351 21.8707 31.7865 20.9351 32.58 20.9351C33.3736 20.9351 34.025 21.8707 34.025 23.0196Z" fill="#291000"/>
<path d="M33.563 22.3438C33.5748 22.628 33.4801 22.8649 33.3617 22.8649C33.2432 22.8649 33.1248 22.6399 33.1129 22.3556C33.1011 22.0713 33.1958 21.8345 33.3143 21.8345C33.4327 21.8345 33.5512 22.0595 33.563 22.3438Z" fill="#FFDFB5"/>
<path opacity="0.5" d="M29.0387 5.05253C29.0387 5.65657 27.3924 6.14217 25.3671 6.14217C23.3418 6.14217 21.6955 5.65657 21.6955 5.05253C21.6955 4.44849 23.3418 3.96289 25.3671 3.96289C27.3924 3.96289 29.0387 4.44849 29.0387 5.05253Z" fill="#FFCBA8"/>
<path opacity="0.5" d="M32.2959 5.05243C32.2959 5.44328 31.6918 5.76307 30.9338 5.76307C30.1758 5.76307 29.5718 5.44328 29.5718 5.05243C29.5718 4.66158 30.1758 4.3418 30.9338 4.3418C31.6918 4.3418 32.2959 4.66158 32.2959 5.05243Z" fill="#FFCBA8"/>
</g>
</svg>
