<svg width="23" height="28" viewBox="0 0 23 28" fill="none" xmlns="http://www.w3.org/2000/svg">
<path d="M19.0877 26.8766C17.6074 28.3542 15.9912 28.1209 14.4355 27.421C12.7891 26.7055 11.2786 26.6744 9.54162 27.421C7.36657 28.3853 6.21863 28.1053 4.91965 26.8766C-2.45134 19.0532 -1.36382 7.1391 7.00407 6.7036C9.04317 6.81247 10.463 7.85456 11.6562 7.94789C13.4386 7.5746 15.1454 6.5014 17.0485 6.64138C19.3293 6.82803 21.0512 7.76124 22.1841 9.44103C17.4715 12.3496 18.5892 18.7421 22.9091 20.5307C22.0481 22.8638 20.9304 25.1813 19.0725 26.8922L19.0877 26.8766ZM11.5052 6.61028C11.2786 3.14183 14.0125 0.279965 17.1543 0C17.5923 4.01283 13.6198 6.99912 11.5052 6.61028Z" fill="white"/>
</svg>
