<svg width="52" height="52" viewBox="0 0 52 52" fill="none" xmlns="http://www.w3.org/2000/svg">
<mask id="mask0_69_3056" style="mask-type:alpha" maskUnits="userSpaceOnUse" x="2" y="2" width="48" height="48">
<circle cx="26" cy="26" r="23.4839" fill="#D9D9D9"/>
</mask>
<g mask="url(#mask0_69_3056)">
<path d="M12.1531 14.7849C5.0744 12.9178 3.98624 6.58359 -1.08801 5.96506C-6.16225 5.33508 -7.13587 4.854 -7.13587 4.854C-7.13587 4.854 -8.06367 13.2385 -4.04321 18.3357C-0.0113053 23.4214 3.40207 18.8626 9.44993 21.6116C15.4978 24.3606 12.1531 14.7963 12.1531 14.7963V14.7849Z" fill="#593535"/>
<path d="M39.7465 14.7849C46.8253 12.9178 47.9134 6.58359 52.9877 5.96506C58.0619 5.33508 59.0355 4.854 59.0355 4.854C59.0355 4.854 59.9633 13.2385 55.9429 18.3357C51.911 23.4214 48.4976 18.8626 42.4497 21.6116C36.4019 24.3606 39.7465 14.7963 39.7465 14.7963V14.7849Z" fill="#593535"/>
<path d="M46.9055 14.1666V44.028C46.9055 47.3268 44.2252 50.0071 40.9263 50.0071H11.065C9.51869 50.0071 8.13271 49.4344 7.07892 48.4722C5.85331 47.3841 5.08588 45.7919 5.08588 44.028V14.1666C5.08588 10.8678 7.75473 8.1875 11.065 8.1875H40.9263C42.1176 8.1875 43.2172 8.53113 44.145 9.12675C45.3362 9.89419 46.2411 11.0625 46.6535 12.4485C46.8253 12.9868 46.9169 13.571 46.9169 14.1666H46.9055Z" fill="#FFE7D7"/>
<path d="M46.6535 12.4485C44.0763 17.0188 35.2336 17.9695 31.488 15.8962C26.6428 13.2045 24.0771 15.1173 20.5033 15.2892C17.8918 15.4152 15.4291 12.4714 17.8574 8.1875H40.9263C43.6295 8.1875 45.9204 9.98582 46.642 12.4485H46.6535Z" fill="#593535"/>
<path d="M46.9055 19.6647V44.028C46.9055 47.3268 44.2252 50.0071 40.9264 50.0071H27.6394C27.6165 44.761 32.8053 40.1564 38.2575 37.625C45.3821 34.3262 40.7889 32.6653 37.5588 25.9875C35.0389 20.7643 37.4786 19.2294 46.917 19.6647H46.9055Z" fill="#593535"/>
<g opacity="0.3" style="mix-blend-mode:multiply">
<path d="M38.5667 36.5023C37.2724 32.8369 32.9426 29.1715 25.3943 32.9056C17.8459 29.183 13.5047 32.8369 12.2104 36.5023C10.813 40.4654 12.554 50.0183 17.3763 50.0183H33.4123C38.2231 50.0183 39.9641 40.4654 38.5782 36.5023H38.5667Z" fill="#FF9696"/>
</g>
<path d="M39.1738 35.4486C37.8795 31.7832 33.5498 28.1178 26.0014 31.8519C18.453 28.1293 14.1118 31.7832 12.8175 35.4486C11.4201 39.4117 13.1611 48.9646 17.9834 48.9646H34.0194C38.8302 48.9646 40.5712 39.4117 39.1853 35.4486H39.1738Z" fill="#FF9696"/>
<g opacity="0.3" style="mix-blend-mode:multiply">
<path d="M34.8212 46.525H18.7852C14.444 46.525 12.6113 38.7475 13.31 34.3262C13.1153 34.6927 12.9435 35.0707 12.806 35.4487C11.4086 39.4119 13.1497 48.9647 17.9719 48.9647H34.0079C36.6539 48.9647 38.3605 46.0783 39.1394 42.8252C38.2002 44.9557 36.7684 46.525 34.8212 46.525Z" fill="#FF9696"/>
</g>
<path opacity="0.3" d="M19.6557 39.4578C20.6995 39.4578 21.5457 38.3193 21.5457 36.9149C21.5457 35.5105 20.6995 34.3721 19.6557 34.3721C18.6119 34.3721 17.7657 35.5105 17.7657 36.9149C17.7657 38.3193 18.6119 39.4578 19.6557 39.4578Z" fill="#FFE7D7"/>
<path d="M19.8734 39.2048C20.9172 39.2048 21.7634 38.0664 21.7634 36.662C21.7634 35.2576 20.9172 34.1191 19.8734 34.1191C18.8296 34.1191 17.9835 35.2576 17.9835 36.662C17.9835 38.0664 18.8296 39.2048 19.8734 39.2048Z" fill="#593535"/>
<path opacity="0.3" d="M32.118 39.4578C33.1618 39.4578 34.0079 38.3193 34.0079 36.9149C34.0079 35.5105 33.1618 34.3721 32.118 34.3721C31.0742 34.3721 30.228 35.5105 30.228 36.9149C30.228 38.3193 31.0742 39.4578 32.118 39.4578Z" fill="#FFE7D7"/>
<path d="M32.3356 39.2048C33.3794 39.2048 34.2256 38.0664 34.2256 36.662C34.2256 35.2576 33.3794 34.1191 32.3356 34.1191C31.2918 34.1191 30.4457 35.2576 30.4457 36.662C30.4457 38.0664 31.2918 39.2048 32.3356 39.2048Z" fill="#593535"/>
<g opacity="0.3" style="mix-blend-mode:multiply">
<path d="M5.70441 11.5436C7.02165 12.689 8.41907 13.3648 9.38123 13.4221C15.7842 14.0979 16.964 8.90912 16.964 8.90912C16.964 8.90912 16.2653 8.64567 15.2229 8.1875H11.0765C8.71688 8.1875 6.67802 9.56201 5.71586 11.5436H5.70441Z" fill="#E08151"/>
</g>
<path d="M10.6527 12.6889C8.41907 12.54 3.78009 9.1266 3.35628 3.91491C2.90956 -1.68624 6.04803 -4 6.04803 -4C6.04803 -4 5.65859 -0.0826318 9.35832 3.2162C12.5082 6.03396 18.2354 8.1759 18.2354 8.1759C18.2354 8.1759 17.0556 13.3532 10.6527 12.6889Z" fill="#E08151"/>
<g opacity="0.3" style="mix-blend-mode:multiply">
<path d="M44.1449 9.12675C42.2092 11.6811 39.357 13.067 37.7993 13.0098C32.5074 13.0098 31.1443 9.44747 30.8236 8.1875H40.9263C42.1175 8.1875 43.2171 8.53113 44.1449 9.12675Z" fill="#593535"/>
</g>
<path d="M40.1131 12.6889C42.3467 12.54 46.9856 9.1266 47.4094 3.91491C47.8562 -1.68624 44.7177 -4 44.7177 -4C44.7177 -4 45.1071 -0.0826318 41.4074 3.2162C38.2575 6.03396 32.5303 8.1759 32.5303 8.1759C32.5303 8.1759 33.7101 13.3532 40.1131 12.6889Z" fill="#E08151"/>
<path d="M18.1666 26.8117C18.1666 27.8197 17.5481 28.6444 16.7807 28.6444C16.0132 28.6444 15.3947 27.8311 15.3947 26.8117C15.3947 25.7923 16.0132 24.979 16.7807 24.979C17.5481 24.979 18.1666 25.7923 18.1666 26.8117Z" fill="#593535"/>
<path d="M17.6398 25.9068C17.7543 26.1702 17.7543 26.4108 17.6398 26.468C17.5253 26.5138 17.342 26.3535 17.2274 26.09C17.1129 25.8266 17.1129 25.5861 17.2274 25.5288C17.342 25.483 17.5253 25.6433 17.6398 25.9068Z" fill="#FFE7D7"/>
<path d="M36.5966 26.8117C36.5966 27.8197 35.9781 28.6444 35.2106 28.6444C34.4432 28.6444 33.8246 27.8311 33.8246 26.8117C33.8246 25.7923 34.4432 24.979 35.2106 24.979C35.9781 24.979 36.5966 25.7923 36.5966 26.8117Z" fill="#593535"/>
<path d="M36.0811 25.9066C36.1956 26.17 36.1956 26.4106 36.0811 26.4679C35.9665 26.5251 35.7833 26.3533 35.6687 26.0899C35.5542 25.8264 35.5542 25.5859 35.6687 25.5286C35.7833 25.4713 35.9665 25.6431 36.0811 25.9066Z" fill="#FFE7D7"/>
<path d="M10.6068 39.4576C10.9848 40.9466 10.6297 45.4825 7.07892 48.4721C5.85331 47.3839 5.08588 45.7918 5.08588 44.0278V18.9086C9.08342 16.7094 11.5003 17.9693 11.695 21.7492C12.0272 28.1178 11.3285 28.3927 9.30105 31.3365C7.27365 34.2802 9.9654 36.9491 10.6068 39.4576Z" fill="#593535"/>
<path opacity="0.8" d="M5.57844 -0.838544C6.0137 7.60326 14.5128 7.41999 14.5128 7.41999C14.5128 7.41999 11.3858 5.5644 8.88873 3.50263C6.39169 1.44086 5.42954 -3.72503 5.57844 -0.850001V-0.838544Z" fill="#FFA05C"/>
<path opacity="0.8" d="M45.6799 -0.323871C46.1266 5.41473 43.8243 9.21755 43.8243 9.21755C43.8243 9.21755 46.9971 6.96106 47.0544 3.37587C47.1117 -0.220779 45.4737 -2.90108 45.6799 -0.312414V-0.323871Z" fill="#FFA05C"/>
<path opacity="0.5" d="M30.3654 9.04604C30.3654 9.37821 29.346 9.65312 28.086 9.65312C26.8261 9.65312 25.8066 9.37821 25.8066 9.04604C25.8066 8.71387 26.8261 8.43896 28.086 8.43896C29.346 8.43896 30.3654 8.71387 30.3654 9.04604Z" fill="#FFE7D7"/>
<path opacity="0.4" d="M24.5581 9.50444C25.0959 9.50444 25.5318 9.32495 25.5318 9.10354C25.5318 8.88213 25.0959 8.70264 24.5581 8.70264C24.0204 8.70264 23.5845 8.88213 23.5845 9.10354C23.5845 9.32495 24.0204 9.50444 24.5581 9.50444Z" fill="#FFE7D7"/>
</g>
<circle cx="26" cy="26" r="25.5" stroke="black" stroke-opacity="0.5"/>
</svg>
