<svg width="52" height="52" viewBox="0 0 52 52" fill="none" xmlns="http://www.w3.org/2000/svg">
<mask id="mask0_69_3054" style="mask-type:alpha" maskUnits="userSpaceOnUse" x="2" y="2" width="48" height="48">
<circle cx="26" cy="26" r="23.4839" fill="#D9D9D9"/>
</mask>
<g mask="url(#mask0_69_3054)">
<path d="M40.138 6H10.8619C7.62448 6 5 8.88054 5 12.4339V44.5661C5 48.1195 7.62448 51 10.8619 51H40.138C43.3755 51 46 48.1195 46 44.5661V12.4339C46 8.88054 43.3755 6 40.138 6Z" fill="#9FAEC7"/>
<g opacity="0.2" style="mix-blend-mode:multiply">
<path d="M29.92 36.4165C29.92 40.9712 27.56 41.5005 24.6486 41.5005C21.7371 41.5005 19.3771 40.9602 19.3771 36.4165C19.3771 31.8729 21.7371 25.0244 24.6486 25.0244C27.56 25.0244 29.92 31.8729 29.92 36.4165Z" fill="#5E6775"/>
</g>
<path d="M15.3839 15.1096C16.6305 9.82795 13.3594 4.53573 8.07768 3.28913C2.79598 2.04254 -2.49625 5.31363 -3.74284 10.5953C-4.98943 15.877 -1.71833 21.1693 3.56336 22.4159C8.84506 23.6624 14.1373 20.3913 15.3839 15.1096Z" fill="#9FAEC7"/>
<path d="M12.319 10.3015C9.38553 12.5733 7.34531 15.9369 6.78287 19.7857C6.47408 19.8298 6.15427 19.8519 5.82342 19.8519C1.96355 19.8519 -1.16846 16.7199 -1.16846 12.86C-1.16846 9.00017 1.96355 5.86816 5.82342 5.86816C8.77898 5.86816 11.3155 7.70986 12.319 10.3015Z" fill="#DCE7FA"/>
<g opacity="0.2" style="mix-blend-mode:multiply">
<path d="M5.82342 7.12538C8.42607 7.12538 10.6979 8.55903 11.8889 10.6654C12.0323 10.5441 12.1646 10.4118 12.319 10.3015C11.3155 7.70986 8.77898 5.86816 5.82342 5.86816C1.96355 5.86816 -1.16846 9.00017 -1.16846 12.86C-1.16846 13.0696 -1.15743 13.2791 -1.13537 13.4886C-0.815556 9.92654 2.17309 7.12538 5.82342 7.12538Z" fill="#9FAEC7"/>
</g>
<path d="M53.2995 16.6313C55.3876 11.6223 53.0198 5.86898 48.0108 3.78085C43.0018 1.69273 37.2484 4.06057 35.1603 9.06957C33.0722 14.0786 35.44 19.8319 40.449 21.92C45.458 24.0082 51.2113 21.6403 53.2995 16.6313Z" fill="#9FAEC7"/>
<path d="M37.728 10.3015C40.6615 12.5733 42.7017 15.9369 43.2642 19.7857C43.573 19.8298 43.8928 19.8519 44.2236 19.8519C48.0835 19.8519 51.2155 16.7199 51.2155 12.86C51.2155 9.00017 48.0835 5.86816 44.2236 5.86816C41.2681 5.86816 38.7316 7.70986 37.728 10.3015Z" fill="#DCE7FA"/>
<path d="M25.6964 41.9197C25.6964 41.5779 25.6743 41.2029 25.6743 40.8059V40.3868C25.7295 38.4569 25.9169 37.9606 25.9169 37.9606L25.6743 37.5085V36.5049L25.3986 37.0011L25.1229 36.5049V37.5085L24.8803 37.9606C24.8803 37.9606 25.0678 38.4569 25.1229 40.3868V40.8059C25.1229 41.2029 25.1009 41.5779 25.1009 41.9197C24.7038 44.1805 21.0756 42.6476 21.0756 42.6476C21.0756 42.6476 22.8621 43.7283 24.4281 43.4968C24.9134 43.4196 25.2111 43.2541 25.3986 43.0336C25.5861 43.2652 25.8728 43.4306 26.3691 43.4968C27.9351 43.7283 29.7217 42.6476 29.7217 42.6476C29.7217 42.6476 26.0934 44.1805 25.6964 41.9197Z" fill="#5E6775"/>
<g opacity="0.2" style="mix-blend-mode:multiply">
<path d="M44.2236 7.12538C41.621 7.12538 39.3492 8.55903 38.1581 10.6654C38.0148 10.5441 37.8824 10.4118 37.728 10.3015C38.7316 7.70986 41.2681 5.86816 44.2236 5.86816C48.0835 5.86816 51.2155 9.00017 51.2155 12.86C51.2155 13.0696 51.2045 13.2791 51.1824 13.4886C50.8626 9.92654 47.874 7.12538 44.2236 7.12538Z" fill="#9FAEC7"/>
</g>
<path d="M15.6497 30.1633C16.3075 30.1633 16.8407 29.3733 16.8407 28.3988C16.8407 27.4243 16.3075 26.6343 15.6497 26.6343C14.9919 26.6343 14.4586 27.4243 14.4586 28.3988C14.4586 29.3733 14.9919 30.1633 15.6497 30.1633Z" fill="#393F47"/>
<path opacity="0.5" d="M16.4104 27.6269C16.4766 27.9136 16.4325 28.1673 16.3222 28.1893C16.2119 28.2114 16.0575 28.0018 16.0024 27.7261C15.9362 27.4394 15.9803 27.1858 16.0906 27.1637C16.2009 27.1416 16.3553 27.3512 16.4104 27.6269Z" fill="#9FAEC7"/>
<path d="M37.1215 28.3988C37.1215 29.3693 36.5921 30.1633 35.9304 30.1633C35.2687 30.1633 34.7394 29.3803 34.7394 28.3988C34.7394 27.4173 35.2687 26.6343 35.9304 26.6343C36.5921 26.6343 37.1215 27.4173 37.1215 28.3988Z" fill="#393F47"/>
<path opacity="0.5" d="M36.6914 27.6269C36.7576 27.9136 36.7135 28.1673 36.6032 28.1893C36.4929 28.2114 36.3385 28.0018 36.2834 27.7261C36.2283 27.4504 36.2613 27.1858 36.3716 27.1637C36.4819 27.1416 36.6363 27.3512 36.6914 27.6269Z" fill="#9FAEC7"/>
<path d="M30.67 35.2915C30.67 39.8462 28.31 40.3755 25.3986 40.3755C22.4871 40.3755 20.1271 39.8352 20.1271 35.2915C20.1271 30.7479 22.4871 23.8994 25.3986 23.8994C28.31 23.8994 30.67 30.7479 30.67 35.2915Z" fill="#5E6775"/>
<path opacity="0.6" d="M31.7066 7.23569C31.7066 7.7099 30.1847 8.09588 28.3099 8.09588C26.4351 8.09588 24.9132 7.7099 24.9132 7.23569C24.9132 6.76147 26.4351 6.37549 28.3099 6.37549C30.1847 6.37549 31.7066 6.76147 31.7066 7.23569Z" fill="#CCDFFF"/>
<path opacity="0.6" d="M35.015 7.26901C35.015 7.62192 34.4085 7.90865 33.6475 7.90865C32.8866 7.90865 32.28 7.62192 32.28 7.26901C32.28 6.91611 32.8866 6.62939 33.6475 6.62939C34.4085 6.62939 35.015 6.91611 35.015 7.26901Z" fill="#CCDFFF"/>
<path d="M14.3592 35.8533C14.3592 36.89 13.6092 37.7281 12.6829 37.7281C11.7565 37.7281 11.0066 36.89 11.0066 35.8533C11.0066 34.8167 11.7565 33.9785 12.6829 33.9785C13.6092 33.9785 14.3592 34.8167 14.3592 35.8533Z" fill="#CCCCFF"/>
<path d="M38.114 37.7281C39.0398 37.7281 39.7903 36.8887 39.7903 35.8533C39.7903 34.8179 39.0398 33.9785 38.114 33.9785C37.1882 33.9785 36.4377 34.8179 36.4377 35.8533C36.4377 36.8887 37.1882 37.7281 38.114 37.7281Z" fill="#CCCCFF"/>
</g>
<circle cx="26" cy="26" r="25.5" stroke="black" stroke-opacity="0.5"/>
</svg>
