<svg width="52" height="52" viewBox="0 0 52 52" fill="none" xmlns="http://www.w3.org/2000/svg">
<mask id="mask0_69_3053" style="mask-type:alpha" maskUnits="userSpaceOnUse" x="2" y="2" width="48" height="48">
<circle cx="26" cy="25.7419" r="23.7419" fill="#D9D9D9"/>
</mask>
<g mask="url(#mask0_69_3053)">
<path d="M45.2391 20.6053V46.9517C45.2391 49.8735 42.8835 52.2291 39.9617 52.2291H13.6154C10.6936 52.2291 8.33801 49.8735 8.33801 46.9517V20.6053C8.33801 17.6836 10.6936 15.3179 13.6154 15.3179H39.9617C42.8835 15.3179 45.2391 17.6836 45.2391 20.6053Z" fill="#FFB619"/>
<path d="M17.3056 30.1795C18.2157 30.1795 18.9535 23.9376 18.9535 16.2379C18.9535 8.53822 18.2157 2.29639 17.3056 2.29639C16.3955 2.29639 15.6577 8.53822 15.6577 16.2379C15.6577 23.9376 16.3955 30.1795 17.3056 30.1795Z" fill="#FFB619"/>
<path d="M20.5002 2.06427C20.5002 3.85372 19.0545 5.29943 17.2651 5.29943C15.4756 5.29943 14.0299 3.85372 14.0299 2.06427C14.0299 0.274815 15.4756 -1.1709 17.2651 -1.1709C19.0545 -1.1709 20.5002 0.274815 20.5002 2.06427Z" fill="#DE7A16"/>
<path d="M16.6382 17.4813C15.5767 11.4457 14.131 9.84834 10.36 9.46416C5.31518 8.94856 3.9099 8.25098 3.9099 8.25098C3.9099 8.25098 1.91825 13.9732 3.18198 18.7046C4.45583 23.436 10.0466 21.596 11.0171 24.5481C11.9978 27.5002 16.6382 17.4813 16.6382 17.4813Z" fill="#FFB619"/>
<g opacity="0.4" style="mix-blend-mode:multiply">
<path d="M14.5658 14.8934C12.5438 10.7989 10.3702 11.0516 8.36842 10.8494C6.37677 10.6472 5.09282 9.97998 5.09282 9.97998C5.09282 9.97998 4.375 12.4367 4.375 15.5101C4.375 18.5835 5.59832 20.3729 9.52096 19.7562C13.4436 19.1395 15.1218 16.0358 14.5658 14.8934Z" fill="#DE7A16"/>
</g>
<g opacity="0.2" style="mix-blend-mode:multiply">
<path d="M5.27475 11.9514C5.27475 11.9514 6.5587 12.6187 8.55034 12.8209C10.451 13.0129 12.5235 12.8006 14.4545 16.329C14.687 15.7527 14.7275 15.2371 14.5556 14.8934C12.5336 10.7989 10.36 11.0516 8.35825 10.8494C6.3565 10.6472 5.08266 9.97998 5.08266 9.97998C5.08266 9.97998 4.36487 12.4367 4.36487 15.5101C4.36487 16.1571 4.42552 16.7536 4.54684 17.2692C4.57717 14.2969 5.26463 11.9514 5.26463 11.9514H5.27475Z" fill="#DE7A16"/>
</g>
<path d="M33.7745 30.1795C34.6846 30.1795 35.4224 23.9376 35.4224 16.2379C35.4224 8.53822 34.6846 2.29639 33.7745 2.29639C32.8644 2.29639 32.1266 8.53822 32.1266 16.2379C32.1266 23.9376 32.8644 30.1795 33.7745 30.1795Z" fill="#FFB619"/>
<path d="M30.5697 2.06427C30.5697 3.85372 32.0154 5.29943 33.8048 5.29943C35.5943 5.29943 37.04 3.85372 37.04 2.06427C37.04 0.274815 35.5943 -1.1709 33.8048 -1.1709C32.0154 -1.1709 30.5697 0.274815 30.5697 2.06427Z" fill="#DE7A16"/>
<path d="M35.5437 17.4813C36.6052 11.4457 38.051 9.84834 41.822 9.46416C46.8668 8.94856 48.2721 8.25098 48.2721 8.25098C48.2721 8.25098 50.2637 13.9732 49 18.7046C47.7261 23.436 42.1353 21.596 41.1648 24.5481C40.1841 27.5002 35.5437 17.4813 35.5437 17.4813Z" fill="#FFB619"/>
<g opacity="0.4" style="mix-blend-mode:multiply">
<path d="M37.6163 14.8934C39.6383 10.7989 41.8119 11.0516 43.8137 10.8494C45.8053 10.6472 47.0893 9.97998 47.0893 9.97998C47.0893 9.97998 47.8071 12.4367 47.8071 15.5101C47.8071 18.5835 46.5736 20.3729 42.6611 19.7562C38.7486 19.1395 37.0603 16.0358 37.6163 14.8934Z" fill="#DE7A16"/>
</g>
<g opacity="0.2" style="mix-blend-mode:multiply">
<path d="M46.9072 11.9514C46.9072 11.9514 45.6233 12.6187 43.6316 12.8209C41.731 13.0129 39.6584 12.8006 37.7274 16.329C37.4949 15.7527 37.4545 15.2371 37.6264 14.8934C39.6483 10.7989 41.822 11.0516 43.8237 10.8494C45.8154 10.6472 47.0993 9.97998 47.0993 9.97998C47.0993 9.97998 47.8172 12.4367 47.8172 15.5101C47.8172 16.1571 47.7565 16.7536 47.6352 17.2692C47.6049 14.2969 46.9174 11.9514 46.9174 11.9514H46.9072Z" fill="#DE7A16"/>
</g>
<path d="M16.1024 50.6716C16.0417 51.2378 15.7283 51.7635 15.2228 52.2286H13.6154C10.6936 52.2286 8.33801 49.873 8.33801 46.9512V33.5051C11.3103 32.8479 12.9582 33.8387 12.6752 36.2448C12.2607 39.7226 11.2395 40.491 11.3912 42.6141C11.5428 44.7473 16.5573 46.7389 16.1024 50.6818V50.6716Z" fill="#A65300"/>
<path d="M45.239 33.5154V46.9515C45.239 49.8732 42.8834 52.2288 39.9616 52.2288H32.0355C31.0447 48.1546 32.8645 48.2152 36.2412 46.2438C40.457 43.7871 35.9379 35.3554 42.1555 33.7682C42.9946 33.5559 44.0562 33.475 45.239 33.5154Z" fill="#A65300"/>
<path d="M26.7886 50.6725C32.3498 50.6725 36.858 46.9065 36.858 42.261C36.858 37.6155 32.3498 33.8496 26.7886 33.8496C21.2274 33.8496 16.7191 37.6155 16.7191 42.261C16.7191 46.9065 21.2274 50.6725 26.7886 50.6725Z" fill="#A65300"/>
<g opacity="0.2" style="mix-blend-mode:multiply">
<path d="M27.8198 48.4485C22.2593 48.4485 17.7503 44.6876 17.7503 40.037C17.7503 39.3799 17.8514 38.7531 18.0132 38.1465C17.1943 39.3698 16.7191 40.7649 16.7191 42.2713C16.7191 46.9118 21.2281 50.6827 26.7886 50.6827C31.5705 50.6827 35.5639 47.9025 36.5951 44.172C34.8663 46.7298 31.5907 48.4586 27.8198 48.4586V48.4485Z" fill="#DE7A16"/>
</g>
<path d="M23.3613 39.8852C23.0884 40.9467 22.4514 41.6948 21.9459 41.5634C21.4404 41.432 21.2585 40.4614 21.5314 39.41C21.8044 38.3485 22.4413 37.6003 22.9468 37.7318C23.4523 37.8632 23.6343 38.8337 23.3613 39.8852Z" fill="#3D2206"/>
<path d="M30.2158 39.8852C30.4887 40.9467 31.1256 41.6948 31.6311 41.5634C32.1366 41.432 32.3186 40.4614 32.0456 39.41C31.7727 38.3485 31.1357 37.6003 30.6302 37.7318C30.1247 37.8632 29.9428 38.8337 30.2158 39.8852Z" fill="#3D2206"/>
<path d="M31.4998 44.4146C31.4998 44.5359 29.5789 45.6176 27.0615 45.6176C24.5442 45.6176 22.6233 44.5258 22.6233 44.4146C22.6233 44.3034 24.5442 45.193 27.0615 45.193C29.5789 45.193 31.4998 44.2933 31.4998 44.4146Z" fill="#3D2206"/>
<path d="M19.7723 32.7883C19.7723 34.0319 19.0342 35.0327 18.1244 35.0327C17.2145 35.0327 16.4764 34.0319 16.4764 32.7883C16.4764 31.5448 17.2145 30.5439 18.1244 30.5439C19.0342 30.5439 19.7723 31.5448 19.7723 32.7883Z" fill="#7A430C"/>
<path d="M19.1353 31.8683C19.2162 32.2221 19.1758 32.5254 19.0342 32.5659C18.8927 32.5962 18.7209 32.3434 18.64 31.9896C18.5591 31.6358 18.5995 31.3325 18.7411 31.292C18.8826 31.2617 19.0545 31.5144 19.1353 31.8683Z" fill="#FFEFCC"/>
<path d="M37.0904 32.7883C37.0904 34.0319 36.3525 35.0327 35.4426 35.0327C34.5327 35.0327 33.7947 34.0319 33.7947 32.7883C33.7947 31.5448 34.5327 30.5439 35.4426 30.5439C36.3525 30.5439 37.0904 31.5448 37.0904 32.7883Z" fill="#7A430C"/>
<path d="M36.4636 31.8683C36.5445 32.2221 36.5041 32.5254 36.3625 32.5659C36.221 32.5962 36.0491 32.3434 35.9682 31.9896C35.8873 31.6358 35.9278 31.3325 36.0693 31.292C36.2109 31.2617 36.3827 31.5144 36.4636 31.8683Z" fill="#FFEFCC"/>
<path d="M31.0953 24.6998C24.5744 24.0933 27.2434 21.4344 20.6113 22.4453C15.3946 23.2238 14.6465 18.8058 18.7915 15.3179H33.2487C38.5159 18.2598 37.3331 25.2963 31.1054 24.71L31.0953 24.6998Z" fill="#A65300"/>
<path opacity="0.4" d="M34.3306 16.5513C34.3306 16.9456 32.1064 17.2691 29.3565 17.2691C26.6066 17.2691 24.3824 16.9456 24.3824 16.5513C24.3824 16.157 26.6066 15.8335 29.3565 15.8335C32.1064 15.8335 34.3306 16.157 34.3306 16.5513Z" fill="#FFE3A6"/>
<path opacity="0.4" d="M36.575 16.4402C36.575 16.6728 36.201 16.8649 35.746 16.8649C35.2911 16.8649 34.917 16.6728 34.917 16.4402C34.917 16.2077 35.2911 16.0156 35.746 16.0156C36.201 16.0156 36.575 16.2077 36.575 16.4402Z" fill="#FFE3A6"/>
</g>
<circle cx="26" cy="26" r="25.5" stroke="black" stroke-opacity="0.5"/>
</svg>
