<svg width="47" height="48" viewBox="0 0 47 48" fill="none" xmlns="http://www.w3.org/2000/svg">
<path d="M42.477 18.6053V44.9517C42.477 47.8735 40.1214 50.2291 37.1996 50.2291H10.8533C7.93153 50.2291 5.57593 47.8735 5.57593 44.9517V18.6053C5.57593 15.6836 7.93153 13.3179 10.8533 13.3179H37.1996C40.1214 13.3179 42.477 15.6836 42.477 18.6053Z" fill="#FFB619"/>
<path d="M14.5435 28.1795C15.4537 28.1795 16.1915 21.9376 16.1915 14.2379C16.1915 6.53822 15.4537 0.296387 14.5435 0.296387C13.6334 0.296387 12.8956 6.53822 12.8956 14.2379C12.8956 21.9376 13.6334 28.1795 14.5435 28.1795Z" fill="#FFB619"/>
<path d="M17.7381 0.0642653C17.7381 1.85372 16.2924 3.29943 14.503 3.29943C12.7135 3.29943 11.2678 1.85372 11.2678 0.0642653C11.2678 -1.72518 12.7135 -3.1709 14.503 -3.1709C16.2924 -3.1709 17.7381 -1.72518 17.7381 0.0642653Z" fill="#DE7A16"/>
<path d="M13.8762 15.4813C12.8146 9.4457 11.3689 7.84834 7.59792 7.46416C2.55309 6.94856 1.14781 6.25098 1.14781 6.25098C1.14781 6.25098 -0.843837 11.9732 0.419899 16.7046C1.69374 21.436 7.28451 19.596 8.25506 22.5481C9.23572 25.5002 13.8762 15.4813 13.8762 15.4813Z" fill="#FFB619"/>
<g opacity="0.4" style="mix-blend-mode:multiply">
<path d="M11.8037 12.8934C9.78172 8.79888 7.60809 9.05163 5.60633 8.84943C3.61468 8.64723 2.33074 7.97998 2.33074 7.97998C2.33074 7.97998 1.61292 10.4367 1.61292 13.5101C1.61292 16.5835 2.83624 18.3729 6.75887 17.7562C10.6815 17.1395 12.3597 14.0358 11.8037 12.8934Z" fill="#DE7A16"/>
</g>
<g opacity="0.2" style="mix-blend-mode:multiply">
<path d="M2.51267 9.95141C2.51267 9.95141 3.79661 10.6187 5.78826 10.8209C7.68892 11.0129 9.76144 10.8006 11.6924 14.329C11.925 13.7527 11.9654 13.2371 11.7935 12.8934C9.77156 8.79888 7.59793 9.05163 5.59617 8.84943C3.59441 8.64723 2.32058 7.97998 2.32058 7.97998C2.32058 7.97998 1.60278 10.4367 1.60278 13.5101C1.60278 14.1571 1.66344 14.7536 1.78475 15.2692C1.81508 12.2969 2.50255 9.95141 2.50255 9.95141H2.51267Z" fill="#DE7A16"/>
</g>
<path d="M31.0124 28.1795C31.9225 28.1795 32.6603 21.9376 32.6603 14.2379C32.6603 6.53822 31.9225 0.296387 31.0124 0.296387C30.1023 0.296387 29.3645 6.53822 29.3645 14.2379C29.3645 21.9376 30.1023 28.1795 31.0124 28.1795Z" fill="#FFB619"/>
<path d="M27.8076 0.0642653C27.8076 1.85372 29.2533 3.29943 31.0428 3.29943C32.8322 3.29943 34.2779 1.85372 34.2779 0.0642653C34.2779 -1.72518 32.8322 -3.1709 31.0428 -3.1709C29.2533 -3.1709 27.8076 -1.72518 27.8076 0.0642653Z" fill="#DE7A16"/>
<path d="M32.7816 15.4813C33.8432 9.4457 35.2889 7.84834 39.0599 7.46416C44.1047 6.94856 45.51 6.25098 45.51 6.25098C45.51 6.25098 47.5016 11.9732 46.2379 16.7046C44.964 21.436 39.3733 19.596 38.4027 22.5481C37.4221 25.5002 32.7816 15.4813 32.7816 15.4813Z" fill="#FFB619"/>
<g opacity="0.4" style="mix-blend-mode:multiply">
<path d="M34.8542 12.8934C36.8762 8.79888 39.0498 9.05163 41.0516 8.84943C43.0432 8.64723 44.3272 7.97998 44.3272 7.97998C44.3272 7.97998 45.045 10.4367 45.045 13.5101C45.045 16.5835 43.8116 18.3729 39.899 17.7562C35.9865 17.1395 34.2982 14.0358 34.8542 12.8934Z" fill="#DE7A16"/>
</g>
<g opacity="0.2" style="mix-blend-mode:multiply">
<path d="M44.1452 9.95141C44.1452 9.95141 42.8612 10.6187 40.8696 10.8209C38.9689 11.0129 36.8963 10.8006 34.9654 14.329C34.7328 13.7527 34.6924 13.2371 34.8643 12.8934C36.8863 8.79888 39.0599 9.05163 41.0616 8.84943C43.0533 8.64723 44.3372 7.97998 44.3372 7.97998C44.3372 7.97998 45.0551 10.4367 45.0551 13.5101C45.0551 14.1571 44.9944 14.7536 44.8731 15.2692C44.8428 12.2969 44.1553 9.95141 44.1553 9.95141H44.1452Z" fill="#DE7A16"/>
</g>
<path d="M13.3403 48.6716C13.2797 49.2378 12.9663 49.7635 12.4608 50.2286H10.8533C7.93153 50.2286 5.57593 47.873 5.57593 44.9512V31.5051C8.54823 30.8479 10.1962 31.8387 9.91308 34.2448C9.49857 37.7226 8.47745 38.491 8.6291 40.6141C8.78075 42.7473 13.7953 44.7389 13.3403 48.6818V48.6716Z" fill="#A65300"/>
<path d="M42.4769 31.5154V44.9515C42.4769 47.8732 40.1213 50.2288 37.1995 50.2288H29.2734C28.2826 46.1546 30.1024 46.2152 33.4791 44.2438C37.6949 41.7871 33.1758 33.3554 39.3934 31.7682C40.2325 31.5559 41.2941 31.475 42.4769 31.5154Z" fill="#A65300"/>
<path d="M24.0265 48.6725C29.5877 48.6725 34.0959 44.9065 34.0959 40.261C34.0959 35.6155 29.5877 31.8496 24.0265 31.8496C18.4653 31.8496 13.957 35.6155 13.957 40.261C13.957 44.9065 18.4653 48.6725 24.0265 48.6725Z" fill="#A65300"/>
<g opacity="0.2" style="mix-blend-mode:multiply">
<path d="M25.0577 46.4485C19.4972 46.4485 14.9882 42.6876 14.9882 38.037C14.9882 37.3799 15.0893 36.7531 15.2511 36.1465C14.4322 37.3698 13.957 38.7649 13.957 40.2713C13.957 44.9118 18.466 48.6827 24.0265 48.6827C28.8084 48.6827 32.8018 45.9025 33.833 42.172C32.1042 44.7298 28.8287 46.4586 25.0577 46.4586V46.4485Z" fill="#DE7A16"/>
</g>
<path d="M20.5993 37.8852C20.3263 38.9467 19.6893 39.6948 19.1838 39.5634C18.6784 39.432 18.4964 38.4614 18.7693 37.41C19.0423 36.3485 19.6793 35.6003 20.1847 35.7318C20.6902 35.8632 20.8722 36.8337 20.5993 37.8852Z" fill="#3D2206"/>
<path d="M27.4537 37.8852C27.7266 38.9467 28.3636 39.6948 28.869 39.5634C29.3745 39.432 29.5565 38.4614 29.2836 37.41C29.0106 36.3485 28.3736 35.6003 27.8681 35.7318C27.3627 35.8632 27.1807 36.8337 27.4537 37.8852Z" fill="#3D2206"/>
<path d="M28.7377 42.4146C28.7377 42.5359 26.8168 43.6176 24.2994 43.6176C21.7821 43.6176 19.8612 42.5258 19.8612 42.4146C19.8612 42.3034 21.7821 43.193 24.2994 43.193C26.8168 43.193 28.7377 42.2933 28.7377 42.4146Z" fill="#3D2206"/>
<path d="M17.0102 30.7883C17.0102 32.0319 16.2722 33.0327 15.3623 33.0327C14.4524 33.0327 13.7144 32.0319 13.7144 30.7883C13.7144 29.5448 14.4524 28.5439 15.3623 28.5439C16.2722 28.5439 17.0102 29.5448 17.0102 30.7883Z" fill="#7A430C"/>
<path d="M16.3733 29.8683C16.4541 30.2221 16.4137 30.5254 16.2722 30.5659C16.1306 30.5962 15.9588 30.3434 15.8779 29.9896C15.797 29.6358 15.8375 29.3325 15.979 29.292C16.1205 29.2617 16.2924 29.5144 16.3733 29.8683Z" fill="#FFEFCC"/>
<path d="M34.3284 30.7883C34.3284 32.0319 33.5904 33.0327 32.6805 33.0327C31.7706 33.0327 31.0326 32.0319 31.0326 30.7883C31.0326 29.5448 31.7706 28.5439 32.6805 28.5439C33.5904 28.5439 34.3284 29.5448 34.3284 30.7883Z" fill="#7A430C"/>
<path d="M33.7015 29.8683C33.7824 30.2221 33.742 30.5254 33.6004 30.5659C33.4589 30.5962 33.287 30.3434 33.2061 29.9896C33.1252 29.6358 33.1657 29.3325 33.3073 29.292C33.4488 29.2617 33.6206 29.5144 33.7015 29.8683Z" fill="#FFEFCC"/>
<path d="M28.3332 22.6998C21.8123 22.0933 24.4813 19.4344 17.8493 20.4453C12.6325 21.2238 11.8844 16.8058 16.0295 13.3179H30.4866C35.7538 16.2598 34.571 23.2963 28.3433 22.71L28.3332 22.6998Z" fill="#A65300"/>
<path opacity="0.4" d="M31.5685 14.5513C31.5685 14.9456 29.3443 15.2691 26.5944 15.2691C23.8446 15.2691 21.6204 14.9456 21.6204 14.5513C21.6204 14.157 23.8446 13.8335 26.5944 13.8335C29.3443 13.8335 31.5685 14.157 31.5685 14.5513Z" fill="#FFE3A6"/>
<path opacity="0.4" d="M33.8129 14.4402C33.8129 14.6728 33.4389 14.8649 32.9839 14.8649C32.529 14.8649 32.1549 14.6728 32.1549 14.4402C32.1549 14.2077 32.529 14.0156 32.9839 14.0156C33.4389 14.0156 33.8129 14.2077 33.8129 14.4402Z" fill="#FFE3A6"/>
</svg>
