<svg width="52" height="52" viewBox="0 0 52 52" fill="none" xmlns="http://www.w3.org/2000/svg">
<mask id="mask0_69_3057" style="mask-type:alpha" maskUnits="userSpaceOnUse" x="2" y="2" width="48" height="48">
<circle cx="26" cy="26" r="23.4839" fill="#D9D9D9"/>
</mask>
<g mask="url(#mask0_69_3057)">
<path d="M47.0348 12.1874V43.0527C47.0348 43.1948 47.0348 43.3487 47.0112 43.479C46.798 46.7006 44.1212 49.247 40.8405 49.247H9.97525C6.69448 49.247 4.0296 46.7006 3.81641 43.479C3.79272 43.3369 3.79272 43.1829 3.79272 43.0527V12.1874C3.79272 8.76452 6.55236 6.00488 9.97525 6.00488H40.8405C44.2634 6.00488 47.0348 8.76452 47.0348 12.1874Z" fill="#FF6600"/>
<path d="M47.0229 43.8465C46.8097 47.068 44.133 49.6144 40.8523 49.6144H9.97518C6.69442 49.6144 4.02954 47.068 3.81635 43.8465C4.74017 43.5622 5.75875 43.2069 6.8247 42.816C16.5249 39.1918 18.8936 34.3595 21.369 31.6828C22.4231 30.5221 23.5128 29.7759 25.2065 29.6812C25.2301 29.6812 25.2538 29.6812 25.2657 29.6812C25.3249 29.6812 25.3604 29.6812 25.4078 29.6812C25.4552 29.6812 25.4907 29.6812 25.5499 29.6812C25.5736 29.6812 25.5973 29.6812 25.6091 29.6812C27.3502 29.7759 28.4517 30.5694 29.5413 31.7657C31.9812 34.4661 34.3973 39.2273 44.0027 42.8042C45.0687 43.2069 46.0873 43.5622 47.0111 43.8346L47.0229 43.8465Z" fill="#FFECD4"/>
<path d="M25.8343 35.6742V31.7065L25.7632 31.6472V31.1143L25.4079 31.3867L25.0526 31.1143V31.6472L24.9815 31.7065V35.6742C24.9815 39.559 20.3624 36.1835 20.3624 36.1835C20.3624 36.1835 22.3166 38.2798 23.9748 38.0548C24.7328 37.9482 25.1592 37.6521 25.4079 37.2494C25.6566 37.6521 26.083 37.9482 26.841 38.0548C28.4991 38.2798 30.4534 36.1835 30.4534 36.1835C30.4534 36.1835 25.8343 39.559 25.8343 35.6742Z" fill="#B04600"/>
<path d="M25.4552 34.4308C27.7119 34.4308 29.5414 33.0627 29.5414 31.3751C29.5414 29.6874 27.7119 28.3193 25.4552 28.3193C23.1985 28.3193 21.3691 29.6874 21.3691 31.3751C21.3691 33.0627 23.1985 34.4308 25.4552 34.4308Z" fill="#291000"/>
<path d="M3.93483 24.9082C-0.625072 15.1014 1.75555 -1.6814 1.93321 -1.9775C2.11087 -2.2736 14.4049 0.296533 15.8498 9.06103C17.2948 17.8137 6.18518 29.7405 3.93483 24.92V24.9082Z" fill="#FF6600"/>
<path d="M4.38485 17.9555C1.40019 11.5243 2.95174 0.509437 3.07018 0.319935C3.18862 0.118588 11.2543 1.81227 12.2018 7.55657C13.1493 13.3009 5.8535 21.1178 4.38485 17.9555Z" fill="#FFECD4"/>
<path d="M47.1651 24.9082C51.725 15.1014 49.3444 -1.6814 49.1667 -1.9775C48.9891 -2.2736 36.6951 0.296533 35.2501 9.06103C33.8052 17.8137 44.9147 29.7405 47.1651 24.92V24.9082Z" fill="#FF6600"/>
<path d="M46.7151 17.9555C49.6997 11.5243 48.1482 0.509437 48.0298 0.319935C47.9113 0.118588 39.8456 1.81227 38.9099 7.55657C37.9624 13.3009 45.2583 21.1178 46.7269 17.9555H46.7151Z" fill="#FFECD4"/>
<path d="M17.2592 25.5357C17.2592 26.6846 16.6078 27.6202 15.8143 27.6202C15.0207 27.6202 14.3693 26.6846 14.3693 25.5357C14.3693 24.3868 15.0207 23.4512 15.8143 23.4512C16.6078 23.4512 17.2592 24.3868 17.2592 25.5357Z" fill="#291000"/>
<path d="M16.7973 24.8599C16.8092 25.1441 16.7144 25.381 16.596 25.381C16.4775 25.381 16.3591 25.156 16.3473 24.8717C16.3354 24.5875 16.4302 24.3506 16.5486 24.3506C16.667 24.3506 16.7855 24.5756 16.7973 24.8599Z" fill="#FFDFB5"/>
<path d="M36.5411 25.5357C36.5411 26.6846 35.8897 27.6202 35.0961 27.6202C34.3026 27.6202 33.6512 26.6846 33.6512 25.5357C33.6512 24.3868 34.3026 23.4512 35.0961 23.4512C35.8897 23.4512 36.5411 24.3868 36.5411 25.5357Z" fill="#291000"/>
<path d="M36.0791 24.8599C36.091 25.1441 35.9962 25.381 35.8778 25.381C35.7593 25.381 35.6409 25.156 35.6291 24.8717C35.6172 24.5875 35.712 24.3506 35.8304 24.3506C35.9488 24.3506 36.0673 24.5756 36.0791 24.8599Z" fill="#FFDFB5"/>
<path opacity="0.5" d="M31.5548 7.56864C31.5548 8.17268 29.9085 8.65829 27.8832 8.65829C25.8579 8.65829 24.2116 8.17268 24.2116 7.56864C24.2116 6.9646 25.8579 6.479 27.8832 6.479C29.9085 6.479 31.5548 6.9646 31.5548 7.56864Z" fill="#FFCBA8"/>
<path opacity="0.5" d="M34.812 7.56854C34.812 7.95939 34.208 8.27919 33.4499 8.27919C32.6919 8.27919 32.0879 7.95939 32.0879 7.56854C32.0879 7.17769 32.6919 6.85791 33.4499 6.85791C34.208 6.85791 34.812 7.17769 34.812 7.56854Z" fill="#FFCBA8"/>
</g>
<circle cx="26" cy="26" r="25.5" stroke="black" stroke-opacity="0.5"/>
</svg>
