<svg width="47" height="47" viewBox="0 0 47 47" fill="none" xmlns="http://www.w3.org/2000/svg">
<mask id="mask0_69_2817" style="mask-type:alpha" maskUnits="userSpaceOnUse" x="0" y="0" width="47" height="47">
<circle cx="23.4839" cy="23.4839" r="23.4839" fill="#D9D9D9"/>
</mask>
<g mask="url(#mask0_69_2817)">
<path d="M37.6219 3.48389H8.34584C5.10837 3.48389 2.48389 6.36442 2.48389 9.91774V42.05C2.48389 45.6034 5.10837 48.4839 8.34584 48.4839H37.6219C40.8594 48.4839 43.4839 45.6034 43.4839 42.05V9.91774C43.4839 6.36442 40.8594 3.48389 37.6219 3.48389Z" fill="#9FAEC7"/>
<g opacity="0.2" style="mix-blend-mode:multiply">
<path d="M27.4039 33.9004C27.4039 38.4551 25.0439 38.9844 22.1324 38.9844C19.221 38.9844 16.861 38.444 16.861 33.9004C16.861 29.3568 19.221 22.5083 22.1324 22.5083C25.0439 22.5083 27.4039 29.3568 27.4039 33.9004Z" fill="#5E6775"/>
</g>
<path d="M12.8678 12.5935C14.1144 7.31183 10.8433 2.01961 5.56157 0.773019C0.279868 -0.473575 -5.01236 2.79752 -6.25895 8.07921C-7.50555 13.3609 -4.23445 18.6531 1.04725 19.8997C6.32895 21.1463 11.6212 17.8752 12.8678 12.5935Z" fill="#9FAEC7"/>
<path d="M9.80291 7.78537C6.86941 10.0572 4.82919 13.4208 4.26676 17.2696C3.95797 17.3137 3.63815 17.3358 3.30731 17.3358C-0.552559 17.3358 -3.68457 14.2038 -3.68457 10.3439C-3.68457 6.48405 -0.552559 3.35205 3.30731 3.35205C6.26286 3.35205 8.79935 5.19375 9.80291 7.78537Z" fill="#DCE7FA"/>
<g opacity="0.2" style="mix-blend-mode:multiply">
<path d="M3.30731 4.60926C5.90996 4.60926 8.18177 6.04292 9.37281 8.1493C9.51618 8.02799 9.64852 7.89565 9.80291 7.78537C8.79935 5.19375 6.26286 3.35205 3.30731 3.35205C-0.552559 3.35205 -3.68457 6.48405 -3.68457 10.3439C-3.68457 10.5535 -3.67354 10.763 -3.65149 10.9725C-3.33167 7.41043 -0.343024 4.60926 3.30731 4.60926Z" fill="#9FAEC7"/>
</g>
<path d="M50.7834 14.1152C52.8715 9.10622 50.5036 3.35286 45.4946 1.26474C40.4856 -0.823382 34.7323 1.54446 32.6442 6.55346C30.556 11.5625 32.9239 17.3158 37.9329 19.4039C42.9419 21.4921 48.6952 19.1242 50.7834 14.1152Z" fill="#9FAEC7"/>
<path d="M35.2119 7.78537C38.1454 10.0572 40.1856 13.4208 40.7481 17.2696C41.0569 17.3137 41.3767 17.3358 41.7075 17.3358C45.5674 17.3358 48.6994 14.2038 48.6994 10.3439C48.6994 6.48405 45.5674 3.35205 41.7075 3.35205C38.752 3.35205 36.2155 5.19375 35.2119 7.78537Z" fill="#DCE7FA"/>
<path d="M23.1803 39.4036C23.1803 39.0617 23.1582 38.6868 23.1582 38.2898V37.8707C23.2134 35.9408 23.4008 35.4445 23.4008 35.4445L23.1582 34.9923V33.9888L22.8825 34.485L22.6068 33.9888V34.9923L22.3642 35.4445C22.3642 35.4445 22.5517 35.9408 22.6068 37.8707V38.2898C22.6068 38.6868 22.5847 39.0617 22.5847 39.4036C22.1877 41.6644 18.5594 40.1315 18.5594 40.1315C18.5594 40.1315 20.346 41.2122 21.912 40.9806C22.3973 40.9034 22.695 40.738 22.8825 40.5175C23.07 40.749 23.3567 40.9145 23.853 40.9806C25.419 41.2122 27.2056 40.1315 27.2056 40.1315C27.2056 40.1315 23.5773 41.6644 23.1803 39.4036Z" fill="#5E6775"/>
<g opacity="0.2" style="mix-blend-mode:multiply">
<path d="M41.7075 4.60926C39.1049 4.60926 36.8331 6.04292 35.642 8.1493C35.4987 8.02799 35.3663 7.89565 35.2119 7.78537C36.2155 5.19375 38.752 3.35205 41.7075 3.35205C45.5674 3.35205 48.6994 6.48405 48.6994 10.3439C48.6994 10.5535 48.6884 10.763 48.6663 10.9725C48.3465 7.41043 45.3579 4.60926 41.7075 4.60926Z" fill="#9FAEC7"/>
</g>
<path d="M13.1336 27.6472C13.7913 27.6472 14.3246 26.8572 14.3246 25.8827C14.3246 24.9082 13.7913 24.1182 13.1336 24.1182C12.4758 24.1182 11.9425 24.9082 11.9425 25.8827C11.9425 26.8572 12.4758 27.6472 13.1336 27.6472Z" fill="#393F47"/>
<path opacity="0.5" d="M13.8943 25.1108C13.9605 25.3975 13.9164 25.6511 13.8061 25.6732C13.6958 25.6953 13.5414 25.4857 13.4863 25.21C13.4201 24.9233 13.4642 24.6696 13.5745 24.6476C13.6848 24.6255 13.8392 24.8351 13.8943 25.1108Z" fill="#9FAEC7"/>
<path d="M34.6054 25.8827C34.6054 26.8531 34.076 27.6472 33.4143 27.6472C32.7526 27.6472 32.2233 26.8642 32.2233 25.8827C32.2233 24.9012 32.7526 24.1182 33.4143 24.1182C34.076 24.1182 34.6054 24.9012 34.6054 25.8827Z" fill="#393F47"/>
<path opacity="0.5" d="M34.1753 25.1108C34.2415 25.3975 34.1974 25.6511 34.0871 25.6732C33.9768 25.6953 33.8224 25.4857 33.7673 25.21C33.7121 24.9343 33.7452 24.6696 33.8555 24.6476C33.9658 24.6255 34.1202 24.8351 34.1753 25.1108Z" fill="#9FAEC7"/>
<path d="M28.1539 32.7754C28.1539 37.3301 25.7939 37.8594 22.8824 37.8594C19.971 37.8594 17.611 37.319 17.611 32.7754C17.611 28.2318 19.971 21.3833 22.8824 21.3833C25.7939 21.3833 28.1539 28.2318 28.1539 32.7754Z" fill="#5E6775"/>
<path opacity="0.6" d="M29.1905 4.71957C29.1905 5.19378 27.6686 5.57977 25.7938 5.57977C23.919 5.57977 22.3971 5.19378 22.3971 4.71957C22.3971 4.24536 23.919 3.85938 25.7938 3.85938C27.6686 3.85938 29.1905 4.24536 29.1905 4.71957Z" fill="#CCDFFF"/>
<path opacity="0.6" d="M32.4989 4.7529C32.4989 5.1058 31.8924 5.39254 31.1314 5.39254C30.3705 5.39254 29.7639 5.1058 29.7639 4.7529C29.7639 4.4 30.3705 4.11328 31.1314 4.11328C31.8924 4.11328 32.4989 4.4 32.4989 4.7529Z" fill="#CCDFFF"/>
<path d="M11.8431 33.3372C11.8431 34.3739 11.0931 35.212 10.1668 35.212C9.24039 35.212 8.49048 34.3739 8.49048 33.3372C8.49048 32.3006 9.24039 31.4624 10.1668 31.4624C11.0931 31.4624 11.8431 32.3006 11.8431 33.3372Z" fill="#CCCCFF"/>
<path d="M35.5979 35.212C36.5237 35.212 37.2742 34.3726 37.2742 33.3372C37.2742 32.3018 36.5237 31.4624 35.5979 31.4624C34.6721 31.4624 33.9216 32.3018 33.9216 33.3372C33.9216 34.3726 34.6721 35.212 35.5979 35.212Z" fill="#CCCCFF"/>
</g>
</svg>
