<svg width="42" height="42" viewBox="0 0 42 42" fill="none" xmlns="http://www.w3.org/2000/svg">
<g clip-path="url(#clip0_69_3877)">
<mask id="mask0_69_3877" style="mask-type:luminance" maskUnits="userSpaceOnUse" x="0" y="0" width="42" height="42">
<path d="M42 0H0V42H42V0Z" fill="white"/>
</mask>
<g mask="url(#mask0_69_3877)">
<path opacity="0.4" d="M36.9075 37.625C36.9075 38.115 36.5225 38.5 36.0325 38.5H5.96753C5.47753 38.5 5.09253 38.115 5.09253 37.625C5.09253 30.38 12.2325 24.5 21 24.5C22.8025 24.5 24.5525 24.745 26.1625 25.2175C25.13 26.4425 24.5 28.035 24.5 29.75C24.5 31.0625 24.8675 32.305 25.515 33.355C25.865 33.95 26.32 34.4925 26.845 34.9475C28.07 36.0675 29.6975 36.75 31.5 36.75C33.46 36.75 35.2275 35.945 36.4875 34.65C36.7675 35.595 36.9075 36.5925 36.9075 37.625Z" fill="#E63D4F"/>
<path d="M38.29 28.0696C38.115 27.3871 37.835 26.7046 37.45 26.0921C37.1875 25.6371 36.8375 25.1996 36.4525 24.7971C35.1925 23.5371 33.5475 22.8546 31.8675 22.7671C29.96 22.6446 28.0175 23.3446 26.5475 24.7971C25.165 26.1796 24.465 28.0171 24.5 29.8546C24.5175 31.6046 25.2175 33.3546 26.5475 34.7021C27.475 35.6296 28.6125 36.2421 29.82 36.5221C30.485 36.6971 31.185 36.7671 31.885 36.7146C33.5475 36.6446 35.175 35.9796 36.4525 34.7021C38.255 32.8996 38.8675 30.3621 38.29 28.0696ZM34.3 32.5496C33.7925 33.0571 32.9525 33.0571 32.445 32.5496L31.4825 31.5871L30.555 32.5146C30.0475 33.0221 29.2075 33.0221 28.7 32.5146C28.1925 31.9896 28.1925 31.1671 28.7 30.6596L29.6275 29.7321L28.735 28.8571C28.2275 28.3321 28.2275 27.5096 28.735 26.9846C29.26 26.4771 30.0825 26.4771 30.6075 26.9846L31.4825 27.8771L32.41 26.9496C32.9175 26.4421 33.74 26.4421 34.265 26.9496C34.7725 27.4571 34.7725 28.2971 34.265 28.8046L33.3375 29.7321L34.3 30.6946C34.8075 31.2021 34.8075 32.0421 34.3 32.5496Z" fill="#E63D4F"/>
<path d="M21 21C25.8324 21 29.75 17.0825 29.75 12.25C29.75 7.41752 25.8324 3.5 21 3.5C16.1675 3.5 12.25 7.41752 12.25 12.25C12.25 17.0825 16.1675 21 21 21Z" fill="#E63D4F"/>
</g>
</g>
<defs>
<clipPath id="clip0_69_3877">
<rect width="42" height="42" fill="white"/>
</clipPath>
</defs>
</svg>
