<svg width="23" height="24" viewBox="0 0 23 24" fill="none" xmlns="http://www.w3.org/2000/svg">
<path opacity="0.987" fill-rule="evenodd" clip-rule="evenodd" d="M10.1279 0.103247C11.3601 -0.0344158 12.0892 -0.0344158 13.4131 0.103247C15.7567 0.450116 17.9292 1.53339 19.6165 3.19642C18.4763 4.27416 17.3511 5.36764 16.2412 6.47654C14.1156 4.67502 11.7431 4.2592 9.12349 5.22908C7.20187 6.11284 5.86376 7.54499 5.10916 9.52553C3.87604 8.60748 2.65898 7.66806 1.45853 6.70768C1.37511 6.66377 1.27982 6.64769 1.18661 6.66179C3.0935 2.98511 6.07337 0.798361 10.1262 0.101548" fill="#F44336"/>
<path opacity="0.997" fill-rule="evenodd" clip-rule="evenodd" d="M1.18331 6.66179C1.27962 6.64706 1.37083 6.66236 1.45694 6.70768C2.65738 7.66806 3.87444 8.60748 5.10756 9.52553C4.91352 10.2972 4.7912 11.0852 4.74216 11.8794C4.78408 12.6476 4.90589 13.4016 5.10756 14.1415L1.27509 17.1922C-0.393866 13.7047 -0.424458 10.1946 1.18331 6.66179Z" fill="#FFC107"/>
<path opacity="0.999" fill-rule="evenodd" clip-rule="evenodd" d="M19.4345 20.887C18.2412 19.8346 16.9919 18.8475 15.6921 17.9298C16.9951 17.0098 17.7859 15.7476 18.0647 14.1432H11.6795V9.70912C15.3618 9.67853 19.0425 9.70969 22.7214 9.8026C23.4194 13.5926 22.6132 17.0098 20.303 20.0543C20.0283 20.3463 19.7373 20.6242 19.4345 20.887Z" fill="#448AFF"/>
<path opacity="0.993" fill-rule="evenodd" clip-rule="evenodd" d="M5.10743 14.1431C6.50106 17.6067 9.05604 19.2236 12.7724 18.9936C13.8156 18.8728 14.8158 18.5084 15.6922 17.9297C16.9929 18.8497 18.2404 19.8354 19.4346 20.8869C17.5424 22.5872 15.1298 23.5961 12.5905 23.7489C12.0136 23.795 11.4339 23.795 10.857 23.7489C6.53109 23.239 3.33707 21.0534 1.27496 17.1921L5.10743 14.1431Z" fill="#43A047"/>
</svg>
