<svg width="72" height="138" viewBox="0 0 72 138" fill="none" xmlns="http://www.w3.org/2000/svg">
<g clip-path="url(#clip0_92_880)">
<path d="M8.47777 27.988C14.85 29.7567 17.2715 35.2689 18.1527 38.4381C18.465 39.5626 20.243 40.2282 21.7092 39.7593L27.4005 37.9317C28.0258 37.7348 28.4833 37.3557 28.6564 36.8867C29.0013 35.9685 29.3179 34.7376 29.486 33.3359C29.9828 29.2405 29.2655 23.7271 24.5861 20.5431C19.5622 17.1245 11.4206 22.6001 7.54801 25.6575C6.6037 26.4035 7.09143 27.6004 8.47777 27.988Z" fill="#8B5E3C"/>
<path d="M29.486 33.3359C29.9828 29.2406 29.2654 23.7272 24.5861 20.5431C19.61 17.1579 11.5893 22.4816 7.68604 25.5469C7.47397 25.7126 7.80778 25.9564 8.05766 25.8235C12.9071 23.2755 23.2543 19.9488 29.486 33.3359Z" fill="#6E4A2F"/>
<path d="M3.26157 102.616C9.81784 101.751 12.9827 96.6292 14.2961 93.6135C14.7619 92.5433 16.6151 92.1315 18.0019 92.7999L23.3836 95.4014C23.9754 95.6834 24.3757 96.1224 24.4819 96.611C24.6957 97.5682 24.838 98.8312 24.8095 100.243C24.7317 104.367 23.2544 109.727 18.1776 112.229C12.727 114.916 5.42627 108.361 2.01664 104.794C1.18529 103.924 1.83478 102.807 3.26157 102.616Z" fill="#8B5E3C"/>
<path d="M24.8102 100.233C24.7324 104.357 23.2551 109.717 18.1783 112.219C12.7796 114.879 5.57751 108.492 2.13865 104.913C1.95169 104.72 2.31618 104.525 2.54513 104.691C6.99298 107.889 16.7767 112.623 24.8102 100.233Z" fill="#6E4A2F"/>
<path d="M96.9877 11.8602C96.9877 11.8602 104.338 8.24388 107.446 15.9794C109.445 20.9409 112.667 31.6316 105.274 40.4576C101.139 45.4013 93.667 49.7609 80.765 52.2072L68.328 50.2954L55.0673 48.2658C55.0673 48.2658 71.4314 43.1845 75.3097 31.727C77.2163 26.1063 70.2455 20.5668 61.8269 20.9707C59.483 21.0876 57.1721 21.307 55.2284 21.7225C54.1807 21.94 53.1892 21.209 53.6092 20.5066C54.5864 18.8608 56.3846 16.5104 59.3523 14.7831C61.6095 13.4673 64.8995 13.2963 67.5921 14.3566L73.2033 16.5432C73.2033 16.5432 71.4983 1.06664 82.6185 8.049C82.6185 8.049 94.3061 0.746163 96.9777 11.8595L96.9877 11.8602Z" fill="#8B5E3C"/>
<path d="M105.284 40.4583C101.149 45.402 93.6769 49.7616 80.775 52.208L68.338 50.2961C63.3564 48.4242 60.0349 47.0393 60.0349 47.0393C60.0349 47.0393 75.8108 35.6014 88.1048 34.3957C94.0502 33.8088 100.487 36.3739 105.283 40.4683L105.284 40.4583Z" fill="#6E4A2F"/>
<path d="M73.6189 85.8909C82.4757 86.8207 93.0121 88.9606 99.9047 93.7528C103.758 96.428 106.579 99.0912 108.614 101.519C113.946 107.856 114.067 112.716 114.067 112.716C108.428 112.653 102.033 109.921 101.673 109.765C110.463 116.234 111.892 124.323 111.892 124.323C99.6665 121.113 96.0855 118.276 95.8772 118.101C100.261 126.237 96.4247 134.219 96.4247 134.219C78.1624 127.018 65.7005 104.093 60.3369 92.3405C59.8508 91.264 59.4176 90.2914 59.0571 89.4241C57.936 86.8196 57.3644 85.2459 57.3644 85.2459C57.3644 85.2459 64.6325 84.952 73.6289 85.8916L73.6189 85.8909Z" fill="#8B5E3C"/>
<path d="M73.6189 85.891C82.4757 86.8208 93.0121 88.9606 99.9047 93.7529C103.758 96.4281 106.579 99.0912 108.614 101.519C104.096 106.787 96.6146 108.269 87.7634 107.69C77.3852 107.015 65.5061 97.1226 60.3262 92.3498C59.8401 91.2733 59.4069 90.3007 59.0465 89.4335C61.4793 88.7615 67.0037 87.3132 73.6183 85.9009L73.6189 85.891Z" fill="#6E4A2F"/>
<path d="M106.623 41.384C108.159 42.3435 109.514 43.4707 110.648 44.7428C115.845 50.5693 119.83 59.529 118.874 73.2056C117.918 86.8823 112.974 94.7968 107.196 99.8663C105.797 101.102 104.151 102.129 102.351 102.926L102.341 102.925C94.3812 106.519 83.2237 105.95 75.4196 101.003L57.6997 89.7705L60.4376 69.1011L60.6017 48.2518L79.7219 39.5939C88.0763 35.8072 99.2599 36.7192 106.614 41.3633L106.623 41.384Z" fill="#CAA77C"/>
<path d="M62.8269 59.5845L61.4777 78.8874C61.4777 78.8874 74.1287 90.7884 79.3295 84.0747C79.3295 84.0747 87.3432 86.3089 85.7386 80.5831C85.7386 80.5831 93.8276 81.7399 92.2843 75.1363C92.2843 75.1363 96.591 75.0463 96.8274 71.6646L96.8074 71.6632L96.8281 71.6546C97.0645 68.2729 92.8121 67.5847 92.8121 67.5847C95.2591 61.2599 87.0878 61.2802 87.0878 61.2802C89.4734 55.8333 81.2268 56.9309 81.2268 56.9309C77.0112 49.549 62.8269 59.5845 62.8269 59.5845Z" fill="#DBC19E"/>
<path opacity="0.29" d="M61.4902 92.1907L64.6885 46.4323C64.6885 46.4323 80.7156 67.9722 61.4902 92.1907Z" fill="#8B5E3C"/>
<path d="M67.7184 69.6299C69.4139 45.372 56.6036 24.7156 39.1057 23.4926C21.6079 22.2696 6.04854 40.943 4.353 65.2009C2.65746 89.4589 15.4678 110.115 32.9657 111.338C50.4635 112.561 66.0229 93.8879 67.7184 69.6299Z" fill="#8B5E3C"/>
<path d="M55.0302 90.8168C55.8778 78.6906 47.3733 68.2179 36.035 67.4254C24.6966 66.6329 14.818 75.8207 13.9704 87.9469C13.1228 100.073 21.6273 110.546 32.9656 111.338C44.304 112.131 54.1826 102.943 55.0302 90.8168Z" fill="#DBC19E"/>
<path d="M58.1003 46.894C58.9479 34.7678 50.4434 24.2951 39.1051 23.5026C27.7667 22.7101 17.888 31.8978 17.0405 44.024C16.1929 56.1502 24.6974 66.6229 36.0357 67.4154C47.3741 68.2079 57.2527 59.0202 58.1003 46.894Z" fill="#DBC19E"/>
<path d="M31.5457 74.4295C36.1345 74.7502 39.5772 78.9906 39.2335 83.9086C38.8897 88.8266 34.8906 92.5468 30.3018 92.2261C25.713 91.9053 22.2703 87.665 22.614 82.747C22.9578 77.829 26.9569 74.1088 31.5457 74.4295Z" fill="#FFF4C7"/>
<path d="M33.1393 42.0218C37.7281 42.3425 41.1708 46.5829 40.827 51.5009C40.4833 56.4189 36.4842 60.1391 31.8954 59.8184C27.3066 59.4976 23.8638 55.2573 24.2076 50.3393C24.5513 45.4213 28.5505 41.7011 33.1393 42.0218Z" fill="#FFF4C7"/>
<path d="M31.3979 89.1651C31.3979 89.1651 30.6068 89.0096 29.6731 88.3128C29.4556 88.1272 29.1881 87.9381 28.9647 87.6919C28.7307 87.455 28.5001 87.1682 28.2916 86.8529C28.0624 86.5462 27.9079 86.1745 27.7428 85.8121C27.6197 85.4226 27.4666 85.0309 27.4268 84.5971L27.3609 83.961C27.3756 83.7515 27.3909 83.532 27.4056 83.3225C27.4149 82.9022 27.5825 82.5129 27.6888 82.1394C27.8057 81.7566 28.0368 81.462 28.2088 81.1533C28.3708 80.8438 28.6462 80.6325 28.8418 80.4156C29.2336 79.9718 29.69 79.7531 29.9726 79.5824C30.2744 79.4231 30.4496 79.3551 30.4496 79.3551C30.4496 79.3551 30.3958 79.5518 30.2936 79.8655C30.2426 80.0223 30.1795 80.2084 30.0957 80.403C30.0019 80.5969 29.9646 80.8449 29.878 81.0795C29.8207 81.3261 29.6942 81.5578 29.6647 81.8364C29.6259 82.1044 29.5173 82.3674 29.5184 82.6382C29.5089 82.9182 29.4402 83.1841 29.4606 83.4662C29.4608 83.6065 29.471 83.7476 29.4612 83.8872L29.5224 84.3025C29.5228 84.5832 29.6437 84.8623 29.684 85.1458C29.7849 85.4235 29.8352 85.7077 29.9567 85.9769C30.0576 86.2546 30.1592 86.5223 30.2714 86.7808C30.373 87.0485 30.4966 87.2877 30.5903 87.5248C31.037 88.4482 31.378 89.1637 31.378 89.1637L31.3979 89.1651Z" fill="#533723"/>
<path d="M36.0994 88.1604C36.0994 88.1604 35.5028 87.9483 34.7843 87.3267C34.4248 87.0209 34.0423 86.6132 33.706 86.1186C33.5538 85.8573 33.371 85.604 33.2516 85.3049C33.1321 85.0059 33.0027 84.7061 32.9346 84.3906C32.8465 84.0737 32.8189 83.751 32.7813 83.4276C32.7232 83.1127 32.806 82.7877 32.807 82.4871C32.8279 82.1878 32.9279 81.9041 32.9867 81.6375C33.0354 81.3703 33.1719 81.1392 33.267 80.9253C33.438 80.4862 33.6905 80.173 33.8462 79.9534C34.0119 79.7344 34.1 79.6202 34.1 79.6202C34.1 79.6202 34.0596 79.7678 34.0009 80.0343C33.9619 80.1619 33.9208 80.3195 33.8684 80.4962C33.8067 80.6623 33.792 80.8718 33.7368 81.0885C33.7015 81.3066 33.6256 81.5318 33.6181 81.7819C33.6007 82.0313 33.5526 82.2886 33.5644 82.55C33.5862 82.8122 33.5567 83.0908 33.6077 83.365C33.6388 83.6379 33.6691 83.9207 33.7607 84.1877C33.8727 84.7368 34.1172 85.2552 34.3445 85.7322C34.6024 86.2013 34.8724 86.6412 35.128 86.9999C35.6492 87.718 36.0681 88.1783 36.0681 88.1783L36.0994 88.1604Z" fill="#8B5E3C"/>
<path d="M32.51 49.877C35.3957 50.4696 37.3779 51.9414 36.933 53.1433C36.4874 54.3552 33.7965 54.8488 30.9115 54.2462C28.0258 53.6535 26.0436 52.1817 26.4885 50.9798C26.9341 49.7679 29.625 49.2744 32.51 49.877Z" fill="#533723"/>
<path d="M41.167 61.4086L48.8286 67.2471C49.676 67.8877 49.6083 68.8553 48.6801 69.3719L40.2808 74.0877C39.5818 74.4799 38.828 74.5074 38.1636 74.2605C37.1763 73.9008 36.441 72.9472 36.5233 71.7701L37.1243 63.171C37.2066 61.9939 38.0667 61.1619 39.0852 60.9323C39.7775 60.7802 40.53 60.913 41.1677 61.3987L41.167 61.4086Z" fill="#E3A524"/>
<path d="M39.0845 60.9423L46.9757 66.9371C47.9558 67.6873 47.8763 68.8245 46.8021 69.421L38.1636 74.2605C37.1763 73.9008 36.441 72.9472 36.5233 71.77L37.1243 63.171C37.2066 61.9939 38.0667 61.1618 39.0852 60.9323L39.0845 60.9423Z" fill="#F9BF12"/>
<path d="M40.0112 68.7659C41.1285 68.4129 42.25 68.4312 42.5242 68.8112C42.7983 69.1912 42.116 69.7751 40.9986 70.128C39.8813 70.481 38.7598 70.4628 38.4857 70.0827C38.2115 69.7027 38.8939 69.1188 40.0012 68.7652L40.0112 68.7659Z" fill="#FECD5B"/>
<path d="M18.0374 88.562C18.0374 88.562 17.9889 88.5386 17.9019 88.4924C17.8149 88.4462 17.6802 88.3666 17.5268 88.2657C17.2102 88.0631 16.7801 87.7624 16.2893 87.3271C16.0438 87.1095 15.7905 86.8612 15.55 86.5737C15.2881 86.3048 15.0724 85.9489 14.8261 85.6009C14.6317 85.2264 14.3775 84.8478 14.2486 84.3977C14.0683 83.9641 13.97 83.5061 13.8838 83.0189C13.7869 82.541 13.8303 82.0629 13.8146 81.5706C13.8773 81.1038 13.9307 80.6264 14.0312 80.1923C14.1617 79.7603 14.3007 79.349 14.4184 78.9563C14.5845 78.587 14.7486 78.2476 14.9013 77.9275C15.0447 77.5967 15.2039 77.3271 15.3603 77.0974C15.5167 76.8678 15.6417 76.656 15.7534 76.4934C15.9773 76.1582 16.1009 75.9663 16.1009 75.9663C16.6611 75.1233 17.7907 74.8815 18.6437 75.4424C19.4867 76.0025 19.7285 77.1321 19.1677 77.9851C19.0895 78.0999 19.002 78.2041 18.9152 78.2982L18.7971 78.4103C18.7971 78.4103 18.6683 78.5316 18.4528 78.7471C18.3354 78.8491 18.2059 78.9804 18.0451 79.1296C17.8744 79.278 17.7122 79.4471 17.5572 79.6569C17.3929 79.8559 17.2172 80.0742 17.0302 80.3117C16.8824 80.562 16.7239 80.8216 16.5647 81.0911C16.4248 81.3721 16.3341 81.6665 16.1927 81.9673C16.1412 82.2745 16.0184 82.5967 16.0154 82.9273C15.9924 83.2565 15.9687 83.5957 16.0354 83.9311C16.0516 84.2731 16.1697 84.5921 16.2471 84.9183C16.3758 85.228 16.4739 85.5457 16.6446 85.8282C16.7847 86.1187 16.9476 86.3707 17.1111 86.6127C17.7659 87.5707 18.3836 88.0549 18.3836 88.0549C18.5163 88.1644 18.543 88.3568 18.4334 88.4894C18.3346 88.6129 18.1722 88.6416 18.0467 88.5727L18.0374 88.562Z" fill="#533723"/>
<path d="M19.4923 45.0875C19.4923 45.0875 18.7039 45.3231 17.6297 45.9197C17.1072 46.224 16.5001 46.5926 15.9543 47.0857C15.6683 47.3063 15.4272 47.6002 15.1583 47.8621C14.9464 48.1681 14.6675 48.4293 14.5042 48.7587L14.2313 49.2208C14.1596 49.3862 14.0978 49.5523 14.0368 49.7084C13.8848 50.0185 13.8312 50.3556 13.759 50.6714C13.6576 50.975 13.6944 51.3084 13.6649 51.587C13.6247 51.8749 13.685 52.1598 13.7068 52.422C13.7485 52.6855 13.7232 52.9043 13.8083 53.1208C13.8635 53.3351 13.9108 53.5189 13.9509 53.662C14.0205 53.9576 14.0685 54.1314 14.0685 54.1314L14.1165 54.3051C14.3588 55.2844 13.7576 56.2849 12.7783 56.5272C11.799 56.7695 10.7985 56.1683 10.5562 55.189C10.5247 55.0665 10.5045 54.9248 10.5029 54.8044C10.5029 54.8044 10.5004 54.5536 10.4805 54.1212C10.4759 53.9003 10.474 53.6395 10.465 53.3382C10.4453 53.0461 10.5103 52.6898 10.5568 52.3121C10.6132 51.9351 10.6411 51.5361 10.7808 51.1148C10.9205 50.6935 10.9918 50.2474 11.232 49.8231C11.4322 49.396 11.6339 48.949 11.9325 48.5488C12.0769 48.3484 12.2119 48.1373 12.3655 47.9476L12.8641 47.411C13.1806 47.0422 13.5899 46.7801 13.9421 46.4739C14.33 46.2304 14.7001 45.9555 15.0838 45.7718C15.8349 45.3532 16.584 45.1048 17.2199 44.8986C18.489 44.5262 19.3852 44.4686 19.3852 44.4686C19.5661 44.4612 19.7181 44.582 19.7255 44.763C19.735 44.914 19.6461 45.0381 19.5023 45.0882L19.4923 45.0875Z" fill="#533723"/>
<path d="M42.471 13.3527L50.7605 16.0873L42.2414 14.1987L42.471 13.3527Z" fill="#5F462B"/>
<path d="M49.4624 8.12747L54.1575 13.6683L48.8285 8.73475L49.4624 8.12747Z" fill="#5F462B"/>
<path d="M41.2469 19.823L49.9129 19.0353L41.3665 20.6935L41.2469 19.823Z" fill="#5F462B"/>
</g>
<defs>
<clipPath id="clip0_92_880">
<rect width="127.79" height="143.34" fill="white" transform="translate(0 127.479) rotate(-86.0017)"/>
</clipPath>
</defs>
</svg>
