<svg width="20" height="20" viewBox="0 0 20 20" fill="none" xmlns="http://www.w3.org/2000/svg">
<path fill-rule="evenodd" clip-rule="evenodd" d="M13.5667 9.55837C13.6837 9.67556 13.7495 9.83441 13.7495 10C13.7495 10.1657 13.6837 10.3245 13.5667 10.4417L7.31667 16.6917C7.19819 16.8021 7.04149 16.8622 6.87957 16.8593C6.71765 16.8565 6.56316 16.7909 6.44865 16.6764C6.33414 16.5619 6.26855 16.4074 6.26569 16.2455C6.26284 16.0836 6.32294 15.9268 6.43334 15.8084L12.2417 10L6.43334 4.1917C6.32294 4.07322 6.26284 3.91652 6.26569 3.7546C6.26855 3.59268 6.33414 3.43819 6.44865 3.32368C6.56316 3.20917 6.71765 3.14358 6.87957 3.14072C7.04149 3.13787 7.19819 3.19797 7.31667 3.30837L13.5667 9.55837Z" fill="white"/>
</svg>
