<svg width="113" height="225" viewBox="0 0 113 225" fill="none" xmlns="http://www.w3.org/2000/svg">
<g clip-path="url(#clip0_92_820)">
<path d="M-41.2514 179.109C-23.0527 194.478 -6.20839 204.46 -3.6285 201.405C-1.0486 198.351 -13.7101 183.415 -31.9087 168.046C-50.1074 152.677 -66.9517 142.695 -69.5316 145.75C-72.1115 148.805 -59.45 163.74 -41.2514 179.109Z" fill="#BAD6CC"/>
<path d="M-0.500943 90.0161L-18.7088 103.579C-28.3136 102.104 -35.4596 99.5767 -40.7897 96.6199C-56.8705 87.6861 -56.2903 74.7861 -56.2903 74.7861C-52.1128 73.6675 -49.6991 74.4362 -49.6991 74.4362C-54.3444 67.9871 -53.2997 55.126 -53.2997 55.126L-45.9114 60.5278C-48.1426 52.832 -43.9711 39.1822 -43.9711 39.1822C-38.3832 43.4301 -36.8657 48.4682 -36.703 49.0505C-38.8783 34.779 -31.7229 20.2461 -31.7229 20.2461C-26.9003 23.6644 -25.8678 31.7876 -25.8121 32.2796C-25.3337 20.4455 -16.3875 5.6055 -16.3875 5.6055C-9.07584 16.2436 -14.2498 38.2876 -14.2498 38.2876C-17.1401 51.2262 -16.5391 61.3017 -14.4653 68.9824C-10.3666 84.1845 -0.515038 90.0173 -0.515038 90.0173L-0.500943 90.0161Z" fill="#8B5E3C"/>
<path d="M-0.500945 90.0162L-18.7088 103.579C-28.3136 102.104 -35.4596 99.5768 -40.7897 96.62C-32.5942 82.2194 -21.7565 73.571 -14.4512 68.9813C-10.3525 84.1834 -0.500945 90.0162 -0.500945 90.0162Z" fill="#6E4A2F"/>
<path d="M15.9175 103.882L5.59421 124.103C8.65661 133.325 12.3443 139.947 16.1517 144.707C27.6515 159.066 40.2723 156.334 40.2723 156.334C40.6757 152.028 39.5138 149.777 39.5138 149.777C46.6495 153.277 59.1543 150.094 59.1543 150.094L52.5918 143.715C60.5525 144.626 73.3114 138.228 73.3114 138.228C68.1879 133.43 62.9669 132.778 62.3656 132.715C76.7998 132.47 89.9362 122.975 89.9362 122.975C85.7588 118.793 77.5774 119.135 77.083 119.162C88.6636 116.717 101.803 105.405 101.803 105.405C90.0909 99.9777 69.2242 108.769 69.2242 108.769C56.952 113.785 46.9181 114.879 38.9987 114.12C23.3249 112.624 15.9252 103.888 15.9252 103.888L15.9175 103.882Z" fill="#8B5E3C"/>
<path d="M15.9175 103.882L5.59422 124.103C8.65661 133.325 12.3442 139.948 16.1517 144.707C28.9771 134.217 35.6891 122.084 38.991 114.114C23.3173 112.618 15.9175 103.882 15.9175 103.882Z" fill="#6E4A2F"/>
<path d="M73.8061 76.6701C68.6166 80.7692 62.7379 79.4694 59.6597 78.3097C58.5677 77.8979 56.9808 78.94 56.4937 80.4003L54.6089 86.0729C54.3986 86.6938 54.4344 87.2868 54.7108 87.7035C55.2483 88.5239 56.0549 89.5062 57.087 90.4694C60.0992 93.2881 64.9728 95.9641 70.3053 94.0669C76.0305 92.0303 76.4175 82.2262 76.236 77.2955C76.1914 76.0929 74.9374 75.78 73.8061 76.6701Z" fill="#8B5E3C"/>
<path d="M57.087 90.4696C60.0992 93.2883 64.9728 95.9643 70.3053 94.0671C75.9753 92.0493 76.4136 82.4325 76.2438 77.4724C76.2353 77.2035 75.8414 77.329 75.8012 77.6091C74.9948 83.0276 71.5712 93.343 57.087 90.4696Z" fill="#6E4A2F"/>
<path d="M16.6508 28.4022C13.4783 34.2046 15.7439 39.7828 17.4026 42.6233C17.9913 43.631 17.2296 45.3699 15.8715 46.0947L10.5945 48.9026C10.0175 49.2137 9.42686 49.2777 8.96981 49.075C8.07099 48.6824 6.96758 48.0516 5.84517 47.1954C2.56198 44.6975 -0.892126 40.3407 0.0855331 34.7659C1.13503 28.7805 10.7359 26.7577 15.6274 26.1112C16.8205 25.9539 17.339 27.1378 16.6508 28.4022Z" fill="#8B5E3C"/>
<path d="M5.85281 47.2017C2.56962 44.7039 -0.884483 40.3471 0.093176 34.7722C1.13333 28.8444 10.541 26.8024 15.4595 26.1395C15.7261 26.1028 15.6683 26.5121 15.3989 26.5987C10.1919 28.3008 0.595108 33.4029 5.85281 47.2017Z" fill="#6E4A2F"/>
<path d="M-10.7032 142.146C-11.6451 144.61 -14.846 152.6 -11.3411 156.044C-11.009 156.364 -10.3481 156.124 -9.98215 155.582C-8.50392 153.336 -5.14862 148.355 -6.02258 150.614C-6.26744 151.245 -6.24228 154.827 -4.53738 156.869C-4.19052 157.279 -3.39218 156.985 -3.05225 156.304C-2.1221 154.458 -0.593751 151.207 -0.779793 150.094C-0.779793 150.094 -0.264033 155.792 3.56776 157.81C3.93143 158 4.48086 157.783 4.80924 157.301C5.63545 156.075 6.99247 153.569 6.57338 150.702C6.57338 150.702 7.441 154.681 10.7468 155.68C11.1404 155.803 11.6827 155.501 11.9535 155.01C13.0861 152.956 15.2779 147.137 10.5057 138.172C10.3881 137.955 10.1595 137.854 9.88007 137.906C7.24975 138.355 -6.40966 140.72 -9.73219 141.291C-10.1309 141.36 -10.5339 141.713 -10.6956 142.152L-10.7032 142.146Z" fill="#8B5E3C"/>
<path d="M26.6565 106.773L9.92518 94.3317L-5.14145 79.9193L-24.6627 87.5825C-35.2058 91.7284 -43.4182 103.824 -42.4972 113.908C-41.8087 121.571 -38.0871 130.447 -27.8647 139.08C-17.6424 147.712 -7.81362 149.992 -0.0354242 149.244C9.8824 148.287 20.0909 138.152 22.363 127.309L26.6565 106.773Z" fill="#CAA77C"/>
<path d="M16.2098 101.877L1.4263 89.3925C1.4263 89.3925 -15.6482 92.5775 -13.2997 100.739C-13.2997 100.739 -19.834 105.888 -14.2652 107.973C-14.2652 107.973 -19.9744 113.819 -13.7332 116.472C-13.7332 116.472 -16.2032 120.001 -13.6133 122.189L-13.6003 122.173L-13.6056 122.195C-11.0156 124.382 -7.94972 121.356 -7.94972 121.356C-4.28939 127.065 0.518309 120.458 0.518309 120.458C3.50632 125.599 7.48889 118.295 7.48889 118.295C15.9358 119.251 16.2098 101.877 16.2098 101.877Z" fill="#DBC19E"/>
<path opacity="0.29" d="M-9.31091 81.5552L25.734 111.151C25.734 111.151 -1.11349 111.37 -9.31091 81.5552Z" fill="#8B5E3C"/>
<path d="M5.22161 99.9011C23.8 115.591 48.0353 117.446 59.3526 104.045C70.67 90.6438 64.7837 67.0611 46.2053 51.3715C27.6269 35.6818 3.39164 33.8266 -7.9257 47.2277C-19.243 60.6288 -13.3568 84.2115 5.22161 99.9011Z" fill="#8B5E3C"/>
<path d="M-4.38836 77.1522C4.89873 84.9952 18.3724 84.3137 25.7058 75.63C33.0393 66.9463 31.4556 53.5487 22.1685 45.7057C12.8814 37.8627 -0.592237 38.5442 -7.9257 47.2279C-15.2592 55.9116 -13.6754 69.3091 -4.38836 77.1522Z" fill="#DBC19E"/>
<path d="M29.2508 105.561C38.5379 113.404 52.0115 112.722 59.345 104.038C66.6785 95.3547 65.0947 81.9572 55.8076 74.1141C46.5205 66.2711 33.0469 66.9526 25.7135 75.6363C18.38 84.32 19.9637 97.7176 29.2508 105.561Z" fill="#DBC19E"/>
<path d="M11.761 68.801C15.5248 71.9795 20.9822 71.7069 23.9505 68.1921C26.9188 64.6773 26.274 59.2512 22.5102 56.0727C18.7464 52.8941 13.289 53.1667 10.3207 56.6815C7.35237 60.1964 7.99723 65.6224 11.761 68.801Z" fill="#FFF4C7"/>
<path d="M34.7805 88.2412C38.5443 91.4197 44.0017 91.1471 46.97 87.6323C49.9383 84.1174 49.2935 78.6914 45.5297 75.5128C41.7659 72.3343 36.3085 72.6069 33.3402 76.1217C30.3719 79.6366 31.0167 85.0626 34.7805 88.2412Z" fill="#FFF4C7"/>
<path d="M42.0425 83.2222C39.8606 85.2015 37.5024 85.9325 36.7949 84.8638C36.0799 83.7887 37.2701 81.3254 39.4597 79.3525C41.6417 77.3733 43.9999 76.6423 44.7073 77.7109C45.4224 78.786 44.2321 81.2494 42.0425 83.2222Z" fill="#533723"/>
<path d="M15.5086 60.8142C13.9226 63.2967 13.5967 65.744 14.7687 66.2625C15.9483 66.7876 18.1776 65.2017 19.7561 62.7127C21.3421 60.2302 21.668 57.7829 20.496 57.2644C19.3164 56.7393 17.087 58.3252 15.5086 60.8142Z" fill="#533723"/>
<path d="M27.5477 83.3373L18.3122 86.0743C17.2948 86.3801 16.5537 85.7542 16.6848 84.7001L17.8372 75.1366C17.9333 74.3409 18.3561 73.7163 18.9476 73.3258C19.8209 72.7412 21.0246 72.7107 21.9262 73.4721L28.5119 79.0338C29.4134 79.7951 29.5772 80.9806 29.1612 81.9381C28.8753 82.5867 28.3238 83.1157 27.5553 83.3437L27.5477 83.3373Z" fill="#E3A524"/>
<path d="M29.1459 81.9253L19.6486 84.7554C18.4645 85.1036 17.5935 84.368 17.7462 83.1488L18.94 73.3194C19.8132 72.7348 21.017 72.7043 21.9185 73.4657L28.5043 79.0274C29.4058 79.7887 29.5696 80.9742 29.1536 81.9317L29.1459 81.9253Z" fill="#F9BF12"/>
<path d="M22.2841 78.0543C21.9093 79.1645 21.2325 80.0589 20.7639 80.0558C20.2953 80.0528 20.2269 79.1573 20.5952 78.0547C20.97 76.9445 21.6468 76.0501 22.1154 76.0532C22.584 76.0563 22.6524 76.9517 22.2841 78.0543Z" fill="#FECD5B"/>
<path d="M0.512228 106.159C0.512228 106.159 0.618325 106.576 0.786221 107.137C0.974661 107.689 1.26072 108.388 1.77023 108.792C2.003 109.028 2.31845 109.151 2.61981 109.274C2.78603 109.31 2.93935 109.361 3.09147 109.398C3.24886 109.413 3.40744 109.442 3.54428 109.466C3.83325 109.527 4.08691 109.506 4.26722 109.54C4.44634 109.56 4.56146 109.579 4.56146 109.579C4.56146 109.579 4.46638 109.63 4.30321 109.714C4.13121 109.779 3.8947 109.919 3.57941 109.967C3.41913 110.002 3.24476 110.038 3.06156 110.053C2.86954 110.048 2.66342 110.044 2.45611 110.026C2.24643 109.98 2.02266 109.935 1.80941 109.847C1.60788 109.729 1.38055 109.641 1.20245 109.465C1.01909 109.31 0.867983 109.117 0.738614 108.929C0.609245 108.741 0.527422 108.528 0.453234 108.322C0.312498 107.915 0.286872 107.527 0.295373 107.207C0.318828 106.559 0.519869 106.166 0.519869 106.166L0.512228 106.159Z" fill="#F3E7B2"/>
<path d="M5.2567 110.166C5.2567 110.166 5.3628 110.583 5.53069 111.144C5.71913 111.696 6.0052 112.395 6.5147 112.799C6.74747 113.035 7.06292 113.158 7.36429 113.281C7.5305 113.317 7.68382 113.368 7.83594 113.405C7.99333 113.42 8.15191 113.449 8.28876 113.473C8.57773 113.534 8.83139 113.512 9.0117 113.547C9.19082 113.567 9.30593 113.586 9.30593 113.586C9.30593 113.586 9.21085 113.636 9.04768 113.721C8.87569 113.785 8.63918 113.926 8.32389 113.974C8.16361 114.009 7.98924 114.045 7.80604 114.06C7.61402 114.055 7.40789 114.051 7.20059 114.033C6.9909 113.987 6.76713 113.942 6.55389 113.853C6.35236 113.736 6.12502 113.648 5.94692 113.472C5.76356 113.317 5.61246 113.124 5.48309 112.936C5.35373 112.748 5.2719 112.535 5.19771 112.328C5.05697 111.922 5.03135 111.534 5.03985 111.213C5.0633 110.566 5.26434 110.173 5.26434 110.173L5.2567 110.166Z" fill="#F3E7B2"/>
<path d="M-3.64292 111.08C-3.64292 111.08 -3.53682 111.497 -3.36893 112.057C-3.18049 112.609 -2.89443 113.309 -2.38492 113.713C-2.15216 113.949 -1.8367 114.071 -1.53534 114.195C-1.36912 114.23 -1.2158 114.281 -1.06368 114.318C-0.906286 114.333 -0.74771 114.363 -0.610865 114.387C-0.321894 114.447 -0.0682393 114.426 0.11207 114.46C0.291192 114.481 0.406308 114.499 0.406308 114.499C0.406308 114.499 0.311223 114.55 0.148057 114.635C-0.0239369 114.699 -0.260449 114.84 -0.57574 114.887C-0.736018 114.922 -0.910392 114.958 -1.09359 114.974C-1.28562 114.968 -1.49173 114.965 -1.69904 114.947C-1.90872 114.9 -2.13249 114.855 -2.34574 114.767C-2.54727 114.649 -2.77461 114.562 -2.9527 114.385C-3.13607 114.23 -3.28717 114.037 -3.41654 113.85C-3.54591 113.662 -3.62773 113.449 -3.70192 113.242C-3.84265 112.835 -3.86828 112.447 -3.85978 112.127C-3.83632 111.479 -3.63528 111.086 -3.63528 111.086L-3.64292 111.08Z" fill="#F3E7B2"/>
<path d="M1.10155 115.086C1.10155 115.086 1.20765 115.503 1.37555 116.064C1.56399 116.616 1.85004 117.315 2.35955 117.719C2.59232 117.955 2.90777 118.078 3.20914 118.201C3.37535 118.237 3.52867 118.288 3.6808 118.325C3.83819 118.34 3.99676 118.369 4.13361 118.393C4.42258 118.454 4.67623 118.433 4.85654 118.467C5.03567 118.487 5.15078 118.506 5.15078 118.506C5.15078 118.506 5.0557 118.557 4.89253 118.641C4.72054 118.706 4.48403 118.846 4.16873 118.894C4.00846 118.929 3.83409 118.965 3.65089 118.98C3.45886 118.975 3.25274 118.971 3.04544 118.953C2.83575 118.907 2.61198 118.862 2.39873 118.774C2.1972 118.656 1.96987 118.568 1.79177 118.392C1.60841 118.237 1.45731 118.044 1.32794 117.856C1.19857 117.668 1.11674 117.455 1.04256 117.249C0.90182 116.842 0.876194 116.454 0.884696 116.134C0.90815 115.486 1.10919 115.093 1.10919 115.093L1.10155 115.086Z" fill="#F3E7B2"/>
<path opacity="0.25" d="M5.01401 147.946C3.33227 148.62 1.6227 149.048 -0.0736262 149.212C-7.84418 149.966 -17.4284 147.893 -27.9029 139.047C-38.3775 130.201 -41.8469 121.539 -42.5277 113.882C-42.6986 112.023 -42.5566 110.088 -42.1368 108.165C-41.9001 109.543 -35.7582 142.754 5.02165 147.952L5.01401 147.946Z" fill="#8B5E3C"/>
<path d="M21.3528 176.691C20.8662 181.778 17.6676 186.681 17.6676 186.681C17.6676 186.681 15.2644 183.343 15.7511 178.256C16.2377 173.17 19.4363 168.267 19.4363 168.267C19.4363 168.267 21.8394 171.605 21.3528 176.691Z" fill="#8B5E3C"/>
<path d="M54.3502 164.152C56.5116 167.064 56.1283 171.439 56.1283 171.439C56.1283 171.439 52.2535 171.099 50.0985 168.179C47.9371 165.268 48.3204 160.893 48.3204 160.893C48.3204 160.893 52.1952 161.233 54.3502 164.152Z" fill="#8B5E3C"/>
<path d="M52.714 74.5383C52.714 74.5383 52.9892 73.7629 53.1419 72.5436C53.2048 71.9423 53.2657 71.2346 53.1899 70.503C53.1807 70.1419 53.0858 69.7738 53.0332 69.4021C52.9113 69.0505 52.8651 68.6712 52.6957 68.3449L52.4838 67.8518C52.3927 67.6963 52.2951 67.5484 52.2051 67.407C52.0445 67.1012 51.8041 66.8589 51.5918 66.6142C51.4066 66.3531 51.1158 66.186 50.9083 65.9977C50.6997 65.7953 50.4341 65.6758 50.2097 65.5386C49.9723 65.4167 49.8107 65.2671 49.5857 65.208C49.3801 65.126 49.2039 65.0557 49.0647 65.0035C48.785 64.8852 48.6164 64.8213 48.6164 64.8213L48.4543 64.7499C47.5208 64.3673 47.0682 63.2914 47.4508 62.3579C47.8333 61.4244 48.9093 60.9718 49.8427 61.3544C49.9602 61.4012 50.0866 61.4687 50.1847 61.5384C50.1847 61.5384 50.3886 61.6845 50.7494 61.9237C50.9304 62.0504 51.1419 62.2028 51.3905 62.3735C51.6378 62.53 51.8871 62.7929 52.1645 63.0533C52.4355 63.3214 52.7411 63.5795 52.9986 63.941C53.2562 64.3025 53.5741 64.6234 53.7748 65.0677C54.0013 65.4815 54.243 65.9082 54.3897 66.3854C54.4663 66.6203 54.5569 66.8539 54.6194 67.0899L54.7581 67.8091C54.869 68.2823 54.8389 68.7674 54.8781 69.2324C54.8456 69.6893 54.849 70.1503 54.7707 70.5684C54.6653 71.4218 54.4235 72.1731 54.2144 72.808C53.7658 74.0522 53.2833 74.8096 53.2833 74.8096C53.1824 74.96 52.9875 75.0048 52.8447 74.9104C52.7172 74.8289 52.6759 74.6763 52.714 74.5383Z" fill="#533723"/>
<path d="M21.9426 48.3291C21.9426 48.3291 22.602 47.7342 23.76 47.076C24.351 46.7636 25.0512 46.3994 25.8749 46.1526C26.2805 45.9978 26.729 45.9316 27.1741 45.8231C27.6391 45.7839 28.1046 45.6666 28.5974 45.7031L29.3296 45.7195C29.5728 45.7415 29.8183 45.7918 30.0626 45.828C30.5565 45.8786 31.0112 46.0531 31.4647 46.2136C31.9299 46.3447 32.3059 46.5968 32.7054 46.7902C33.1114 46.976 33.417 47.2341 33.7202 47.464C34.0093 47.6951 34.3243 47.8956 34.52 48.1133C34.7299 48.3298 34.9156 48.5128 35.0708 48.67C35.3735 48.978 35.5452 49.1622 35.5452 49.1622C36.2523 49.8903 36.2293 51.0489 35.5153 51.7548C34.7873 52.462 33.6287 52.439 32.9227 51.725C32.8299 51.6335 32.7499 51.5267 32.6917 51.4252L32.5929 51.2632C32.5929 51.2632 32.4952 51.1153 32.3382 50.8518C32.2559 50.7168 32.1571 50.5549 32.0494 50.3723C31.947 50.1681 31.7713 50.0197 31.619 49.8125C31.4538 49.6207 31.2839 49.3724 31.0494 49.2006C30.8214 49.0211 30.608 48.7624 30.3272 48.6299C30.0581 48.4681 29.7713 48.2652 29.443 48.1581C29.282 48.1007 29.1187 48.0151 28.9577 47.9577L28.4362 47.8314C28.0861 47.719 27.7044 47.7369 27.3373 47.6756C26.9621 47.686 26.5909 47.6605 26.2257 47.7055C25.4918 47.7532 24.8043 47.9317 24.2219 48.0944C23.0455 48.449 22.3271 48.8502 22.3271 48.8502C22.178 48.9337 21.9889 48.8787 21.9054 48.7296C21.8307 48.6011 21.8599 48.4425 21.9719 48.3408L21.9426 48.3291Z" fill="#533723"/>
<path d="M82.3442 135.359C82.3442 135.359 82.2212 135.753 81.9429 136.408C81.657 137.057 81.2539 137.999 80.663 139.071C80.0721 140.142 79.3457 141.374 78.4579 142.627C78.021 143.253 77.5277 143.883 77.0204 144.515C76.4825 145.121 75.9687 145.761 75.3938 146.348C74.8112 146.93 74.2516 147.53 73.6208 148.045C73.0206 148.585 72.404 149.098 71.7813 149.541C71.4738 149.766 71.1664 149.99 70.8653 150.207C70.5566 150.418 70.238 150.594 69.941 150.775C69.333 151.138 68.7813 151.497 68.2061 151.744C67.6538 152.011 67.1414 152.245 66.6906 152.454C66.2145 152.615 65.8077 152.755 65.4702 152.876C64.7927 153.089 64.4064 153.221 64.4064 153.221C64.4064 153.221 64.7674 153.042 65.4072 152.718C65.7206 152.564 66.1097 152.382 66.5529 152.167C66.9707 151.905 67.4438 151.624 67.972 151.324C68.509 151.044 69.0289 150.646 69.5923 150.258C70.1709 149.883 70.7348 149.416 71.3128 148.949C71.9136 148.501 72.4716 147.964 73.0589 147.439C73.6615 146.927 74.2005 146.335 74.7626 145.763C75.3398 145.203 75.8407 144.579 76.3734 143.995C76.8678 143.378 77.3863 142.795 77.8321 142.19C78.7464 140.999 79.5874 139.864 80.2394 138.844C80.899 137.83 81.4514 136.975 81.7896 136.357C82.1419 135.738 82.3465 135.388 82.3465 135.388L82.3442 135.359Z" fill="#5F462B"/>
<path d="M63.619 156.928C63.619 156.928 64.398 156.656 65.5379 156.205C66.1079 155.98 66.7665 155.711 67.4574 155.405C68.1483 155.098 68.8867 154.766 69.601 154.401C70.3305 154.049 71.0284 153.656 71.6927 153.288C72.0255 153.111 72.3278 152.908 72.6324 152.733C72.937 152.559 73.2134 152.386 73.4692 152.223C73.9886 151.902 74.4194 151.625 74.7216 151.422C75.025 151.233 75.2075 151.125 75.2075 151.125C75.2075 151.125 75.072 151.286 74.8398 151.561C74.6075 151.836 74.2491 152.214 73.7803 152.629C73.5497 152.84 73.2998 153.074 73.0116 153.276C72.7247 153.492 72.4401 153.736 72.1097 153.941C71.7793 154.146 71.4601 154.4 71.0927 154.587C70.7329 154.781 70.3755 155.003 70.0004 155.183C68.509 155.926 66.914 156.451 65.6923 156.689C64.4717 156.941 63.6331 156.926 63.6331 156.926L63.619 156.928Z" fill="#5F462B"/>
</g>
<defs>
<clipPath id="clip0_92_820">
<rect width="166.14" height="154.02" fill="white" transform="translate(-14.6248) rotate(40.1814)"/>
</clipPath>
</defs>
</svg>
