<svg width="100" height="156" viewBox="0 0 100 156" fill="none" xmlns="http://www.w3.org/2000/svg">
<g clip-path="url(#clip0_70_5207)">
<path d="M91.4479 149.262C91.4479 152.985 73.5368 156 51.4424 156C29.3479 156 11.4368 152.985 11.4368 149.262C11.4368 145.54 29.3479 142.524 51.4424 142.524C73.5368 142.524 91.4479 145.54 91.4479 149.262Z" fill="black" fill-opacity="0.3"/>
<path d="M91.2902 15.5787C90.0658 21.6091 85.122 24.2149 82.2465 25.2385C81.2262 25.6015 80.7253 27.2952 81.254 28.626L83.3132 33.7909C83.5358 34.3586 83.9161 34.7588 84.3614 34.8891C85.2333 35.1497 86.3927 35.3637 87.7006 35.4288C91.5221 35.6243 96.5773 34.6006 99.2208 30.0499C102.059 25.1641 96.466 17.9611 93.3865 14.5643C92.6352 13.7361 91.5592 14.2665 91.2902 15.5787Z" fill="#8B5E3C"/>
<path d="M87.7006 35.4287C91.5221 35.6241 96.5773 34.6004 99.2208 30.0497C102.031 25.2104 96.5866 18.1098 93.4978 14.6851C93.3308 14.499 93.1268 14.8247 93.2659 15.0481C95.9373 19.3848 99.6846 28.7747 87.7006 35.4287Z" fill="#6E4A2F"/>
<path d="M21.8996 15.5787C23.124 21.6091 28.0679 24.2149 30.9433 25.2385C31.9636 25.6015 32.4645 27.2952 31.9358 28.626L29.8766 33.7909C29.654 34.3586 29.2737 34.7588 28.8285 34.8891C27.9566 35.1497 26.7971 35.3637 25.4893 35.4288C21.6677 35.6243 16.6125 34.6006 13.969 30.0499C11.1307 25.1641 16.7239 17.9611 19.8033 14.5643C20.5547 13.7361 21.6306 14.2665 21.8996 15.5787Z" fill="#8B5E3C"/>
<path d="M25.4985 35.4287C21.677 35.6241 16.6218 34.6004 13.9783 30.0497C11.1678 25.2104 16.6125 18.1098 19.7013 14.6851C19.8683 14.499 20.0723 14.8247 19.9332 15.0481C17.2618 19.3848 13.5145 28.7747 25.4985 35.4287Z" fill="#6E4A2F"/>
<path d="M56.5903 73.2864C79.1458 73.2864 97.4306 60.0535 97.4306 43.7299C97.4306 27.4062 79.1458 14.1733 56.5903 14.1733C34.0348 14.1733 15.7499 27.4062 15.7499 43.7299C15.7499 60.0535 34.0348 73.2864 56.5903 73.2864Z" fill="#8B5E3C"/>
<path d="M36.1655 62.882C47.4407 62.882 56.581 54.3073 56.581 43.7298C56.581 33.1524 47.4407 24.5776 36.1655 24.5776C24.8903 24.5776 15.7499 33.1524 15.7499 43.7298C15.7499 54.3073 24.8903 62.882 36.1655 62.882Z" fill="#DBC19E"/>
<path d="M77.0058 62.882C88.281 62.882 97.4214 54.3073 97.4214 43.7298C97.4214 33.1524 88.281 24.5776 77.0058 24.5776C65.7306 24.5776 56.5903 33.1524 56.5903 43.7298C56.5903 54.3073 65.7306 62.882 77.0058 62.882Z" fill="#DBC19E"/>
<path d="M42.2224 47.4338C46.7919 47.4338 50.4962 43.9631 50.4962 39.6818C50.4962 35.4004 46.7919 31.9297 42.2224 31.9297C37.6529 31.9297 33.9486 35.4004 33.9486 39.6818C33.9486 43.9631 37.6529 47.4338 42.2224 47.4338Z" fill="#FFF4C7"/>
<path d="M70.9489 47.4338C75.5184 47.4338 79.2227 43.9631 79.2227 39.6818C79.2227 35.4004 75.5184 31.9297 70.9489 31.9297C66.3794 31.9297 62.6751 35.4004 62.6751 39.6818C62.6751 43.9631 66.3794 47.4338 70.9489 47.4338Z" fill="#FFF4C7"/>
<path d="M44.3001 41.3753H40.7847C40.5621 41.3753 40.3487 41.2078 40.2282 40.9286L39.5882 39.4582C39.3099 38.8161 39.6253 37.9785 40.1447 37.9785H43.6601C43.8827 37.9785 44.0961 38.146 44.2167 38.4252L44.8567 39.8956C45.1349 40.5377 44.8196 41.3753 44.3001 41.3753Z" fill="#533723"/>
<path d="M68.8712 41.3753H72.3866C72.6092 41.3753 72.8226 41.2078 72.9431 40.9286L73.5831 39.4582C73.8614 38.8161 73.546 37.9785 73.0266 37.9785H69.5112C69.2886 37.9785 69.0752 38.146 68.9546 38.4252L68.3146 39.8956C68.0364 40.5377 68.3517 41.3753 68.8712 41.3753Z" fill="#533723"/>
<path d="M61.6455 120.608C62.3504 123 64.5302 130.808 69.0474 131.571C69.4648 131.646 69.8266 131.106 69.7802 130.492C69.5947 127.988 69.2236 122.386 69.8729 124.573C70.0492 125.187 72.0991 127.914 74.5014 128.556C74.9838 128.686 75.4012 128.035 75.2713 127.337C74.9096 125.429 74.1861 122.125 73.4162 121.381C73.4162 121.381 77.0244 125.457 80.9758 124.964C81.3468 124.917 81.6344 124.452 81.5973 123.912C81.5138 122.535 81.0778 119.892 79.1485 117.919C79.1485 117.919 82.0332 120.497 85.0292 119.492C85.3817 119.371 85.6136 118.859 85.5301 118.338C85.1962 116.16 83.508 110.539 74.9281 106.24C74.7241 106.137 74.4922 106.184 74.3159 106.37C72.6463 108.12 63.9644 117.221 61.8588 119.436C61.5991 119.706 61.5156 120.19 61.6362 120.608H61.6455Z" fill="#8B5E3C"/>
<path d="M26.8435 124.992C26.8435 124.992 31.4906 129.468 32.9932 141.045C32.9932 141.045 35.9243 144.172 35.7573 150.798" stroke="#5F462B" stroke-width="2.84" stroke-linecap="round" stroke-linejoin="round"/>
<path d="M32.9839 141.045C32.0286 133.861 22.4005 126.965 22.4005 126.965" stroke="#5F462B" stroke-width="2.84" stroke-linecap="round" stroke-linejoin="round"/>
<path d="M21.7141 133.358C21.7141 133.358 27.9937 134.707 32.7799 140.496" stroke="#5F462B" stroke-width="2.84" stroke-linecap="round" stroke-linejoin="round"/>
<path d="M33.5497 141.808C33.5497 141.808 38.5122 126.667 51.0806 120.878" stroke="#5F462B" stroke-width="2.84" stroke-linecap="round" stroke-linejoin="round"/>
<path d="M70.1048 145.447C70.1048 145.447 71.3014 137.509 78.156 131.311C78.156 131.311 79.1114 126.192 83.3967 124.052" stroke="#5F462B" stroke-width="2.84" stroke-linecap="round" stroke-linejoin="round"/>
<path d="M78.1653 131.311C73.9171 135.191 72.9617 150.798 72.9617 150.798" stroke="#5F462B" stroke-width="2.84" stroke-linecap="round" stroke-linejoin="round"/>
<path d="M77.2841 149.448C77.2841 149.448 75.8928 140.393 77.887 131.785" stroke="#5F462B" stroke-width="2.84" stroke-linecap="round" stroke-linejoin="round"/>
<path d="M78.4528 130.259C78.4528 130.259 67.0068 128.9 58.8164 113.815" stroke="#5F462B" stroke-width="2.84" stroke-linecap="round" stroke-linejoin="round"/>
<path d="M18.0039 90.7637C17.5679 90.7637 5.60245 102.285 0.640014 107.077C-0.343198 108.027 -0.176237 110.223 0.927556 110.809C2.3931 111.582 4.32242 112.205 6.15898 111.535C6.15898 111.535 5.75086 121.651 10.0547 121.651C14.3586 121.651 16.7239 115.593 16.7239 115.593C16.7239 115.593 14.7203 125.373 20.9164 123.252C27.1032 121.121 34.5979 103.281 34.5979 103.281L18.0039 90.7637Z" fill="#6E4A2F"/>
<path d="M75.2898 120.823C68.0549 125.932 58.0558 130.966 48.3443 129.161C42.6491 128.1 37.0374 124.694 32.1399 117.556L55.0598 72.6258L65.4299 69.3687L68.2126 75.1106C68.2126 75.1106 68.259 75.2223 68.3146 75.3246L69.8822 78.5818C69.8822 78.5818 69.8822 78.5911 69.8915 78.6004L79.2691 97.9666C83.035 105.747 81.152 116.663 75.2806 120.813L75.2898 120.823Z" fill="#CAA77C"/>
<path d="M53.7612 59.4199L62.6751 62.249L59.1503 72.0671L64.0757 73.463L52.0638 121.185L39.4861 116.765L53.7612 59.4199Z" fill="#6E4A2F"/>
<path d="M56.5903 73.6492L59.1503 58.871L48.2423 54.2179L47.426 53.8735L47.2127 53.8921L43.085 54.162L41.9627 54.2365L16.8352 55.8744C16.8352 55.8744 10.4536 63.6637 15.7592 69.4521L15.5922 69.6289C14.7203 70.5782 10.9359 75.2592 15.2026 80.4335C15.2026 80.4335 8.348 87.2177 13.2084 95.2024C13.2084 95.2024 6.15896 103.597 13.2084 110.976L30.3589 114.131L31.0361 114.262L32.6036 114.55L33.2808 114.68L42.7789 116.421L43.6045 116.579H49.4759L55.0969 102.396L56.5903 86.9664L55.0969 85.3564L59.1503 74.2634L56.5903 73.6399V73.6492ZM41.2763 71.4809L41.2856 71.5181C41.3505 71.788 41.2485 72.0672 41.0722 72.1602C41.0351 72.1789 40.9888 72.1882 40.9609 72.1882C40.8218 72.1882 40.6827 72.0579 40.6363 71.8531C40.627 71.8066 40.5899 71.6577 40.5343 71.4157L41.267 71.4716L41.2763 71.4809ZM43.1871 85.2262L41.4989 99.9951C37.362 91.4055 43.1871 85.2262 43.1871 85.2262C40.0519 74.2355 45.9234 71.8438 45.9234 71.8438L43.1871 85.2262Z" fill="#4BA078"/>
<path d="M56.5903 73.6492L59.1503 58.871L48.2423 54.2179L47.426 53.8735L47.2127 53.8921C44.6341 57.0842 43.5952 62.6121 45.9234 71.8438C45.9234 71.8438 40.0519 74.2355 43.1871 85.2262C43.1871 85.2262 37.3713 91.4148 41.4989 99.9951C41.4989 99.9951 33.6147 108.883 42.7697 116.411L43.5952 116.569H49.4666L55.0876 102.387L56.581 86.9571L55.0876 85.3471L59.1411 74.2541L56.581 73.6306L56.5903 73.6492Z" fill="#FCFCFC"/>
<path d="M62.5916 48.0943L57.6848 55.5858C57.1468 56.414 56.2471 56.414 55.7091 55.5858L50.8023 48.0943C50.3942 47.4708 50.32 46.7728 50.5055 46.14C50.7745 45.2001 51.6093 44.4556 52.7038 44.4556H60.6994C61.7939 44.4556 62.6194 45.2001 62.8977 46.1307C63.0832 46.7635 63.009 47.4708 62.6009 48.0943H62.5916Z" fill="#E3A524"/>
<path d="M62.8884 46.14L57.8517 53.8548C57.221 54.8133 56.1636 54.8133 55.5421 53.8548L50.5055 46.1493C50.7745 45.2093 51.6093 44.4648 52.7038 44.4648H60.6994C61.7939 44.4648 62.6194 45.2093 62.8977 46.14H62.8884Z" fill="#F9BF12"/>
<path d="M55.6998 47.508C56.0987 48.5224 56.1543 49.5647 55.8204 49.8439C55.4865 50.1231 54.9021 49.5275 54.5033 48.5224C54.1044 47.508 54.0488 46.4657 54.3827 46.1865C54.7166 45.9073 55.301 46.5029 55.6998 47.508Z" fill="#FECD5B"/>
<path opacity="0.15" d="M75.2899 120.822C68.0549 125.931 58.0558 130.966 48.3443 129.161C58.8164 126.732 74.1397 121.799 76.9966 113.424C80.41 103.41 73.3049 86.0078 69.9007 78.6094L79.2784 97.9756C83.0442 105.756 81.1613 116.672 75.2899 120.822Z" fill="#8B5E3C"/>
<path d="M33.1035 28.3919C35.2718 25.7491 38.718 24.147 42.1649 24.524C43.3456 24.6123 44.4763 24.9594 45.5785 25.3672C46.2221 25.6074 46.5539 26.3196 46.3192 26.9733C46.0641 27.6828 45.2285 28.005 44.567 27.6451C41.1279 25.447 36.5008 26.0255 33.5536 28.8148C33.2873 29.0743 32.8675 28.6657 33.1114 28.3871L33.1035 28.3919Z" fill="#533723"/>
<path d="M77.4386 29.8013C74.539 27.0229 69.9716 26.3606 66.5281 28.4888C65.9119 28.8501 65.1069 28.634 64.7742 27.989C64.4228 27.3215 64.7581 26.4788 65.468 26.2307C66.5747 25.8351 67.7092 25.5006 68.8907 25.4253C71.1945 25.1941 73.5567 25.8753 75.4441 27.148C76.3735 27.7809 77.198 28.5129 77.9012 29.3883C78.0059 29.5191 77.9839 29.7136 77.8536 29.8186C77.7232 29.9236 77.5422 29.8986 77.4277 29.7836L77.4386 29.8013Z" fill="#533723"/>
<g opacity="0.29">
<path d="M46.5541 68.0845L56.9984 71.686L56.7202 72.4491L46.4706 68.3171L46.5541 68.0845Z" fill="#533723"/>
</g>
<g opacity="0.29">
<path d="M48.975 65.832L57.5271 68.6425L57.2488 69.4056L48.9286 65.9716L48.975 65.832Z" fill="#533723"/>
</g>
<g opacity="0.29">
<path d="M52.0452 60.9648L58.4918 63.068L58.2135 63.8312L51.971 61.151L52.0452 60.9648Z" fill="#533723"/>
</g>
<g opacity="0.29">
<path d="M47.4909 74.2915C51.1455 74.5428 54.6888 75.3431 58.1022 76.6925C54.4476 76.4412 50.9043 75.6409 47.4909 74.2915Z" fill="#533723"/>
</g>
<g opacity="0.29">
<path d="M45.2184 78.6094C48.1774 78.6745 51.0342 79.2887 53.7613 80.452C50.8023 80.3869 47.9455 79.7727 45.2184 78.6094Z" fill="#533723"/>
</g>
<g opacity="0.29">
<path d="M44.5877 82.9739C46.9529 82.8809 49.2255 83.3276 51.3681 84.3233C49.0029 84.4257 46.7303 83.9697 44.5877 82.9739Z" fill="#533723"/>
</g>
<g opacity="0.29">
<path d="M43.2798 87.5901C45.3576 87.3854 47.3704 87.739 49.2626 88.6324C47.1849 88.8371 45.1721 88.4835 43.2798 87.5901Z" fill="#533723"/>
</g>
<g opacity="0.29">
<path d="M41.0908 91.3497C42.9737 91.0613 44.7917 91.3311 46.517 92.1501C44.6341 92.4386 42.816 92.1687 41.0908 91.3497Z" fill="#533723"/>
</g>
<path d="M45.9141 71.8438L41.2763 71.4808L40.5435 71.425L15.7499 69.4521C10.4443 63.6636 16.8259 55.8743 16.8259 55.8743L41.9534 54.2364L43.0758 54.162L47.2034 53.8921C44.6248 57.0841 43.5859 62.612 45.9141 71.8438Z" fill="#BA3723"/>
<path d="M43.1871 85.2262L15.1934 80.4335C10.9266 75.2592 14.7111 70.5782 15.583 69.629L15.7499 69.4521L45.9234 71.8438C45.9234 71.8438 40.0519 74.2355 43.1871 85.2262Z" fill="#73A3FF"/>
<path d="M41.2763 71.481L40.5435 71.4251C40.089 69.2289 38.2988 59.5225 41.9534 54.2366L43.0758 54.1621C38.5678 59.0665 41.1093 70.7179 41.2763 71.4903V71.481Z" fill="#ED9845"/>
<path d="M19.9054 58.4336C19.9054 58.4336 17.8369 62.7796 19.3488 65.4133L33.4941 65.9065C33.4941 65.9065 32.2975 60.9835 33.9579 58.4336H19.9054Z" fill="#ED9845"/>
<path d="M38.6328 78.1814C38.5493 79.4006 37.1023 80.1823 35.4049 79.9217C33.7074 79.6611 32.3996 78.4699 32.4923 77.2508C32.5758 76.0317 34.0228 75.25 35.7202 75.5106C37.4177 75.7711 38.7255 76.9623 38.6328 78.1814Z" fill="#7362FF"/>
<path d="M16.9465 75.4639L30.4239 77.0273" stroke="#7362FF" stroke-width="0.88" stroke-miterlimit="10"/>
<path d="M43.1871 85.2263L15.1934 80.4336C15.1934 80.4336 8.33874 87.2178 13.1991 95.2026L33.6425 98.6738L34.4959 98.8134L36.184 99.1018L37.0745 99.2601L41.4989 100.005C37.362 91.4149 43.1871 85.2356 43.1871 85.2356V85.2263Z" fill="#FC88FC"/>
<path d="M15.7499 82.9741C15.7499 82.9741 11.8727 87.5249 13.9783 93.0714L21.0555 93.9368C21.0555 93.9368 21.0555 88.6416 22.9941 85.2262L15.7499 82.9741Z" fill="#BA51AE"/>
<path d="M23.6805 90.2144L32.4923 91.3497" stroke="#BA51AE" stroke-width="0.88" stroke-miterlimit="10"/>
<path d="M23.6805 93.3691L32.4923 94.4952" stroke="#BA51AE" stroke-width="0.88" stroke-miterlimit="10"/>
<path d="M14.6276 97.501C14.6276 97.501 10.7504 103.652 13.7835 108.91L16.3065 109.404C16.3065 109.404 14.2287 103.569 17.6514 98.3199L14.6183 97.501H14.6276Z" fill="#4B7E78"/>
<path d="M33.2715 114.681L32.5944 114.55C32.1491 105.877 34.6721 101.131 36.1747 99.1021L37.0652 99.2603C35.8037 100.656 32.7057 105.132 33.2622 114.681H33.2715Z" fill="#4B7E78"/>
<path d="M31.0268 114.262L30.3497 114.131C29.8395 105.709 32.0935 100.917 33.6425 98.6738L34.4959 98.8134C33.086 100.563 30.4053 105.17 31.0268 114.262Z" fill="#4B7E78"/>
<path d="M63.6026 69.2012L38.067 105.942C38.067 105.942 34.5979 108.352 29.3294 105.421C28.4018 104.909 27.4 105.905 27.4279 107.347C27.4835 109.73 28.1421 112.754 31.0546 113.285C31.0546 113.285 27.8174 115.109 25.9438 118.254C23.7826 121.884 25.7675 127.56 29.0604 127.356C30.8784 127.244 33.3086 126.351 36.1655 123.503C36.1655 123.503 37.6774 129.896 41.4989 128.296C41.4989 128.296 44.7732 131.208 47.324 128.556C47.324 128.556 47.9269 130.511 50.6261 129.673C52.7687 129.003 64.7899 101.54 69.6596 90.2239C71.1437 86.7713 71.5518 82.537 70.717 78.6377C69.6503 73.6496 67.554 67.9449 63.6026 69.1826V69.2012Z" fill="#8B5E3C"/>
<path d="M56.9891 0L56.581 10.0972L56.1822 0H56.9891Z" fill="#5F462B"/>
<path d="M49.7078 2.84766L53.687 10.8975L49.0029 3.23852L49.7078 2.84766Z" fill="#5F462B"/>
<path d="M64.1684 3.23852L59.4843 10.8975L63.4635 2.84766L64.1684 3.23852Z" fill="#5F462B"/>
</g>
<defs>
<clipPath id="clip0_70_5207">
<rect width="100" height="156" fill="white"/>
</clipPath>
</defs>
</svg>
