<svg width="248" height="230" viewBox="0 0 248 230" fill="none" xmlns="http://www.w3.org/2000/svg">
  <g clip-path="url(#clip0_92_934)">
    <path
      d="M102.803 89.091L95.101 122.108C82.7264 129.679 72.143 133.681 63.2166 135.443C36.273 140.745 24.5104 125.468 24.5104 125.468C28.1974 120.167 31.6904 118.718 31.6904 118.718C20.1815 115.836 8.98616 100.156 8.98616 100.156L22.6147 99.2008C12.6582 92.5704 4.26917 72.9782 4.26917 72.9782C14.7331 72.4406 21.316 76.7264 22.0624 77.2341C5.83652 63.0477 0 39.5728 0 39.5728C8.7921 38.8261 17.7932 47.0991 18.3306 47.6068C7.47851 33.6443 3.38847 8.09375 3.38847 8.09375C21.9728 13.1859 37.303 43.321 37.303 43.321C46.4683 60.8674 56.8576 71.7835 66.62 78.5482C85.9357 91.9433 102.788 89.106 102.788 89.106L102.803 89.091Z"
      fill="#8B5E3C" />
    <path
      d="M102.803 89.0909L95.101 122.108C82.7264 129.679 72.143 133.681 63.2166 135.443C58.6936 111.117 62.724 90.8082 66.6349 78.5332C85.9506 91.9282 102.803 89.0909 102.803 89.0909Z"
      fill="#6E4A2F" />
    <path
      d="M134.882 89.091L142.584 122.108C154.959 129.679 165.542 133.681 174.469 135.443C201.412 140.745 213.175 125.468 213.175 125.468C209.488 120.167 205.995 118.718 205.995 118.718C217.504 115.836 228.699 100.156 228.699 100.156L215.071 99.2008C225.027 92.5705 233.416 72.9782 233.416 72.9782C222.952 72.4406 216.369 76.7264 215.623 77.2342C231.849 63.0477 237.685 39.5579 237.685 39.5579C228.893 38.8112 219.892 47.0842 219.355 47.5919C230.207 33.6444 234.297 8.07886 234.297 8.07886C215.713 13.1711 200.382 43.3061 200.382 43.3061C191.217 60.8525 180.828 71.7686 171.065 78.5333C151.75 91.9283 134.897 89.091 134.897 89.091H134.882Z"
      fill="#8B5E3C" />
    <path
      d="M134.882 89.0909L142.584 122.108C154.959 129.679 165.542 133.681 174.469 135.443C178.992 111.117 174.961 90.8082 171.05 78.5332C151.735 91.9282 134.882 89.0909 134.882 89.0909Z"
      fill="#6E4A2F" />
    <path
      d="M174.693 2.26986C172.722 11.9465 164.766 16.1278 160.139 17.7704C158.497 18.3528 157.691 21.0707 158.541 23.2061L161.855 31.494C162.214 32.4049 162.826 33.047 163.542 33.2561C164.945 33.6742 166.811 34.0177 168.916 34.1222C175.066 34.4358 183.201 32.7932 187.455 25.4909C192.023 17.651 183.022 6.09274 178.066 0.642151C176.857 -0.686897 175.126 0.164291 174.693 2.26986Z"
      fill="#8B5E3C" />
    <path
      d="M168.916 34.1221C175.066 34.4357 183.201 32.7931 187.455 25.4908C191.978 17.7256 183.216 6.33158 178.245 0.836192C177.977 0.53753 177.648 1.06019 177.872 1.41858C182.171 8.37742 188.202 23.4449 168.916 34.1221Z"
      fill="#6E4A2F" />
    <path
      d="M63.0225 2.26986C64.9929 11.9465 72.9491 16.1278 77.5765 17.7704C79.2185 18.3528 80.0246 21.0707 79.1737 23.2061L75.8599 31.494C75.5016 32.4049 74.8896 33.047 74.1731 33.2561C72.7699 33.6742 70.9041 34.0177 68.7993 34.1222C62.6493 34.4358 54.514 32.7932 50.2598 25.4909C45.6921 17.651 54.6931 6.09274 59.649 0.642151C60.8581 -0.686897 62.5896 0.164291 63.0225 2.26986Z"
      fill="#8B5E3C" />
    <path
      d="M68.8143 34.1221C62.6643 34.4357 54.529 32.7931 50.2747 25.4908C45.7518 17.7256 54.5141 6.33158 59.4848 0.836192C59.7535 0.53753 60.0819 1.06019 59.858 1.41858C55.559 8.37742 49.5284 23.4449 68.8143 34.1221Z"
      fill="#6E4A2F" />
    <path
      d="M141.375 158.396C142.674 162.114 146.719 174.314 154.033 174.867C154.72 174.912 155.243 174.001 155.138 173.03C154.66 169.043 153.69 160.128 154.869 163.548C155.198 164.503 158.676 168.565 162.587 169.252C163.378 169.386 164.005 168.281 163.736 167.176C163.02 164.175 161.631 158.993 160.348 157.903C160.348 157.903 166.423 163.906 172.737 162.517C173.334 162.383 173.752 161.606 173.663 160.74C173.424 158.545 172.558 154.379 169.319 151.511C169.319 151.511 174.14 155.215 178.872 153.169C179.44 152.93 179.768 152.064 179.604 151.243C178.917 147.808 175.812 139.057 161.736 133.427C161.393 133.293 161.034 133.398 160.766 133.726C158.198 136.772 144.898 152.631 141.659 156.484C141.271 156.947 141.151 157.739 141.39 158.396H141.375Z"
      fill="#8B5E3C" />
    <path d="M104.356 160.322C104.356 161.397 101.759 186.679 119.716 188.68" stroke="#5F462B" stroke-width="2.84"
      stroke-linecap="round" stroke-linejoin="round" />
    <path d="M119.626 173.523C119.626 173.523 115.297 193.713 130.18 202.672" stroke="#5F462B" stroke-width="2.84"
      stroke-linecap="round" stroke-linejoin="round" />
    <path d="M119.044 184.17C119.044 184.17 115.253 200.417 116.88 207.227" stroke="#5F462B" stroke-width="2.84"
      stroke-linecap="round" stroke-linejoin="round" />
    <path d="M119.044 187.321C119.044 187.321 117.746 199.984 125.761 210.691" stroke="#5F462B" stroke-width="2.84"
      stroke-linecap="round" stroke-linejoin="round" />
    <path d="M133.329 158.978C133.329 160.053 130.732 185.335 148.69 187.336" stroke="#5F462B" stroke-width="2.84"
      stroke-linecap="round" stroke-linejoin="round" />
    <path d="M148.6 172.194C148.6 172.194 144.271 192.383 159.153 201.343" stroke="#5F462B" stroke-width="2.84"
      stroke-linecap="round" stroke-linejoin="round" />
    <path d="M148.018 182.826C148.018 182.826 144.226 199.073 145.853 205.883" stroke="#5F462B" stroke-width="2.84"
      stroke-linecap="round" stroke-linejoin="round" />
    <path d="M148.018 185.977C148.018 185.977 146.719 198.64 154.735 209.347" stroke="#5F462B" stroke-width="2.84"
      stroke-linecap="round" stroke-linejoin="round" />
    <path
      d="M149.914 82.0425L118.85 83.9689L87.7867 82.0425L72.9043 109.594C64.8735 124.482 67.1574 146.195 77.9199 156.813C86.085 164.891 98.8776 171.432 118.85 171.432C138.823 171.432 152.227 164.563 160.378 156.215C170.767 145.568 172.648 124.169 164.796 109.609L149.914 82.0425Z"
      fill="#CAA77C" />
    <path
      d="M133.285 86.5225H104.401C104.401 86.5225 87.9956 106.608 98.5342 113.656C98.5342 113.656 96.0414 125.826 104.401 122.84C104.401 122.84 103.52 135.01 113.193 132.024C113.193 132.024 113.775 138.43 118.835 138.43V138.4L118.85 138.43C123.91 138.43 124.493 132.024 124.493 132.024C134.165 135.01 133.285 122.84 133.285 122.84C141.644 125.826 139.151 113.656 139.151 113.656C149.705 106.608 133.285 86.5225 133.285 86.5225Z"
      fill="#DBC19E" />
    <path opacity="0.29" d="M84.6072 87.9263H153.078C153.078 87.9263 122.671 114.044 84.6072 87.9263Z" fill="#8B5E3C" />
    <path
      d="M118.85 94.8552C155.149 94.8552 184.574 73.6211 184.574 47.4276C184.574 21.2341 155.149 0 118.85 0C82.5516 0 53.1258 21.2341 53.1258 47.4276C53.1258 73.6211 82.5516 94.8552 118.85 94.8552Z"
      fill="#8B5E3C" />
    <path
      d="M85.9805 78.1601C104.126 78.1601 118.835 64.4007 118.835 47.4277C118.835 30.4547 104.126 16.6953 85.9805 16.6953C67.8353 16.6953 53.1258 30.4547 53.1258 47.4277C53.1258 64.4007 67.8353 78.1601 85.9805 78.1601Z"
      fill="#DBC19E" />
    <path
      d="M151.705 78.1601C169.85 78.1601 184.56 64.4007 184.56 47.4277C184.56 30.4547 169.85 16.6953 151.705 16.6953C133.56 16.6953 118.85 30.4547 118.85 47.4277C118.85 64.4007 133.56 78.1601 151.705 78.1601Z"
      fill="#DBC19E" />
    <path
      d="M96.3549 53.0724C103.709 53.0724 109.67 47.5032 109.67 40.6331C109.67 33.7631 103.709 28.1938 96.3549 28.1938C89.0012 28.1938 83.0399 33.7631 83.0399 40.6331C83.0399 47.5032 89.0012 53.0724 96.3549 53.0724Z"
      fill="#FFF4C7" />
    <path
      d="M141.33 53.0724C148.684 53.0724 154.645 47.5032 154.645 40.6331C154.645 33.7631 148.684 28.1938 141.33 28.1938C133.977 28.1938 128.015 33.7631 128.015 40.6331C128.015 47.5032 133.977 53.0724 141.33 53.0724Z"
      fill="#FFF4C7" />
    <path
      d="M144.779 40.3494C144.196 44.7099 142.211 47.816 140.375 47.2784C138.524 46.7408 137.509 42.7835 138.106 38.423C138.688 34.0626 140.674 30.9565 142.51 31.4941C144.361 32.0317 145.376 35.9889 144.779 40.3494Z"
      fill="#533723" />
    <path
      d="M92.9365 40.3494C93.5187 44.7099 95.504 47.816 97.34 47.2784C99.191 46.7408 100.206 42.7835 99.609 38.423C99.0268 34.0626 97.0415 30.9565 95.2055 31.4941C93.3545 32.0317 92.3394 35.9889 92.9365 40.3494Z"
      fill="#533723" />
    <path
      d="M128.359 54.4463L120.462 66.4674C119.597 67.7965 118.149 67.7965 117.283 66.4674L109.386 54.4463C108.73 53.4458 108.61 52.3258 108.909 51.3103C109.342 49.8021 110.685 48.6074 112.446 48.6074H125.314C127.075 48.6074 128.404 49.8021 128.851 51.2954C129.15 52.3108 129.03 53.4458 128.374 54.4463H128.359Z"
      fill="#E3A524" />
    <path
      d="M128.822 51.2954L120.716 63.6749C119.701 65.2131 117.999 65.2131 116.999 63.6749L108.894 51.3103C109.327 49.8021 110.67 48.6074 112.431 48.6074H125.299C127.06 48.6074 128.389 49.8021 128.836 51.2954H128.822Z"
      fill="#F9BF12" />
    <path
      d="M117.268 53.4905C117.91 55.1182 117.999 56.7907 117.462 57.2387C116.925 57.6867 115.984 56.731 115.342 55.1182C114.7 53.4905 114.611 51.818 115.148 51.37C115.686 50.922 116.626 51.8777 117.268 53.4905Z"
      fill="#FECD5B" />
    <path
      d="M100.997 106.533C100.997 106.533 101.52 106.906 102.251 107.384C102.997 107.832 103.998 108.355 104.968 108.325C105.46 108.37 105.938 108.205 106.401 108.056C106.625 107.937 106.849 107.847 107.058 107.743C107.252 107.608 107.461 107.489 107.64 107.384C108.028 107.175 108.297 106.906 108.535 106.772C108.759 106.623 108.909 106.533 108.909 106.533C108.909 106.533 108.849 106.682 108.744 106.936C108.61 107.175 108.476 107.563 108.162 107.922C108.013 108.116 107.849 108.325 107.655 108.519C107.431 108.698 107.192 108.892 106.938 109.072C106.655 109.221 106.356 109.385 106.028 109.49C105.684 109.549 105.341 109.669 104.968 109.639C104.61 109.639 104.251 109.564 103.923 109.475C103.595 109.385 103.296 109.221 103.012 109.057C102.46 108.728 102.057 108.31 101.759 107.937C101.161 107.175 101.012 106.533 101.012 106.533H100.997Z"
      fill="#F3E7B2" />
    <path
      d="M110.252 106.533C110.252 106.533 110.775 106.906 111.506 107.384C112.252 107.832 113.252 108.355 114.223 108.325C114.715 108.37 115.193 108.205 115.656 108.056C115.88 107.937 116.104 107.847 116.313 107.743C116.507 107.608 116.716 107.489 116.895 107.384C117.283 107.175 117.551 106.906 117.79 106.772C118.014 106.623 118.163 106.533 118.163 106.533C118.163 106.533 118.104 106.682 117.999 106.936C117.865 107.175 117.731 107.563 117.417 107.922C117.268 108.116 117.104 108.325 116.91 108.519C116.686 108.698 116.447 108.892 116.193 109.072C115.909 109.221 115.611 109.385 115.283 109.49C114.939 109.549 114.596 109.669 114.223 109.639C113.864 109.639 113.506 109.564 113.178 109.475C112.849 109.385 112.551 109.221 112.267 109.057C111.715 108.728 111.312 108.31 111.013 107.937C110.416 107.175 110.267 106.533 110.267 106.533H110.252Z"
      fill="#F3E7B2" />
    <path
      d="M119.507 106.533C119.507 106.533 120.029 106.906 120.761 107.384C121.507 107.832 122.507 108.355 123.478 108.325C123.97 108.37 124.448 108.205 124.911 108.056C125.135 107.937 125.358 107.847 125.567 107.743C125.761 107.608 125.97 107.489 126.15 107.384C126.538 107.175 126.806 106.906 127.045 106.772C127.269 106.623 127.418 106.533 127.418 106.533C127.418 106.533 127.359 106.682 127.254 106.936C127.12 107.175 126.985 107.563 126.672 107.922C126.523 108.116 126.359 108.325 126.164 108.519C125.941 108.698 125.702 108.892 125.448 109.072C125.164 109.221 124.866 109.385 124.537 109.49C124.194 109.549 123.851 109.669 123.478 109.639C123.119 109.639 122.761 109.564 122.433 109.475C122.104 109.385 121.806 109.221 121.522 109.057C120.97 108.728 120.567 108.31 120.268 107.937C119.671 107.175 119.522 106.533 119.522 106.533H119.507Z"
      fill="#F3E7B2" />
    <path
      d="M128.777 106.533C128.777 106.533 129.299 106.906 130.031 107.384C130.777 107.832 131.777 108.355 132.747 108.325C133.24 108.37 133.718 108.205 134.18 108.056C134.404 107.937 134.628 107.847 134.837 107.743C135.031 107.608 135.24 107.489 135.419 107.384C135.807 107.175 136.076 106.906 136.315 106.772C136.539 106.623 136.688 106.533 136.688 106.533C136.688 106.533 136.628 106.682 136.524 106.936C136.39 107.175 136.255 107.563 135.942 107.922C135.793 108.116 135.628 108.325 135.434 108.519C135.21 108.698 134.972 108.892 134.718 109.072C134.434 109.221 134.136 109.385 133.807 109.49C133.464 109.549 133.121 109.669 132.747 109.639C132.389 109.639 132.031 109.564 131.702 109.475C131.374 109.385 131.076 109.221 130.792 109.057C130.24 108.728 129.837 108.31 129.538 107.937C128.941 107.175 128.792 106.533 128.792 106.533H128.777Z"
      fill="#F3E7B2" />
    <path
      d="M100.997 116.15C100.997 116.15 101.52 116.523 102.251 117.001C102.997 117.449 103.998 117.972 104.968 117.942C105.46 117.987 105.938 117.822 106.401 117.673C106.625 117.554 106.849 117.464 107.058 117.359C107.252 117.225 107.461 117.106 107.64 117.001C108.028 116.792 108.297 116.523 108.535 116.389C108.759 116.24 108.909 116.15 108.909 116.15C108.909 116.15 108.849 116.299 108.744 116.553C108.61 116.792 108.476 117.18 108.162 117.539C108.013 117.733 107.849 117.942 107.655 118.136C107.431 118.315 107.192 118.509 106.938 118.689C106.655 118.838 106.356 119.002 106.028 119.107C105.684 119.166 105.341 119.286 104.968 119.256C104.61 119.256 104.251 119.181 103.923 119.092C103.595 119.002 103.296 118.838 103.012 118.674C102.46 118.345 102.057 117.927 101.759 117.554C101.161 116.792 101.012 116.15 101.012 116.15H100.997Z"
      fill="#F3E7B2" />
    <path
      d="M110.252 116.15C110.252 116.15 110.775 116.523 111.506 117.001C112.252 117.449 113.252 117.972 114.223 117.942C114.715 117.987 115.193 117.822 115.656 117.673C115.88 117.554 116.104 117.464 116.313 117.36C116.507 117.225 116.716 117.106 116.895 117.001C117.283 116.792 117.551 116.523 117.79 116.389C118.014 116.24 118.163 116.15 118.163 116.15C118.163 116.15 118.104 116.299 117.999 116.553C117.865 116.792 117.731 117.18 117.417 117.539C117.268 117.733 117.104 117.942 116.91 118.136C116.686 118.315 116.447 118.509 116.193 118.689C115.909 118.838 115.611 119.002 115.283 119.107C114.939 119.166 114.596 119.286 114.223 119.241C113.864 119.241 113.506 119.166 113.178 119.077C112.849 118.987 112.551 118.823 112.267 118.659C111.715 118.33 111.312 117.912 111.013 117.539C110.416 116.777 110.267 116.135 110.267 116.135L110.252 116.15Z"
      fill="#F3E7B2" />
    <path
      d="M119.507 116.15C119.507 116.15 120.029 116.523 120.761 117.001C121.507 117.449 122.507 117.972 123.478 117.942C123.97 117.987 124.448 117.822 124.911 117.673C125.135 117.554 125.358 117.464 125.567 117.359C125.761 117.225 125.97 117.106 126.15 117.001C126.538 116.792 126.806 116.523 127.045 116.389C127.269 116.24 127.418 116.15 127.418 116.15C127.418 116.15 127.359 116.299 127.254 116.553C127.12 116.792 126.985 117.18 126.672 117.539C126.523 117.733 126.359 117.942 126.164 118.136C125.941 118.315 125.702 118.509 125.448 118.689C125.164 118.838 124.866 119.002 124.537 119.107C124.194 119.166 123.851 119.286 123.478 119.256C123.119 119.256 122.761 119.181 122.433 119.092C122.104 119.002 121.806 118.838 121.522 118.674C120.97 118.345 120.567 117.927 120.268 117.554C119.671 116.792 119.522 116.15 119.522 116.15H119.507Z"
      fill="#F3E7B2" />
    <path
      d="M114.88 125.184C114.88 125.184 115.402 125.558 116.133 126.036C116.88 126.484 117.88 127.006 118.85 126.976C119.343 127.021 119.82 126.857 120.283 126.707C120.507 126.588 120.731 126.498 120.94 126.394C121.134 126.26 121.343 126.14 121.522 126.036C121.91 125.826 122.179 125.558 122.418 125.423C122.642 125.274 122.791 125.184 122.791 125.184C122.791 125.184 122.731 125.334 122.627 125.588C122.492 125.826 122.358 126.215 122.045 126.573C121.895 126.767 121.731 126.976 121.537 127.17C121.313 127.35 121.074 127.544 120.821 127.723C120.537 127.872 120.238 128.037 119.91 128.141C119.567 128.201 119.223 128.32 118.85 128.29C118.492 128.29 118.134 128.216 117.805 128.126C117.477 128.037 117.178 127.872 116.895 127.708C116.342 127.379 115.939 126.961 115.641 126.588C115.044 125.826 114.894 125.184 114.894 125.184H114.88Z"
      fill="#F3E7B2" />
    <path
      d="M128.777 116.15C128.777 116.15 129.299 116.523 130.031 117.001C130.777 117.449 131.777 117.972 132.747 117.942C133.24 117.987 133.718 117.822 134.18 117.673C134.404 117.554 134.628 117.464 134.837 117.359C135.031 117.225 135.24 117.106 135.419 117.001C135.807 116.792 136.076 116.523 136.315 116.389C136.539 116.24 136.688 116.15 136.688 116.15C136.688 116.15 136.628 116.299 136.524 116.553C136.39 116.792 136.255 117.18 135.942 117.539C135.793 117.733 135.628 117.942 135.434 118.136C135.21 118.315 134.972 118.509 134.718 118.689C134.434 118.838 134.136 119.002 133.807 119.107C133.464 119.166 133.121 119.286 132.747 119.256C132.389 119.256 132.031 119.181 131.702 119.092C131.374 119.002 131.076 118.838 130.792 118.674C130.24 118.345 129.837 117.927 129.538 117.554C128.941 116.792 128.792 116.15 128.792 116.15H128.777Z"
      fill="#F3E7B2" />
    <path opacity="0.25"
      d="M164.886 149.869C163.617 152.258 162.079 154.394 160.303 156.215C152.168 164.563 139.241 171.432 118.775 171.432C98.3103 171.432 86.0104 164.892 77.8601 156.813C75.8748 154.857 74.1731 152.512 72.7998 149.914C74.397 151.258 113.387 183.229 164.9 149.869H164.886Z"
      fill="#8B5E3C" />
    <path
      d="M211.205 166.922C215.548 173.194 216.623 181.871 216.623 181.871C216.623 181.871 210.667 180.377 206.323 174.105C201.98 167.833 200.905 159.157 200.905 159.157C200.905 159.157 206.861 160.651 211.205 166.922Z"
      fill="#8B5E3C" />
    <path
      d="M71.0235 201.328C76.5316 205.166 79.517 212.842 79.517 212.842C79.517 212.842 73.5462 214.29 68.0381 210.453C62.5299 206.615 59.5445 198.939 59.5445 198.939C59.5445 198.939 65.5154 197.491 71.0235 201.328Z"
      fill="#8B5E3C" />
    <path
      d="M236.76 120.824C242.029 122.063 245.806 127.424 245.806 127.424C245.806 127.424 241.059 130.769 235.79 129.515C230.52 128.276 226.744 122.915 226.744 122.915C226.744 122.915 231.491 119.57 236.76 120.824Z"
      fill="#8B5E3C" />
    <path
      d="M48.4835 170.596C53.2004 166.967 58.4399 167.938 58.4399 167.938C58.4399 167.938 56.0217 174.777 51.3047 178.406C46.5877 182.035 41.3483 181.064 41.3483 181.064C41.3483 181.064 43.7665 174.225 48.4835 170.596Z"
      fill="#8B5E3C" />
    <path
      d="M148.585 20.1596C148.585 20.1596 148.152 19.0098 147.152 17.4717C146.645 16.725 146.033 15.8589 145.241 15.0973C144.883 14.6941 144.42 14.3656 144.002 13.9923C143.525 13.7085 143.107 13.3203 142.599 13.1112L141.883 12.7528C141.629 12.6632 141.375 12.5885 141.136 12.5139C140.659 12.3197 140.151 12.2749 139.674 12.2003C139.211 12.0808 138.718 12.1704 138.3 12.1555C137.867 12.1256 137.449 12.2451 137.061 12.3048C136.673 12.3944 136.345 12.3795 136.031 12.5288C135.718 12.6333 135.449 12.7229 135.24 12.7976C134.807 12.932 134.554 13.0216 134.554 13.0216L134.3 13.0963C132.867 13.5592 131.314 12.7677 130.852 11.3342C130.389 9.90058 131.18 8.34753 132.613 7.8846C132.792 7.82487 133.001 7.78007 133.18 7.76514C133.18 7.76514 133.553 7.73527 134.195 7.66061C134.524 7.63074 134.912 7.60088 135.36 7.55608C135.792 7.49634 136.33 7.55608 136.897 7.58594C137.464 7.63074 138.061 7.63074 138.703 7.79501C139.345 7.95927 140.017 8.019 140.674 8.3326C141.33 8.58646 142.017 8.84032 142.644 9.24352C142.957 9.43765 143.286 9.61685 143.584 9.82591L144.435 10.5128C145.017 10.9459 145.45 11.5283 145.943 12.0211C146.346 12.5736 146.794 13.0963 147.107 13.6488C147.809 14.724 148.257 15.8141 148.63 16.7399C149.316 18.5917 149.496 19.9207 149.496 19.9207C149.525 20.1895 149.346 20.4284 149.093 20.4583C148.869 20.4882 148.675 20.3538 148.585 20.1596Z"
      fill="#533723" />
    <path
      d="M88.2495 19.9058C88.2495 19.9058 88.4286 18.5917 89.1152 16.725C89.4884 15.7992 89.9362 14.709 90.6378 13.6339C90.9513 13.0664 91.3991 12.5587 91.8021 12.0061C92.2947 11.5133 92.7127 10.931 93.3098 10.4979L94.1606 9.81097C94.4592 9.60191 94.7876 9.42271 95.101 9.22858C95.713 8.81045 96.3997 8.57152 97.0714 8.31766C97.7282 8.019 98.3999 7.94433 99.0418 7.78007C99.6837 7.60087 100.281 7.60087 100.848 7.571C101.4 7.55607 101.953 7.48141 102.385 7.54114C102.833 7.58594 103.221 7.6158 103.55 7.64567C104.192 7.7054 104.565 7.7502 104.565 7.7502C106.072 7.89953 107.162 9.24351 107.028 10.7368C106.879 12.2451 105.535 13.3352 104.042 13.2008C103.848 13.1859 103.654 13.1411 103.49 13.0813L103.221 12.9917C103.221 12.9917 102.968 12.9171 102.535 12.7677C102.311 12.6931 102.042 12.6035 101.744 12.4989C101.43 12.3645 101.087 12.3645 100.714 12.2749C100.34 12.2152 99.9076 12.0957 99.4747 12.1256C99.0418 12.1405 98.5492 12.0509 98.1014 12.1704C97.6386 12.2451 97.1162 12.2899 96.6385 12.484C96.3997 12.5736 96.131 12.6333 95.8922 12.7229L95.1757 13.0813C94.6681 13.2904 94.2502 13.6787 93.7725 13.9624C93.3545 14.3357 92.9067 14.6642 92.5336 15.0674C91.7424 15.829 91.1304 16.6951 90.6229 17.4418C89.6228 18.9799 89.1899 20.1298 89.1899 20.1298C89.1003 20.3687 88.8316 20.4882 88.5928 20.3986C88.3838 20.3239 88.2644 20.1148 88.2942 19.8908L88.2495 19.9058Z"
      fill="#533723" />
    <path
      d="M240.954 61.0017C240.954 61.0017 241.193 61.5692 241.507 62.5846C241.805 63.6001 242.253 65.0635 242.611 66.8555C242.969 68.6475 243.328 70.753 243.522 73.0378C243.626 74.1727 243.671 75.3674 243.701 76.577C243.671 77.7865 243.701 79.0111 243.611 80.2356C243.507 81.4601 243.447 82.6846 243.223 83.8793C243.059 85.0739 242.85 86.2536 242.566 87.3587C242.432 87.9112 242.298 88.4637 242.163 89.0013C242.014 89.5389 241.82 90.0466 241.656 90.5394C241.313 91.54 241.029 92.4807 240.611 93.317C240.238 94.1533 239.88 94.9148 239.566 95.5868C239.178 96.229 238.85 96.7815 238.581 97.2444C238.014 98.1404 237.7 98.6631 237.7 98.6631C237.7 98.6631 237.939 98.1105 238.357 97.1249C238.566 96.6471 238.835 96.0647 239.133 95.3927C239.357 94.6908 239.626 93.9143 239.939 93.0631C240.283 92.2269 240.492 91.2712 240.76 90.2856C241.059 89.3 241.253 88.2248 241.462 87.1347C241.716 86.0446 241.835 84.8947 241.999 83.7299C242.193 82.5651 242.238 81.3705 242.328 80.1758C242.447 78.9812 242.417 77.7865 242.462 76.6068C242.432 75.4271 242.462 74.2623 242.387 73.1423C242.283 70.9024 242.148 68.7968 241.91 67.0048C241.686 65.2129 241.492 63.7046 241.283 62.6742C241.089 61.6289 240.984 61.0316 240.984 61.0316L240.954 61.0017Z"
      fill="#5F462B" />
    <path
      d="M240.372 103.651C240.372 103.651 240.999 102.591 241.865 100.978C242.298 100.171 242.79 99.2306 243.283 98.2152C243.776 97.1997 244.298 96.1096 244.761 95.0045C245.253 93.8995 245.671 92.7795 246.074 91.7193C246.283 91.1966 246.433 90.6739 246.612 90.1812C246.791 89.6884 246.94 89.2254 247.075 88.7924C247.358 87.9262 247.582 87.1945 247.731 86.6719C247.895 86.1641 248 85.8655 248 85.8655C248 85.8655 248 86.1791 248 86.7167C248 87.2543 247.955 88.0308 247.821 88.9566C247.761 89.4196 247.701 89.9273 247.567 90.435C247.448 90.9577 247.358 91.5102 247.179 92.0627C247 92.6153 246.88 93.2126 246.642 93.78C246.418 94.3475 246.224 94.9448 245.97 95.5123C244.985 97.797 243.671 99.9325 242.507 101.381C241.357 102.844 240.387 103.636 240.387 103.636L240.372 103.651Z"
      fill="#5F462B" />
    <path
      d="M19.7337 127.633C19.7337 127.633 20.3457 128.873 21.3757 130.59C21.9131 131.441 22.5102 132.442 23.2714 133.427C23.6148 133.95 24.0626 134.413 24.4507 134.936C24.8686 135.428 25.3165 135.921 25.7792 136.384C26.2569 136.832 26.6898 137.325 27.2122 137.713C27.7197 138.116 28.1825 138.534 28.7199 138.848C29.2274 139.192 29.72 139.535 30.2275 139.774C30.7201 140.028 31.1828 140.312 31.6605 140.476C32.1233 140.67 32.5412 140.834 32.9293 140.998C33.3174 141.103 33.6608 141.208 33.9444 141.282C34.5116 141.461 34.84 141.566 34.84 141.566C34.84 141.566 34.4967 141.566 33.8996 141.551C33.601 141.536 33.2279 141.521 32.8099 141.491C32.3919 141.417 31.9292 141.312 31.4217 141.193C30.8992 141.103 30.3768 140.894 29.8095 140.67C29.2423 140.476 28.6751 140.192 28.1078 139.834C27.5257 139.52 26.9734 139.132 26.4211 138.699C25.8538 138.296 25.3762 137.773 24.8537 137.31C23.8835 136.295 23.0028 135.204 22.331 134.084C21.6295 132.994 21.1219 131.889 20.7189 130.934C19.9427 129.007 19.7486 127.633 19.7486 127.633H19.7337Z"
      fill="#5F462B" />
    <path
      d="M18.1514 138.43C18.1514 138.43 18.3604 138.729 18.7634 139.221C19.1515 139.714 19.7486 140.386 20.4801 141.163C21.2115 141.939 22.1221 142.79 23.1222 143.642C24.1522 144.463 25.2568 145.344 26.4659 146.061C27.048 146.464 27.675 146.763 28.272 147.106C28.8691 147.45 29.511 147.689 30.1081 147.987C30.7052 148.271 31.3172 148.45 31.8844 148.689C32.4517 148.928 33.004 149.062 33.5115 149.212C34.019 149.346 34.4818 149.54 34.9146 149.63C35.3475 149.719 35.7207 149.809 36.0192 149.884C36.6313 150.033 36.9895 150.123 36.9895 150.123C36.9895 150.123 36.6313 150.138 35.9894 150.123C35.6759 150.123 35.2878 150.123 34.84 150.108C34.3922 150.108 33.8996 150.018 33.3473 149.943C32.8099 149.869 32.1979 149.809 31.6008 149.615C30.9888 149.436 30.332 149.331 29.6901 149.047C29.0483 148.779 28.3467 148.584 27.7197 148.226C27.0779 147.883 26.3912 147.584 25.7792 147.166C25.1523 146.778 24.5403 146.359 23.973 145.897C23.3759 145.478 22.8684 144.956 22.3609 144.493C21.3757 143.522 20.5248 142.537 19.9128 141.626C19.271 140.73 18.853 139.908 18.5545 139.341C18.2708 138.773 18.1514 138.415 18.1514 138.415V138.43Z"
      fill="#5F462B" />
  </g>
  <defs>
    <clipPath id="clip0_92_934">
      <rect width="248" height="230" fill="white" />
    </clipPath>
  </defs>
</svg>