<svg width="18" height="23" viewBox="0 0 18 23" fill="none" xmlns="http://www.w3.org/2000/svg">
<path d="M15.3095 3.94032V4.77581L11.3128 2.46129C9.79987 1.59194 7.68858 1.59194 6.18701 2.46129L2.19024 4.7871V3.94032C2.19024 1.4 3.57894 0 6.11927 0H11.3805C13.9208 0 15.3095 1.4 15.3095 3.94032Z" fill="white"/>
<path d="M15.3435 6.74121L15.1855 6.66218L13.65 5.78153L10.4661 3.94121C9.49516 3.37669 8.00484 3.37669 7.03387 3.94121L3.85 5.77024L2.31452 6.67347L2.11129 6.77508C0.135484 8.10734 0 8.35573 0 10.4896V15.5928C0 17.7267 0.135484 17.975 2.15645 19.3412L7.03387 22.1525C7.51935 22.446 8.12903 22.5702 8.75 22.5702C9.35968 22.5702 9.98065 22.4347 10.4661 22.1525L15.3887 19.3073C17.3758 17.975 17.5 17.7379 17.5 15.5928V10.4896C17.5 8.35573 17.3645 8.10734 15.3435 6.74121ZM11.9 12.9847L11.2113 13.8315C11.0984 13.9557 11.0194 14.1928 11.0306 14.3621L11.0984 15.446C11.1435 16.1121 10.6694 16.4509 10.0484 16.2138L9.04355 15.8073C8.88548 15.7509 8.62581 15.7509 8.46774 15.8073L7.4629 16.2025C6.84194 16.4509 6.36774 16.1009 6.4129 15.4347L6.48064 14.3509C6.49194 14.1815 6.4129 13.9444 6.3 13.8202L5.6 12.9847C5.17097 12.4767 5.3629 11.9121 6.00645 11.7428L7.05645 11.4718C7.22581 11.4267 7.41774 11.2686 7.50806 11.1331L8.09516 10.2299C8.45645 9.66537 9.03226 9.66537 9.40484 10.2299L9.99194 11.1331C10.0823 11.2799 10.2855 11.4267 10.4435 11.4718L11.4935 11.7428C12.1371 11.9121 12.329 12.4767 11.9 12.9847Z" fill="white"/>
</svg>
