<svg width="27" height="27" viewBox="0 0 27 27" fill="none" xmlns="http://www.w3.org/2000/svg">
<path d="M15.1875 4.56771C15.1875 3.06471 13.3695 2.31208 12.3075 3.37521L7.24501 8.43771H5.07151C3.78788 8.43771 2.46376 9.18471 2.07901 10.5808C1.81798 11.532 1.6863 12.5139 1.68751 13.5002C1.68751 14.5105 1.82363 15.4892 2.08126 16.4196C2.46488 17.8146 3.78901 18.5627 5.07263 18.5627H7.24388L12.3064 23.6252C13.3695 24.6883 15.1875 23.9357 15.1875 22.4327V4.56771ZM20.907 5.74446C21.0652 5.58645 21.2797 5.4977 21.5033 5.4977C21.7269 5.4977 21.9413 5.58645 22.0995 5.74446C26.3835 10.0273 26.3835 16.972 22.0995 21.256C21.9396 21.405 21.728 21.4861 21.5094 21.4823C21.2908 21.4784 21.0823 21.3899 20.9277 21.2353C20.7731 21.0807 20.6845 20.8721 20.6807 20.6535C20.6768 20.435 20.758 20.2234 20.907 20.0635C21.769 19.2016 22.4527 18.1784 22.9192 17.0523C23.3857 15.9261 23.6258 14.7191 23.6258 13.5002C23.6258 12.2813 23.3857 11.0743 22.9192 9.94815C22.4527 8.82202 21.769 7.79881 20.907 6.93696C20.749 6.77875 20.6603 6.5643 20.6603 6.34071C20.6603 6.11711 20.749 5.90266 20.907 5.74446Z" fill="white"/>
<path d="M17.9235 8.72681C18.0018 8.64841 18.0949 8.58621 18.1973 8.54377C18.2997 8.50133 18.4095 8.47949 18.5203 8.47949C18.6311 8.47949 18.7409 8.50133 18.8433 8.54377C18.9457 8.58621 19.0388 8.64841 19.1171 8.72681C19.744 9.35362 20.2413 10.0978 20.5806 10.9168C20.9199 11.7358 21.0945 12.6137 21.0945 13.5002C21.0945 14.3867 20.9199 15.2645 20.5806 16.0836C20.2413 16.9026 19.744 17.6468 19.1171 18.2736C18.9579 18.4272 18.7447 18.5121 18.5235 18.5101C18.3023 18.5081 18.0907 18.4192 17.9343 18.2627C17.778 18.1062 17.6893 17.8946 17.6875 17.6733C17.6857 17.4521 17.7708 17.239 17.9246 17.0799C18.3947 16.6098 18.7676 16.0518 19.022 15.4375C19.2765 14.8233 19.4074 14.165 19.4074 13.5002C19.4074 12.8354 19.2765 12.1771 19.022 11.5628C18.7676 10.9486 18.3947 10.3905 17.9246 9.92044C17.7666 9.76223 17.6779 9.54778 17.6779 9.32419C17.6779 9.10059 17.7666 8.88614 17.9246 8.72794L17.9235 8.72681Z" fill="white"/>
</svg>
