<svg width="24" height="24" viewBox="0 0 24 24" fill="none" xmlns="http://www.w3.org/2000/svg">
<path d="M11.4799 3.49921C11.5222 3.39605 11.5942 3.30779 11.6868 3.24567C11.7794 3.18356 11.8884 3.15039 11.9999 3.15039C12.1114 3.15039 12.2204 3.18356 12.313 3.24567C12.4056 3.30779 12.4776 3.39605 12.5199 3.49921L14.6449 8.61021C14.6847 8.70585 14.7501 8.78866 14.8339 8.84953C14.9177 8.9104 15.0167 8.94697 15.1199 8.95521L20.6379 9.39721C21.1369 9.43721 21.3389 10.0602 20.9589 10.3852L16.7549 13.9872C16.6764 14.0544 16.6178 14.1419 16.5857 14.2402C16.5536 14.3384 16.5492 14.4436 16.5729 14.5442L17.8579 19.9292C17.8837 20.0373 17.877 20.1505 17.8385 20.2547C17.8 20.3589 17.7314 20.4494 17.6416 20.5146C17.5517 20.5799 17.4445 20.6171 17.3335 20.6214C17.2225 20.6258 17.1127 20.5972 17.0179 20.5392L12.2929 17.6542C12.2047 17.6003 12.1033 17.5718 11.9999 17.5718C11.8965 17.5718 11.7951 17.6003 11.7069 17.6542L6.98192 20.5402C6.88718 20.5982 6.77737 20.6268 6.66638 20.6224C6.55538 20.6181 6.44817 20.5809 6.35829 20.5156C6.26841 20.4504 6.19988 20.3599 6.16137 20.2557C6.12286 20.1515 6.11609 20.0383 6.14192 19.9302L7.42692 14.5442C7.45075 14.4436 7.44637 14.3384 7.41426 14.2401C7.38215 14.1418 7.32355 14.0543 7.24492 13.9872L3.04092 10.3852C2.95626 10.313 2.89493 10.2174 2.86468 10.1103C2.83443 10.0033 2.83664 9.88966 2.87101 9.78386C2.90538 9.67807 2.97038 9.58485 3.05777 9.51602C3.14516 9.44719 3.25101 9.40584 3.36192 9.39721L8.87992 8.95521C8.98317 8.94697 9.08214 8.9104 9.16595 8.84953C9.24975 8.78866 9.31514 8.70585 9.35492 8.61021L11.4799 3.49921Z" stroke="white" stroke-width="1.5" stroke-linecap="round" stroke-linejoin="round"/>
</svg>
